SplineFontDB: 3.0
FontName: AnkaCoder-C87-bi
FullName: Anka/Coder Condensed Bold Italic
FamilyName: Anka/Coder Condensed
Weight: Bold
Copyright: Copyright (c) 2010, Andrey Makarov (makarov@bmstu.ru, mka-at-mailru@mail.ru),\nwith Reserved Font Name Anka/Coder Condensed.\n---------------------------------\nThe Anka/* are members of Anna Shugol name font family; March 2010
Version: 001.000
ItalicAngle: -12
UnderlinePosition: -292
UnderlineWidth: 150
Ascent: 1638
Descent: 410
LayerCount: 2
Layer: 0 0 "Back"  1
Layer: 1 0 "Fore"  0
XUID: [1021 77 1780377344 7973877]
UseXUID: 1
BaseHoriz: 0
FSType: 8
OS2Version: 1
OS2_WeightWidthSlopeOnly: 0
OS2_UseTypoMetrics: 1
CreationTime: 1260467214
ModificationTime: 1268390750
PfmFamily: 49
TTFWeight: 700
TTFWidth: 4
LineGap: 0
VLineGap: 0
Panose: 2 11 8 9 2 5 2 2 2 4
OS2TypoAscent: 0
OS2TypoAOffset: 1
OS2TypoDescent: 0
OS2TypoDOffset: 1
OS2TypoLinegap: 0
OS2WinAscent: 0
OS2WinAOffset: 1
OS2WinDescent: 0
OS2WinDOffset: 1
HheadAscent: 0
HheadAOffset: 1
HheadDescent: 0
HheadDOffset: 1
OS2SubXSize: 553
OS2SubYSize: 1229
OS2SubXOff: 0
OS2SubYOff: 283
OS2SupXSize: 553
OS2SupYSize: 1229
OS2SupXOff: 0
OS2SupYOff: 977
OS2StrikeYSize: 102
OS2StrikeYPos: 530
OS2FamilyClass: 1285
OS2Vendor: 'AVM1'
OS2CodePages: 40000097.cfd60000
OS2UnicodeRanges: 800002ef.000079eb.00000000.00000000
MacStyle: 3
DEI: 91125
ShortTable: maxp 16
  0
  0
  0
  0
  0
  0
  0
  2
  1
  0
  9
  0
  256
  0
  0
  0
EndShort
TtTable: prep
PUSHW_1
 511
SCANCTRL
SVTCA[y-axis]
MPPEM
PUSHB_1
 8
LT
IF
PUSHB_2
 1
 1
INSTCTRL
EIF
PUSHB_2
 70
 6
CALL
IF
POP
PUSHB_1
 16
EIF
MPPEM
PUSHB_1
 20
GT
IF
POP
PUSHB_1
 128
EIF
SCVTCI
PUSHB_1
 6
CALL
NOT
IF
EIF
EndTTInstrs
TtTable: fpgm
PUSHB_1
 0
FDEF
PUSHB_1
 0
SZP0
MPPEM
PUSHB_1
 42
LT
IF
PUSHB_1
 74
SROUND
EIF
PUSHB_1
 0
SWAP
MIAP[rnd]
RTG
PUSHB_1
 6
CALL
IF
RTDG
EIF
MPPEM
PUSHB_1
 42
LT
IF
RDTG
EIF
DUP
MDRP[rp0,rnd,grey]
PUSHB_1
 1
SZP0
MDAP[no-rnd]
RTG
ENDF
PUSHB_1
 1
FDEF
DUP
DUP
MDRP[rp0,min,white]
MDAP[rnd]
PUSHB_1
 7
CALL
NOT
IF

StartChar: exclam
Encoding: 33 33 1
Width: 1075
VWidth: 1708
GlyphClass: 2
Flags: W
HStem: -73 236<333.831 525.861> 1398 20G<683.5 748>
VStem: 306 247<-43.6871 134.037> 553 285<1189.5 1364.96>
LayerCount: 2
Fore
SplineSet
553 45 m 0
 553 -24 496 -73 430 -73 c 0
 366 -73 306 -23 306 45 c 0
 306 107 360 163 430 163 c 0
 495 163 553 115 553 45 c 0
716 1418 m 0
 780 1418 838 1379 838 1309 c 0
 838 1298 836 1286 833 1273 c 2
 613 384 l 1
 402 384 l 1
 553 1274 l 2
 569 1371 651 1418 716 1418 c 0
EndSplineSet
Validated: 3073
EndChar

StartChar: quotedbl
Encoding: 34 34 2
Width: 1075
VWidth: 1708
GlyphClass: 2
Flags: W
HStem: 1043 382<367 502 817 952>
LayerCount: 2
Fore
SplineSet
435 1077 m 2
 414 1053 390 1043 367 1043 c 3
 325 1043 288 1078 288 1123 c 3
 288 1137 292 1153 300 1169 c 2
 402 1360 l 2
 427 1407 465 1425 502 1425 c 3
 559 1425 614 1381 614 1322 c 3
 614 1296 603 1268 578 1239 c 2
 435 1077 l 2
885 1077 m 2
 864 1053 840 1043 817 1043 c 3
 775 1043 738 1078 738 1123 c 3
 738 1137 742 1153 750 1169 c 2
 852 1360 l 2
 877 1407 915 1425 952 1425 c 3
 1009 1425 1064 1381 1064 1322 c 3
 1064 1296 1053 1268 1028 1239 c 2
 885 1077 l 2
EndSplineSet
EndChar

StartChar: numbersign
Encoding: 35 35 3
Width: 1075
VWidth: 1708
GlyphClass: 2
Flags: W
HStem: 0 21G<92 311.373 519 738.373> 311 210<72 160 421 587 848 941> 838 210<187 275 535 702 963 1056>
VStem: 92 215<0 215> 379 215<1105 1320> 519 215<0 215> 807 215<1105 1320>
DStem2: 92 0 307 0 0.207912 0.978148<44.701 318.342 578.018 857.736 1117.2 1350.83> 519 0 734 0 0.207912 0.978148<44.701 318.342 578.018 857.736 1117.41 1351.03>
LayerCount: 2
Fore
SplineSet
421 521 m 1xf2
 633 521 l 1
 702 838 l 1
 490 838 l 1
 421 521 l 1xf2
307 0 m 1
 92 0 l 1
 160 311 l 1
 26 311 l 1
 72 521 l 1
 206 521 l 1
 275 838 l 1
 141 838 l 1
 187 1048 l 1
 320 1048 l 1
 379 1320 l 1
 594 1320 l 1xfa
 535 1048 l 1
 748 1048 l 1
 807 1320 l 1
 1022 1320 l 1
 963 1048 l 1
 1102 1048 l 1
 1056 838 l 1
 917 838 l 1
 848 521 l 1
 987 521 l 1
 941 311 l 1
 802 311 l 1
 734 0 l 1
 519 0 l 1xf6
 587 311 l 1
 375 311 l 1
 307 0 l 1
EndSplineSet
Validated: 3073
EndChar

StartChar: dollar
Encoding: 36 36 4
Width: 1075
VWidth: 2334
GlyphClass: 2
Flags: W
VStem: 214 210<920.361 1117.25> 750 210<294.607 556.455>
DStem2: 295 -93 511 -93 0.207912 0.978148<44.9089 83.7062 349.287 746.836 1014.96 1314.24 1584.89 1618.83>
LayerCount: 2
Fore
SplineSet
505 900 m 1
 566 1193 l 1
 495 1164 449 1108 435 1042 c 2
 428 1010 l 2
 425 996 424 985 424 979 c 3
 424 951 442 931 479 913 c 2
 505 900 l 1
655 594 m 1
 573 205 l 1
 656 233 724 288 739 358 c 2
 745 388 l 2
 748 402 750 418 750 433 c 3
 750 475 739 552 655 594 c 1
511 -93 m 1
 295 -93 l 1
 312 -13 l 1
 117 31 19 184 19 304 c 1
 229 312 l 1
 230 300 234 221 356 192 c 1
 460 688 l 1
 387 723 l 2
 243 793 214 905 214 979 c 3
 214 992 218 1024 224 1056 c 2
 229 1084 l 2
 267 1270 423 1395 614 1420 c 1
 629 1491 l 1
 844 1491 l 1
 828 1414 l 1
 996 1383 1078 1275 1095 1160 c 1
 887 1130 l 1
 884 1154 873 1191 784 1209 c 1
 699 805 l 1
 755 778 l 2
 900 707 960 562 960 433 c 3
 960 403 957 375 951 346 c 2
 945 316 l 2
 904 117 710 4 526 -20 c 1
 511 -93 l 1
EndSplineSet
Validated: 3073
EndChar

StartChar: percent
Encoding: 37 37 5
Width: 1075
VWidth: 1708
GlyphClass: 2
Flags: W
HStem: -41 193<672.187 786.979> 350 194<671.782 787.162> 852 193<358.224 471.121> 1245 193<357.463 472.669>
VStem: 150 199<1049.61 1240.37> 465 199<155.15 347.174> 481 199<1050.26 1241.76> 796 199<157.336 343.52>
DStem2: -57 177 97 35 0.680427 0.732815<0.726036 1622.51>
LayerCount: 2
Fore
SplineSet
730 152 m 0xfd
 785 152 796 214 796 251 c 0
 795 349 743 350 729 350 c 0
 715 350 664 349 664 252 c 0
 664 152 716 152 730 152 c 0xfd
465 252 m 0
 465 417 571 544 729 544 c 0
 889 544 993 417 995 253 c 1
 995 90 889 -41 730 -41 c 0
 571 -41 465 83 465 252 c 0
415 1045 m 0
 467 1045 481 1103 481 1145 c 0xfb
 481 1199 465 1245 415 1245 c 0
 366 1245 349 1198 349 1146 c 0
 349 1106 361 1045 415 1045 c 0
415 852 m 0
 256 852 152 982 150 1144 c 1
 150 1310 256 1438 415 1438 c 0
 574 1438 680 1314 680 1145 c 0
 680 1032 627 852 415 852 c 0
1047 1366 m 1
 1201 1224 l 1
 97 35 l 1
 -57 177 l 1
 1047 1366 l 1
EndSplineSet
Validated: 3073
EndChar

StartChar: ampersand
Encoding: 38 38 6
Width: 1075
VWidth: 2334
GlyphClass: 2
Flags: W
HStem: -25 210<279.117 580> 1215 210<574.895 795.762>
VStem: 16 208<220.699 428.837> 329 210<926.031 1181.05> 796 211<1120 1208.64>
DStem2: 274 726 390 552 0.832681 0.553753<-190.785 100.64 357.782 644.001> 652 725 474 607 0.392931 -0.919568<38.5673 288.087 632.204 732.129>
LayerCount: 2
Fore
SplineSet
690 1215 m 2
 569 1215 539 1141 539 1079 c 3
 539 1044 549 992 572 924 c 1
 680 996 l 2
 763 1052 780 1084 788 1120 c 2
 796 1148 l 2
 797 1155 796 1162 796 1168 c 3
 796 1195 779 1215 712 1215 c 2
 690 1215 l 2
707 61 m 1
 638 14 546 -25 427 -25 c 2
 406 -25 l 2
 315 -25 238 -4 178 28 c 0
 96 72 16 154 16 293 c 3
 16 313 18 334 21 356 c 1
 27 388 l 2
 59 537 151 645 274 726 c 2
 392 804 l 1
 350 914 329 1007 329 1079 c 3
 329 1090 331 1113 332 1122 c 2
 336 1148 l 2
 361 1311 504 1425 690 1425 c 2
 712 1425 l 2
 905 1425 1007 1310 1007 1170 c 3
 1007 1150 1006 1128 1000 1102 c 2
 994 1076 l 2
 967 958 944 920 796 822 c 2
 652 725 l 1
 765 460 l 1
 889 648 l 1
 1065 532 l 1
 864 228 l 1
 940 51 l 1
 746 -31 l 1
 707 61 l 1
622 261 m 1
 474 607 l 1
 390 552 l 2
 313 501 253 438 233 346 c 2
 227 318 l 2
 225 309 224 301 224 293 c 3
 224 253 247 229 277 213 c 0
 322 189 378 185 406 185 c 2
 427 185 l 2
 504 185 569 212 622 261 c 1
EndSplineSet
Validated: 3073
EndChar

StartChar: quotesingle
Encoding: 39 39 7
Width: 1075
VWidth: 1708
GlyphClass: 2
Flags: W
HStem: 1043 382<637 772>
VStem: 558 326
LayerCount: 2
Fore
SplineSet
705 1077 m 2
 684 1053 660 1043 637 1043 c 3
 595 1043 558 1078 558 1123 c 3
 558 1137 562 1153 570 1169 c 2
 672 1360 l 2
 697 1407 735 1425 772 1425 c 3
 829 1425 884 1381 884 1322 c 3
 884 1296 873 1268 848 1239 c 2
 705 1077 l 2
EndSplineSet
EndChar

StartChar: parenleft
Encoding: 40 40 8
Width: 1075
VWidth: 1708
GlyphClass: 2
Flags: W
VStem: 183 210<302.413 767.859>
LayerCount: 2
Fore
SplineSet
973 1390 m 1
 654 1201 393 877 393 534 c 0
 393 302 515 114 658 0 c 1
 528 -162 l 1
 346 -17 183 225 183 534 c 0
 183 1051 612 1419 865 1570 c 1
 973 1390 l 1
EndSplineSet
Validated: 3073
EndChar

StartChar: parenright
Encoding: 41 41 9
Width: 1075
VWidth: 1708
GlyphClass: 2
Flags: W
VStem: 728 210<631.585 1096.82>
LayerCount: 2
Fore
SplineSet
148 10 m 1
 466 199 728 523 728 865 c 0
 728 1097 606 1286 463 1400 c 1
 593 1562 l 1
 775 1417 938 1174 938 865 c 0
 938 349 508 -20 256 -170 c 1
 148 10 l 1
EndSplineSet
Validated: 3073
EndChar

StartChar: asterisk
Encoding: 42 42 10
Width: 1075
VWidth: 1708
GlyphClass: 2
Flags: W
HStem: 625 203<144.536 193 958 1010.88>
VStem: 529 208<929.484 1063.73>
DStem2: 200 377 352 233 0.687421 0.726259<-71.3357 248.314>
LayerCount: 2
Fore
SplineSet
798 353 m 2
 806 337 810 321 810 304 c 0
 810 266 789 230 753 212 c 0
 737 204 721 200 704 200 c 0
 666 200 630 221 612 257 c 2
 529 420 l 1
 352 233 l 2
 331 211 304 200 276 200 c 0
 250 200 224 210 204 229 c 0
 182 250 171 277 171 305 c 0
 171 331 181 357 200 377 c 2
 370 558 l 1
 193 625 l 2
 151 641 125 681 125 723 c 0
 125 735 127 748 132 760 c 0
 148 802 188 828 230 828 c 0
 242 828 255 826 267 821 c 2
 476 742 l 1
 529 999 l 2
 539 1049 583 1083 631 1083 c 0
 639 1083 646 1083 653 1081 c 0
 703 1071 737 1027 737 979 c 0
 737 971 737 964 735 957 c 2
 693 757 l 1
 892 823 l 2
 903 827 914 828 925 828 c 0
 969 828 1011 800 1025 756 c 0
 1029 745 1030 734 1030 723 c 0
 1030 679 1002 639 958 625 c 2
 703 539 l 1
 798 353 l 2
EndSplineSet
Validated: 3073
EndChar

StartChar: plus
Encoding: 43 43 11
Width: 1075
VWidth: 1708
GlyphClass: 2
Flags: W
HStem: 495 210<166 424 683 941>
VStem: 359 215<189 404> 534 215<796 1011>
DStem2: 359 189 574 189 0.207912 0.978148<44.701 312.827 572.088 840.422>
LayerCount: 2
Fore
SplineSet
359 189 m 1xc0
 424 495 l 1
 121 495 l 1
 166 705 l 1
 469 705 l 1
 534 1011 l 1
 749 1011 l 1xa0
 683 705 l 1
 986 705 l 1
 941 495 l 1
 639 495 l 1
 574 189 l 1
 359 189 l 1xc0
EndSplineSet
Validated: 3073
EndChar

StartChar: comma
Encoding: 44 44 12
Width: 1075
VWidth: 1947
GlyphClass: 2
Flags: W
HStem: -295 454<329.045 492> -295 76<187 285.97>
VStem: 328 207<-126.723 79.0873>
LayerCount: 2
Fore
SplineSet
328 -114 m 3x60
 328 -59 277 -46 277 29 c 3
 277 101 329 159 407 159 c 3xa0
 492 159 535 94 535 29 c 3
 535 22 528 -287 187 -295 c 1
 184 -219 l 1
 243 -211 328 -177 328 -114 c 3x60
EndSplineSet
Validated: 3073
EndChar

StartChar: hyphen
Encoding: 45 45 13
Width: 1075
VWidth: 1708
GlyphClass: 2
Flags: W
HStem: 495 210<127 949>
LayerCount: 2
Fore
SplineSet
949 705 m 1
 949 495 l 1
 127 495 l 1
 127 705 l 1
 949 705 l 1
EndSplineSet
Validated: 3073
EndChar

StartChar: period
Encoding: 46 46 14
Width: 1075
VWidth: 1708
GlyphClass: 2
Flags: W
HStem: -101 40<459 466 469 475 478 483 485 490 494 494.72> -47 6<462 467> -39 2<463 465> -35 2<462 465>
VStem: 437 4<-41 -35 -33 -31> 447 2<-41 -33> 451 2<-41 -33> 455 2<-41 -33> 459 2<-39 -37> 461 8<-53 -49> 463 2<-39 -37> 467 2<-59 -55 -49 -47> 475 2<-59 -53> 479 2<-59 -51> 483 2<-59 -53> 487 2<-59 -53> 491 2<-59 -53> 495 2<-59 -53> 499 2<-59 -53>
LayerCount: 2
Fore
SplineSet
505 -59 m 25xff8fe0
 503 -59 l 25
 503 -47 l 25
 501 -47 l 25
 501 -61 l 25
 505 -61 l 25
 505 -59 l 25xff8fe0
497 -59 m 9
 495 -59 l 17
 495 -53 l 9
 497 -53 l 1
 497 -59 l 9
435 -41 m 9
 437 -41 l 25
 437 -35 l 25
 441 -35 l 25
 441 -41 l 25
 443 -41 l 25
 443 -27 l 25
 437 -27 l 17
 435 -31 l 1
 435 -41 l 9
438 -29 m 9
 441 -29 l 25
 441 -33 l 25
 437 -33 l 17
 437 -31 l 1
 438 -29 l 9
449 -33 m 25
 449 -41 l 25
 451 -41 l 17
 451 -33 l 1
 450 -31 l 9
 445 -31 l 17
 445 -41 l 9
 447 -41 l 17
 447 -33 l 9
 449 -33 l 25
457 -33 m 25
 457 -41 l 25
 459 -41 l 17
 459 -33 l 1
 458 -31 l 9
 453 -31 l 17
 453 -41 l 9
 455 -41 l 25
 455 -33 l 25
 457 -33 l 25
463 -37 m 25xffafe0
 465 -37 l 25
 465 -39 l 25
 463 -39 l 25
 463 -37 l 25xffafe0
462 -41 m 9
 467 -41 l 17
 467 -33 l 1xffbfe0
 466 -31 l 9
 461 -31 l 25
 461 -33 l 25
 465 -33 l 25
 465 -35 l 25
 462 -35 l 17
 461 -37 l 1
 461 -39 l 1
 462 -41 l 9
473 -53 m 25
 473 -61 l 25
 475 -61 l 17
 475 -53 l 1
 474 -51 l 1
 471 -51 l 1
 471 -47 l 1
 469 -47 l 9
 469 -61 l 25
 471 -61 l 25
 471 -53 l 25
 473 -53 l 25
466 -53 m 1
 461 -53 l 25
 461 -49 l 25
 467 -49 l 1
 467 -47 l 9
 460 -47 l 17
 459 -49 l 1
 459 -53 l 1
 460 -55 l 9
 465 -55 l 17
 465 -59 l 1
 459 -59 l 1
 459 -61 l 9
 466 -61 l 17
 467 -59 l 1
 467 -55 l 1
 466 -53 l 1
481 -59 m 25
 479 -59 l 25
 479 -51 l 25
 477 -51 l 17
 477 -59 l 1
 478 -61 l 9
 483 -61 l 25
 483 -51 l 25
 481 -51 l 25
 481 -59 l 25
487 -59 m 25
 487 -53 l 25
 489 -53 l 25
 489 -59 l 25
 487 -59 l 25
486 -51 m 17
 485 -53 l 1
 485 -59 l 1
 486 -61 l 9
 489 -61 l 25
 489 -63 l 25
 485 -63 l 25
 485 -65 l 25
 490 -65 l 17
 491 -63 l 1
 491 -51 l 9
 486 -51 l 17
494 -51 m 17
 493 -53 l 1
 493 -59 l 1
 494 -61 l 9
 498 -61 l 17
 499 -59 l 1
 499 -53 l 1
 498 -51 l 9
 494 -51 l 17
555 29 m 0
 555 -40 502 -101 425 -101 c 0
 351 -101 296 -41 296 29 c 0
 296 97 347 159 425 159 c 0
 501 159 555 99 555 29 c 0
EndSplineSet
EndChar

StartChar: slash
Encoding: 47 47 15
Width: 1075
VWidth: 1708
GlyphClass: 2
Flags: W
DStem2: 11 32 187 -82 0.546814 0.837254<0.792206 1731.85>
LayerCount: 2
Fore
SplineSet
958 1482 m 1
 1134 1368 l 1
 187 -82 l 1
 11 32 l 1
 958 1482 l 1
EndSplineSet
Validated: 3073
EndChar

StartChar: zero
Encoding: 48 48 16
Width: 1075
VWidth: 1708
GlyphClass: 2
Flags: W
HStem: -25 210<334.327 580.377> 1215 210<563.004 811.639>
DStem2: -58 205 152 120 0.698488 0.715622<0 85.8546 548.76 1041.23 1503.42 1592.1> -28.2336 -46 188.114 -46 0.207912 0.978148<706.567 1180.3> 639.235 -46 855.012 -46 0.207912 0.978148<387.455 865.593>
LayerCount: 2
Fore
SplineSet
311 283 m 1
 334 191 375 185 428 185 c 2
 461 185 l 2
 593 185 705 294 791 668 c 2
 813 770 l 2
 819 804 l 1
 311 283 l 1
833 1119 m 1
 811 1201 785 1215 714 1215 c 2
 687 1215 l 2
 544 1209 435 1097 351 725 c 2
 331 631 l 2
 325 598 l 1
 833 1119 l 1
718 1425 m 2
 755 1425 904 1422 992 1281 c 1
 1165 1458 l 1
 1204 1198 l 1
 1052 1042 l 1
 1053 1024 l 2
 1053 1017 1054 1007 1054 1000 c 3
 1054 941 1044 855 1019 728 c 2
 997 622 l 2
 938 338 805 -25 461 -25 c 2
 424 -25 l 2
 385 -25 238 -22 152 120 c 1
 -10 -46 l 1
 -58 205 l 1
 93 360 l 1
 93 380 l 2
 93 438 98 528 125 671 c 2
 145 769 l 2
 205 1061 337 1412 683 1425 c 2
 718 1425 l 2
EndSplineSet
Validated: 3073
EndChar

StartChar: one
Encoding: 49 49 17
Width: 1075
VWidth: 1708
GlyphClass: 2
Flags: W
HStem: 0 21G<432 651.168> 1405 20G<762.557 944>
VStem: 432 215<0 215>
DStem2: 432 0 647 0 0.207912 0.978148<44.701 1027.32>
LayerCount: 2
Fore
SplineSet
432 0 m 1
 645 1005 l 1
 429 913 l 1
 368 1019 l 1
 783 1425 l 1
 944 1425 l 1
 647 0 l 1
 432 0 l 1
EndSplineSet
Validated: 3073
EndChar

StartChar: two
Encoding: 50 50 18
Width: 1075
VWidth: 2334
GlyphClass: 2
Flags: W
HStem: 0 210<320 855> 1215 210<516.378 863.34>
VStem: 874 210<1047.77 1196.54>
DStem2: 269 461 411 307 0.734447 0.678666<-127.487 851.223>
LayerCount: 2
Fore
SplineSet
874 1138 m 3
 874 1184 857 1210 711 1215 c 2
 690 1215 l 2
 556 1215 503 1177 441 1089 c 1
 269 1209 l 1
 378 1365 501 1425 690 1425 c 2
 711 1425 l 2
 771 1425 786 1424 834 1415 c 0
 995 1385 1084 1283 1084 1138 c 3
 1084 1106 1080 1075 1073 1042 c 2
 1065 1002 l 2
 1052 946 1014 865 885 745 c 2
 411 307 l 2
 376 275 346 242 320 210 c 1
 899 210 l 1
 855 0 l 1
 -3 0 l 1
 27 142 l 1
 33 154 l 2
 104 289 185 383 269 461 c 2
 743 899 l 2
 836 985 856 1030 859 1046 c 2
 867 1086 l 2
 869 1096 874 1118 874 1138 c 3
EndSplineSet
Validated: 3073
EndChar

StartChar: three
Encoding: 51 51 19
Width: 1075
VWidth: 2334
GlyphClass: 2
Flags: W
HStem: -25 210<291.803 623.123> 672 210<404 706.182> 1215 210<532.711 806.754>
VStem: 744 210<329.511 642.348> 820 210<986.263 1203.52>
DStem2: 634.412 -25 848.19 -25 0.207912 0.978148<274.897 569.306>
LayerCount: 2
Fore
SplineSet
744 535 m 3xf0
 744 654 657 672 598 672 c 2
 404 672 l 1
 404 882 l 1
 569 882 l 2
 660 882 788 960 806 1044 c 2
 815 1086 l 1
 818 1102 820 1116 820 1130 c 3
 820 1181 794 1215 711 1215 c 2
 690 1215 l 2
 601 1215 502 1176 454 1101 c 1
 278 1215 l 1
 364 1350 528 1425 690 1425 c 2
 711 1425 l 2
 911 1425 1030 1298 1030 1125 c 3xe8
 1030 1098 1027 1069 1021 1040 c 2
 1012 1000 l 2
 1003 962 972 870 865 784 c 1
 932 715 954 623 954 535 c 3
 954 490 948 442 938 394 c 2
 933 374 l 2
 872 74 678 -25 453 -25 c 2
 432 -25 l 2
 357 -25 317 -18 250 10 c 0
 150 53 68 141 63 270 c 1
 273 278 l 1
 276 188 396 185 432 185 c 2
 453 185 l 2
 618 185 696 257 729 420 c 2
 734 440 l 2
 742 477 744 508 744 535 c 3xf0
EndSplineSet
Validated: 3073
EndChar

StartChar: four
Encoding: 52 52 20
Width: 1075
VWidth: 1708
GlyphClass: 2
Flags: W
HStem: 0 21G<562 781.161> 322 210<402 629 887 922> 1405 20G<877.742 1074>
VStem: 562 215<0 215>
DStem2: 102 506 402 532 0.653298 0.757101<215.674 762.341> 562 0 777 0 0.207912 0.978148<44.701 328.894 587.946 966.286>
LayerCount: 2
Fore
SplineSet
759 946 m 1
 402 532 l 1
 673 532 l 1
 759 946 l 1
102 506 m 1
 895 1425 l 1
 1074 1425 l 1
 887 532 l 1
 966 532 l 1
 922 322 l 1
 844 322 l 1
 777 0 l 1
 562 0 l 1
 629 322 l 1
 64 322 l 1
 102 506 l 1
EndSplineSet
Validated: 3073
EndChar

StartChar: five
Encoding: 53 53 21
Width: 1075
VWidth: 2334
GlyphClass: 2
Flags: W
HStem: -25 210<261.644 607.335> 742 210<473.241 724.868> 1190 210<552 1035>
VStem: 760 210<380.33 703.829>
DStem2: 175 736 462 927 0.323486 0.946233<0 42.7957 273.571 551.544> 634.248 -25 849.601 -25 0.207912 0.978148<289.311 644.513>
LayerCount: 2
Fore
SplineSet
760 609 m 27
 760 686 699 742 613 742 c 2
 592 742 l 2
 536 742 436 692 369 602 c 1
 175 736 l 1
 402 1400 l 1
 1079 1400 l 1
 1035 1190 l 1
 552 1190 l 1
 462 927 l 1
 507 944 552 952 592 952 c 2
 613 952 l 2
 783 952 970 919 970 609 c 3
 970 552 965 515 954 465 c 2
 941 405 l 2
 880 125 706 -25 453 -25 c 2
 375 -25 l 2
 314 -25 236 -20 148 36 c 0
 80 79 34 142 15 213 c 1
 217 307 l 1
 219 270 237 231 260 213 c 0
 295 185 334 185 375 185 c 2
 453 185 l 2
 616 185 698 278 735 449 c 2
 748 509 l 2
 756 547 760 570 760 609 c 27
EndSplineSet
Validated: 3073
EndChar

StartChar: six
Encoding: 54 54 22
Width: 1075
VWidth: 2334
GlyphClass: 2
Flags: W
HStem: -25 210<313.285 607.335> 742 210<443.375 733.962> 1215 210<557.089 860.958>
VStem: 77 210<212.089 539.267> 761 210<386.749 717.55>
DStem2: -10.7518 -25 204.601 -25 0.207912 0.978148<409.182 748.642 1004.86 1218.67> 634.248 -25 849.601 -25 0.207912 0.978148<289.311 647.196>
LayerCount: 2
Fore
SplineSet
870 1171 m 1
 857 1211 780 1215 711 1215 c 2
 690 1215 l 2
 632 1215 470 1195 400 915 c 1
 457 939 522 952 592 952 c 2
 613 952 l 2
 648 952 971 930 971 611 c 3
 971 564 965 516 954 465 c 2
 941 405 l 2
 880 125 706 -25 453 -25 c 2
 432 -25 l 2
 378 -25 214 -21 123 140 c 0
 91 196 77 261 77 329 c 3
 77 368 81 408 90 449 c 2
 196 965 l 2
 243 1189 414 1425 690 1425 c 2
 711 1425 l 2
 795 1425 1016 1425 1072 1229 c 1
 870 1171 l 1
761 611 m 3
 761 726 687 742 613 742 c 2
 592 742 l 2
 517 742 365 721 309 465 c 2
 296 405 l 2
 290 377 287 351 287 329 c 3
 287 188 384 185 432 185 c 2
 453 185 l 2
 616 185 698 278 735 449 c 2
 748 509 l 2
 752 529 761 584 761 611 c 3
EndSplineSet
Validated: 3073
EndChar

StartChar: seven
Encoding: 55 55 23
Width: 1075
VWidth: 1708
GlyphClass: 2
Flags: W
HStem: -0 21G<87 414> 1190 210<267 805>
VStem: 87 230<0 230>
LayerCount: 2
Fore
SplineSet
87 -0 m 1
 264 406 526 816 805 1190 c 1
 267 1190 l 1
 267 1400 l 1
 1147 1400 l 1
 1116 1249 l 1
 1101 1230 l 2
 798 840 511 416 317 -0 c 1
 240 0 164 0 87 -0 c 1
EndSplineSet
Validated: 3073
EndChar

StartChar: eight
Encoding: 56 56 24
Width: 1075
VWidth: 2334
GlyphClass: 2
Flags: W
HStem: -25 210<310.522 623.123> 672 210<482.545 716.42> 1215 210<555.77 806.046>
VStem: 71 210<217.74 496.627> 258 210<896.734 1080.84> 744 210<329.511 643.623> 820 210<1008.14 1204.33>
DStem2: 634.412 -25 848.19 -25 0.207912 0.978148<274.897 569.306>
LayerCount: 2
Fore
SplineSet
744 535 m 3xf4
 744 657 660 672 599 672 c 2
 576 672 l 2
 501 672 345 649 293 394 c 2
 288 373 l 2
 282 347 281 327 281 308 c 3
 281 207 375 185 432 185 c 2
 453 185 l 2
 618 185 696 257 729 420 c 2
 734 440 l 2
 742 477 744 508 744 535 c 3xf4
872 778 m 1
 891 756 954 681 954 535 c 3
 954 490 948 442 938 394 c 2
 933 374 l 2
 872 74 678 -25 453 -25 c 2
 432 -25 l 2
 393 -25 338 -19 286 -3 c 0
 195 24 71 121 71 308 c 3xf4
 71 348 78 389 89 440 c 0
 121 591 197 729 307 804 c 1
 276 850 258 907 258 971 c 3
 258 993 260 1016 266 1045 c 2
 274 1085 l 2
 319 1293 488 1425 690 1425 c 2
 711 1425 l 2
 909 1425 1030 1301 1030 1127 c 3xea
 1030 1098 1027 1069 1021 1040 c 2
 1012 1000 l 2
 996 919 944 839 872 778 c 1
711 1215 m 2
 690 1215 l 2
 580 1215 503 1149 480 1043 c 2
 472 1003 l 2
 469 990 468 981 468 971 c 3
 468 899 528 882 576 882 c 2
 599 882 l 2
 699 882 793 978 806 1044 c 2
 815 1086 l 2
 818 1101 820 1115 820 1127 c 3xea
 820 1170 806 1215 711 1215 c 2
EndSplineSet
Validated: 3073
EndChar

StartChar: nine
Encoding: 57 57 25
Width: 1075
VWidth: 2334
GlyphClass: 2
Flags: W
HStem: -25 210<280.797 593.003> 448 210<415.477 712.073> 1215 210<542.961 809.627>
VStem: 176 210<688.812 1021.81> 856 210<838.895 1168.47>
DStem2: -13.0785 -25 201.849 -25 0.207912 0.978148<896.96 1232.93> 634.234 -25 849.2 -25 0.207912 0.978148<307.038 518.327 769.951 1119.31>
LayerCount: 2
Fore
SplineSet
274 229 m 1
 287 189 369 185 432 185 c 2
 453 185 l 2
 684 185 731 437 742 482 c 1
 685 460 622 448 552 448 c 2
 531 448 l 2
 423 448 176 469 176 806 c 3
 176 847 181 886 188 921 c 2
 200 981 l 2
 257 1256 431 1425 690 1425 c 2
 711 1425 l 2
 750 1425 976 1419 1047 1206 c 0
 1061 1163 1066 1118 1066 1073 c 3
 1066 1017 1057 961 1050 934 c 2
 944 421 l 2
 892 174 720 -25 453 -25 c 2
 432 -25 l 2
 330 -25 126 -19 72 171 c 1
 274 229 l 1
386 806 m 3
 386 667 470 658 531 658 c 2
 552 658 l 2
 708 658 796 743 829 903 c 2
 844 976 l 2
 851 1008 856 1056 856 1073 c 3
 856 1152 777 1212 711 1215 c 2
 690 1215 l 2
 614 1215 460 1196 406 939 c 2
 394 879 l 2
 389 856 386 831 386 806 c 3
EndSplineSet
Validated: 3073
EndChar

StartChar: less
Encoding: 60 60 28
Width: 1075
VWidth: 1708
GlyphClass: 2
Flags: W
HStem: -26 21G<769.437 796.219>
DStem2: 418 587 167 528 0.748333 -0.663323<0 566.703> 203 697 418 587 0.843216 0.537575<122.158 811.813>
LayerCount: 2
Fore
SplineSet
203 697 m 1
 1061 1244 l 1
 1000 957 l 1
 418 587 l 1
 842 211 l 1
 792 -26 l 1
 167 528 l 1
 203 697 l 1
EndSplineSet
Validated: 3073
EndChar

StartChar: equal
Encoding: 61 61 29
Width: 1075
VWidth: 1708
GlyphClass: 2
Flags: W
HStem: 295 210<100 922> 705 210<187 1009>
LayerCount: 2
Fore
SplineSet
922 505 m 1
 922 295 l 1
 100 295 l 1
 100 505 l 1
 922 505 l 1
1009 915 m 1
 1009 705 l 1
 187 705 l 1
 187 915 l 1
 1009 915 l 1
EndSplineSet
Validated: 3073
EndChar

StartChar: greater
Encoding: 62 62 30
Width: 1075
VWidth: 1708
GlyphClass: 2
Flags: W
DStem2: 107 242 46 -45 0.842771 0.538273<0 691.034> 316 1227 265 989 0.747211 -0.664587<120.064 687.513>
LayerCount: 2
Fore
SplineSet
316 1227 m 1
 940 672 l 1
 904 503 l 1
 46 -45 l 1
 107 242 l 1
 690 613 l 1
 265 989 l 1
 316 1227 l 1
EndSplineSet
Validated: 3073
EndChar

StartChar: question
Encoding: 63 63 31
Width: 1075
VWidth: 1708
GlyphClass: 2
Flags: W
HStem: -73 236<333.831 527.094> 1042 21G<329.905 439.5> 1215 210<503.558 860.166>
VStem: 306 249<-43.6871 134.037> 874 210<1046.77 1195.44>
DStem2: 605 775 743 617 0.754698 0.656073<-189.189 376.991>
LayerCount: 2
Fore
SplineSet
711 1425 m 2
 1020 1425 1084 1322 1084 1138 c 27
 1084 1100 1080 1075 1073 1042 c 2
 1065 1003 l 2
 1044 902 978 823 919 770 c 1
 743 617 l 2
 714 592 644 529 629 459 c 2
 604 339 l 1
 389 339 l 1
 423 501 l 2
 448 621 532 711 605 775 c 2
 779 928 l 2
 836 979 854 1019 859 1045 c 2
 867 1085 l 2
 869 1095 874 1128 874 1138 c 3
 874 1179 855 1215 711 1215 c 2
 690 1215 l 2
 509 1215 451 1151 428 1042 c 1
 222 1084 l 1
 268 1307 425 1425 690 1425 c 2
 711 1425 l 2
555 45 m 0
 555 -24 496 -73 430 -73 c 0
 366 -73 306 -23 306 45 c 0
 306 107 360 163 430 163 c 0
 495 163 555 115 555 45 c 0
EndSplineSet
Validated: 3073
EndChar

StartChar: at
Encoding: 64 64 32
Width: 1075
VWidth: 1708
GlyphClass: 2
Flags: W
HStem: -25 210<319.511 691.076> 330 210<640.212 770.339> 850 211<706.86 865> 1215 210<542.579 878.56>
VStem: 38 210<265.203 782.521> 429 210<541.362 774.718> 914 210<1061 1181.59>
DStem2: 681.47 -25 896.47 -25 0.207912 0.978148<364.694 370.979 595.312 894.037>
LayerCount: 2
Fore
SplineSet
798 850 m 2
 704 850 669 762 648 681 c 0
 640 650 639 616 639 599 c 3
 639 542 652 540 690 540 c 3
 746 540 809 590 825 661 c 2
 865 850 l 1
 798 850 l 2
700 1215 m 3
 359 1215 248 723 248 467 c 3
 248 277 310 185 443 185 c 3
 554 185 653 197 719 246 c 1
 845 78 l 1
 722 -13 565 -25 443 -25 c 3
 281 -25 38 62 38 467 c 3
 38 854 246 1425 700 1425 c 3
 1098 1425 1124 1209 1124 1081 c 3
 1124 1069 1123 1062 1123 1061 c 2
 963 288 l 1
 748 288 l 1
 758 338 l 1
 736 333 713 330 690 330 c 3
 578 330 429 384 429 599 c 3
 429 749 495 1061 798 1061 c 2
 798 1061 856 1061 914 1061 c 1
 914 1194 849 1215 700 1215 c 3
EndSplineSet
Validated: 3073
EndChar

StartChar: B
Encoding: 66 66 33
Width: 1075
VWidth: 1947
GlyphClass: 2
Flags: W
HStem: 0 210<255 659.734> 650 210<390 714.446> 1190 210<458 811.85>
VStem: 752 210<323.364 634.69> 815 209<962.222 1177.5>
DStem2: -3 0 210.363 0 0.207912 0.978148<259.052 708.357 922.916 1259.84> 639.905 0 854.832 0 0.207912 0.978148<244.918 570.334>
LayerCount: 2
Fore
SplineSet
648 1190 m 2xe8
 458 1190 l 1
 390 860 l 1
 535 860 l 2
 715 860 777 935 801 1047 c 2
 809 1085 l 2
 812 1101 815 1120 815 1127 c 3
 815 1174 781 1190 648 1190 c 2xe8
716 358 m 2
 746 506 l 2
 750 527 752 544 752 560 c 3xf0
 752 638 698 650 593 650 c 2
 346 650 l 1
 255 210 l 1
 459 210 l 2
 660 210 696 261 716 358 c 2
648 1400 m 2
 732 1400 1024 1370 1024 1121 c 3xe8
 1024 1096 1021 1070 1015 1041 c 2
 1007 1003 l 2
 996 951 968 848 881 767 c 1
 936 713 962 638 962 556 c 3
 962 526 958 495 952 464 c 2
 922 316 l 2
 872 79 713 0 459 0 c 2
 -3 0 l 1
 288 1400 l 1
 648 1400 l 2
EndSplineSet
Validated: 3073
EndChar

StartChar: C
Encoding: 67 67 34
Width: 1075
VWidth: 1947
GlyphClass: 2
Flags: W
HStem: -25 210<337.388 589.03> 1215 210<555.145 809.767>
VStem: 89 210<218.855 691.141> 840 210<1081 1190.81>
DStem2: -23.6398 -25 191.713 -25 0.207912 0.978148<462.451 1169.1>
LayerCount: 2
Fore
SplineSet
299 376 m 3
 299 208 377 185 414 185 c 2
 476 185 l 2
 561 185 627 240 689 362 c 1
 877 268 l 1
 832 180 716 -25 476 -25 c 2
 414 -25 l 2
 382 -25 89 -12 89 376 c 3
 89 464 102 565 126 679 c 2
 146 774 l 1
 207 1042 328 1425 675 1425 c 2
 726 1425 l 2
 750 1425 1040 1412 1050 1081 c 1
 840 1067 l 1
 832 1200 771 1215 726 1215 c 2
 675 1215 l 2
 546 1215 438 1106 352 730 c 1
 332 635 l 2
 310 531 299 444 299 376 c 3
EndSplineSet
Validated: 3073
EndChar

StartChar: D
Encoding: 68 68 35
Width: 1075
VWidth: 1947
GlyphClass: 2
Flags: W
HStem: 0 210<255 581.863> 1190 210<458 810.612>
VStem: 844 210<707.188 1161.16>
DStem2: -3 0 210.363 0 0.207912 0.978148<259.052 1259.84> 648.8 0 864.152 0 0.207912 0.978148<358.153 1026.34>
LayerCount: 2
Fore
SplineSet
844 1010 m 3
 844 1176 776 1190 695 1190 c 2
 458 1190 l 1
 255 210 l 1
 449 210 l 2
 586 210 710 292 791 669 c 2
 814 776 l 2
 838 891 844 963 844 1010 c 3
1054 1010 m 3
 1054 954 1049 868 1020 732 c 2
 997 625 l 2
 929 308 792 0 449 0 c 2
 -3 0 l 1
 288 1400 l 1
 695 1400 l 2
 768 1400 1054 1383 1054 1010 c 3
EndSplineSet
Validated: 3073
EndChar

StartChar: E
Encoding: 69 69 36
Width: 1075
VWidth: 1708
GlyphClass: 2
Flags: W
HStem: 0 211<255 857> 650 210<390 883> 1190 210<458 1105>
DStem2: -3 0 210.151 0 0.207912 0.978148<260.03 708.357 922.916 1259.84>
LayerCount: 2
Fore
SplineSet
346 650 m 1
 255 211 l 1
 901 211 l 1
 857 0 l 1
 -3 0 l 1
 288 1400 l 1
 1148 1400 l 1
 1105 1190 l 1
 458 1190 l 1
 390 860 l 1
 926 860 l 1
 883 650 l 1
 346 650 l 1
EndSplineSet
Validated: 3073
EndChar

StartChar: F
Encoding: 70 70 37
Width: 1075
VWidth: 1708
GlyphClass: 2
Flags: W
HStem: 0 21G<-4 215.154> 650 210<390 883> 1190 210<458 1105>
VStem: -4 215<0 215>
DStem2: -4 0 211 0 0.207912 0.978148<44.701 708.565 923.124 1260.05>
LayerCount: 2
Fore
SplineSet
-4 0 m 1
 288 1400 l 1
 1148 1400 l 1
 1105 1190 l 1
 458 1190 l 1
 390 860 l 1
 926 860 l 1
 883 650 l 1
 346 650 l 1
 211 0 l 1
 -4 0 l 1
EndSplineSet
Validated: 3073
EndChar

StartChar: G
Encoding: 71 71 38
Width: 1075
VWidth: 1947
GlyphClass: 2
Flags: W
HStem: -25 210<329.437 622.252> 512 210<604 749> 1215 210<552.455 812.673>
VStem: 90 208<212.138 695.344> 840 210<1080.04 1190.47>
DStem2: -25.0649 -25 189.862 -25 0.207912 0.978148<457.513 1171.45>
LayerCount: 2
Fore
SplineSet
840 1067 m 1
 833 1134 832 1215 724 1215 c 2
 674 1215 l 2
 542 1214 431 1097 347 714 c 2
 331 639 l 2
 308 523 298 436 298 371 c 3
 298 218 352 185 419 185 c 2
 469 185 l 2
 538 185 643 204 709 325 c 1
 749 512 l 1
 604 512 l 1
 604 722 l 1
 1007 722 l 1
 909 254 l 1
 789 14 595 -25 469 -25 c 2
 419 -25 l 2
 259 -25 164 60 121 176 c 0
 99 235 90 303 90 377 c 3
 90 470 104 573 125 681 c 2
 141 758 l 2
 200 1028 322 1424 674 1425 c 2
 724 1425 l 2
 1024 1425 1042 1148 1050 1081 c 1
 840 1067 l 1
EndSplineSet
Validated: 3073
EndChar

StartChar: H
Encoding: 72 72 39
Width: 1075
VWidth: 1947
GlyphClass: 2
Flags: W
HStem: 0 21G<-4 215.168 641 860.171> 595 210<379 766> 1380 20G<283.829 503 928.832 1148>
VStem: -4 215<0 215> 288 215<1185 1400> 641 215<0 215> 933 215<1185 1400>
DStem2: -4 0 211 0 0.207912 0.978148<44.701 652.48 867.039 1430.12> 641 0 856 0 0.207912 0.978148<44.701 607.987 822.338 1430.12>
LayerCount: 2
Fore
SplineSet
211 0 m 1
 -4 0 l 1
 288 1400 l 1
 503 1400 l 1
 379 805 l 1
 809 805 l 1
 933 1400 l 1
 1148 1400 l 1
 856 0 l 1
 641 0 l 1
 766 595 l 1
 335 595 l 1
 211 0 l 1
EndSplineSet
Validated: 3073
EndChar

StartChar: I
Encoding: 73 73 40
Width: 1075
VWidth: 1947
GlyphClass: 2
Flags: W
HStem: 0 210<41 363 578 852> 1190 210<288 566 780 1100>
DStem2: 318.363 0 533.363 0 0.207912 0.978148<259.393 1215.48>
LayerCount: 2
Fore
SplineSet
852 0 m 1
 -3 0 l 1
 41 210 l 1
 363 210 l 1
 566 1190 l 1
 245 1190 l 1
 288 1400 l 1
 1143 1400 l 1
 1100 1190 l 1
 780 1190 l 1
 578 210 l 1
 896 210 l 1
 852 0 l 1
EndSplineSet
Validated: 3073
EndChar

StartChar: J
Encoding: 74 74 41
Width: 1075
VWidth: 1947
GlyphClass: 2
Flags: W
HStem: -25 210<226.203 488.236> 1190 210<553 733 947 1114>
DStem2: 478.591 -25 693.518 -25 0.207912 0.978148<246.47 1241.34>
LayerCount: 2
Fore
SplineSet
1157 1400 m 1
 1114 1190 l 1
 947 1190 l 1
 766 316 l 2
 723 112 581 -25 349 -25 c 2
 328 -25 l 2
 56 -25 11 214 8 233 c 1
 218 247 l 1
 221 227 234 185 328 185 c 2
 349 185 l 2
 471 185 535 241 560 358 c 2
 733 1190 l 1
 510 1190 l 1
 553 1400 l 1
 1157 1400 l 1
EndSplineSet
Validated: 3073
EndChar

StartChar: K
Encoding: 75 75 42
Width: 1075
VWidth: 1947
GlyphClass: 2
Flags: W
HStem: 0 21G<-4 215.174 654.761 886> 1380 20G<283.829 503 883.601 1187>
VStem: -4 215<0 215> 288 215<1185 1400> 662 224<0 224> 902 285<1115 1400>
DStem2: -4 0 211 0 0.207912 0.978148<44.701 490.093 900.565 1430.12> 385 838 607 769 0.676278 0.736646<99.3051 763.631> 607 769 447 594 0.341056 -0.940043<109.939 741.651>
LayerCount: 2
Fore
SplineSet
211 0 m 1
 -4 0 l 1
 288 1400 l 1
 503 1400 l 1
 385 838 l 1
 902 1400 l 1
 1187 1400 l 1
 607 769 l 1
 886 0 l 1
 662 0 l 1
 447 594 l 1
 302 436 l 1
 211 0 l 1
EndSplineSet
Validated: 3073
EndChar

StartChar: L
Encoding: 76 76 43
Width: 1075
VWidth: 1947
GlyphClass: 2
Flags: W
HStem: 0 211<255 854> 1380 20G<283.843 503>
VStem: 288 215<1185 1400>
DStem2: -3 0 210.151 0 0.207912 0.978148<260.03 1429.91>
LayerCount: 2
Fore
SplineSet
854 0 m 1
 -3 0 l 1
 288 1400 l 1
 503 1400 l 1
 255 211 l 1
 898 211 l 1
 854 0 l 1
EndSplineSet
Validated: 3073
EndChar

StartChar: M
Encoding: 77 77 44
Width: 1075
VWidth: 1947
GlyphClass: 2
Flags: W
HStem: 0 21G<-100 124.861 736 949.514> 1380 20G<303.157 526.517 891.106 1123>
VStem: -100 219<0 219> 736 211<0 211>
DStem2: -100 0 119 0 0.280421 0.959877<61.4123 914.853> 736 -0 947 0 0.124733 0.99219<26.3186 800.272>
LayerCount: 2
Fore
SplineSet
-100 0 m 1
 309 1400 l 1
 525 1400 l 1
 575 741 l 1
 901 1400 l 1
 1123 1400 l 1
 947 0 l 1
 736 -0 l 1
 836 794 l 1
 564 242 l 1
 403 242 l 1
 359 819 l 1
 119 0 l 1
 -100 0 l 1
EndSplineSet
Validated: 3073
EndChar

StartChar: N
Encoding: 78 78 45
Width: 1075
VWidth: 1947
GlyphClass: 2
Flags: W
HStem: 0 21G<-4 215.146 673.747 860.171> 1380 20G<283.829 469.239 928.841 1148>
VStem: -4 215<0 215> 933 215<1185 1400>
DStem2: -4 0 211 0 0.207912 0.978148<44.701 965.87> 463 1400 398 902 0.297794 -0.95463<456.049 946.964> 639.572 0 856 0 0.207912 0.978148<507.081 1430.41>
LayerCount: 2
Fore
SplineSet
211 0 m 1
 -4 0 l 1
 288 1400 l 1
 463 1400 l 1
 745 496 l 1
 933 1400 l 1
 1148 1400 l 1
 856 0 l 1
 680 0 l 1
 398 902 l 1
 211 0 l 1
EndSplineSet
Validated: 3073
EndChar

StartChar: O
Encoding: 79 79 46
Width: 1075
VWidth: 1947
GlyphClass: 2
Flags: W
HStem: -25 210<331.371 580.377> 1215 210<563.004 810.833>
VStem: 93 210<213.777 710.562> 843 210<701.484 1184.45>
DStem2: -23.7699 -25 191.563 -25 0.207912 0.978148<466.402 1158.83> 643.698 -25 859.476 -25 0.207912 0.978148<365.986 1065.16>
LayerCount: 2
Fore
SplineSet
843 1024 m 3
 843 1208 763 1215 714 1215 c 2
 687 1215 l 2
 544 1209 435 1097 351 725 c 2
 331 631 l 2
 305 508 303 430 303 380 c 3
 303 189 371 185 428 185 c 2
 461 185 l 2
 593 185 705 294 791 668 c 2
 813 770 l 2
 840 894 843 973 843 1024 c 3
718 1425 m 2
 768 1425 1053 1421 1053 1024 c 3
 1053 965 1047 872 1019 728 c 2
 997 622 l 2
 938 338 805 -25 461 -25 c 2
 424 -25 l 2
 370 -25 93 -23 93 380 c 3
 93 438 98 528 125 671 c 2
 145 769 l 2
 205 1061 337 1412 683 1425 c 2
 718 1425 l 2
EndSplineSet
Validated: 3073
EndChar

StartChar: P
Encoding: 80 80 47
Width: 1075
VWidth: 1947
GlyphClass: 2
Flags: W
HStem: 0 21G<-4 215.138> 580 210<375 768.2> 1190 210<458 872.612>
VStem: -4 215<0 215> 875 209<923.946 1181.64>
DStem2: -4 0 211 0 0.207912 0.978148<44.701 636.976 851.535 1260.05> 636.095 0 851.448 0 0.207912 0.978148<846.695 1159.27>
LayerCount: 2
Fore
SplineSet
706 1190 m 2
 458 1190 l 1
 375 790 l 1
 580 790 l 2
 776 790 820 866 841 964 c 2
 867 1085 l 2
 872 1105 875 1122 875 1135 c 3
 875 1180 840 1190 706 1190 c 2
-4 0 m 1
 288 1400 l 1
 706 1400 l 2
 730 1400 783 1400 833 1393 c 0
 1010 1369 1084 1274 1084 1138 c 3
 1084 1108 1080 1075 1073 1041 c 2
 1047 920 l 2
 999 695 846 580 580 580 c 2
 331 580 l 1
 211 0 l 1
 -4 0 l 1
EndSplineSet
Validated: 3073
EndChar

StartChar: Q
Encoding: 81 81 48
Width: 1075
VWidth: 1947
GlyphClass: 2
Flags: W
HStem: -25 210<331.371 478.276> 1215 210<563.004 812.381>
VStem: 93 210<213.777 710.562> 843 210<701.484 1185.7>
DStem2: -57.1413 -182 158.192 -182 0.207912 0.978148<626.91 1322.7> 607 437 411 361 0.359209 -0.933257<0.522484 140.217 394.49 581.833> 610.646 -182 826.105 -182 0.207912 0.978148<526.194 1225.6>
LayerCount: 2
Fore
SplineSet
718 1425 m 2
 771 1425 1053 1425 1053 1024 c 3
 1053 965 1047 872 1019 728 c 2
 997 622 l 2
 958 434 884 214 743 84 c 1
 816 -106 l 1
 620 -182 l 1
 556 -15 l 1
 526 -22 495 -25 461 -25 c 2
 424 -25 l 2
 370 -25 93 -23 93 380 c 3
 93 438 98 528 125 671 c 2
 145 769 l 2
 205 1061 337 1425 683 1425 c 2
 718 1425 l 2
843 1024 m 3
 843 1211 763 1215 714 1215 c 2
 687 1215 l 2
 544 1209 435 1097 351 725 c 2
 331 631 l 2
 305 508 303 430 303 380 c 3
 303 189 371 185 428 185 c 2
 479 185 l 1
 411 361 l 1
 607 437 l 1
 657 306 l 1
 707 381 752 497 791 668 c 2
 813 770 l 2
 840 894 843 973 843 1024 c 3
EndSplineSet
Validated: 3073
EndChar

StartChar: R
Encoding: 82 82 49
Width: 1075
VWidth: 1947
GlyphClass: 2
Flags: W
HStem: 0 21G<-4 215.138 671.517 899> 580 210<375 490 708 767.256> 1190 210<458 872.612>
VStem: -4 215<0 215> 678 221<0 221> 875 209<923.966 1181.71>
DStem2: -4 0 211 0 0.207912 0.978148<44.701 636.976 851.535 1260.05> 708 590 490 580 0.307992 -0.951389<0 552.08> 635.883 0 851.235 0 0.207912 0.978148<847.219 1160.25>
LayerCount: 2
Fore
SplineSet
706 1190 m 2xf4
 458 1190 l 1
 375 790 l 1
 580 790 l 2
 775 790 821 867 841 965 c 2
 867 1085 l 2
 872 1106 875 1122 875 1136 c 3
 875 1181 840 1190 706 1190 c 2xf4
-4 0 m 1
 288 1400 l 1
 706 1400 l 2
 730 1400 783 1400 833 1393 c 0
 1010 1369 1084 1273 1084 1138 c 3xf4
 1084 1107 1080 1075 1073 1041 c 2
 1047 921 l 2
 1009 735 897 623 708 590 c 1
 899 0 l 1
 678 0 l 1xf8
 490 580 l 1
 331 580 l 1
 211 0 l 1
 -4 0 l 1
EndSplineSet
Validated: 3073
EndChar

StartChar: S
Encoding: 83 83 50
Width: 1075
VWidth: 2334
GlyphClass: 2
Flags: W
HStem: -25 210<281.744 625.661> 1215 210<538.055 865.249>
VStem: 216 210<916.499 1111.09> 750 210<293.359 558.57>
DStem2: 755 778 387 724 0.899581 -0.436753<-385.687 105.195>
LayerCount: 2
Fore
SplineSet
229 312 m 1
 240 222 350 185 432 185 c 2
 453 185 l 2
 580 185 718 255 739 358 c 2
 745 388 l 2
 748 402 750 418 750 434 c 3
 750 492 728 559 663 590 c 2
 387 724 l 2
 262 785 216 886 216 987 c 3
 216 1009 219 1032 223 1054 c 2
 229 1084 l 2
 269 1279 457 1425 697 1425 c 2
 705 1425 l 2
 780 1425 840 1418 917 1384 c 0
 1056 1322 1087 1212 1095 1160 c 1
 887 1130 l 1
 875 1211 731 1215 705 1215 c 2
 697 1215 l 2
 559 1215 455 1139 435 1042 c 2
 429 1012 l 2
 427 1003 426 994 426 986 c 3
 426 938 462 920 479 912 c 2
 755 778 l 2
 899 708 960 567 960 434 c 3
 960 404 957 374 951 346 c 2
 945 316 l 2
 898 91 655 -25 453 -25 c 2
 432 -25 l 2
 301 -25 171 28 89 124 c 0
 36 186 21 261 19 304 c 1
 229 312 l 1
EndSplineSet
Validated: 3073
EndChar

StartChar: T
Encoding: 84 84 51
Width: 1075
VWidth: 1947
GlyphClass: 2
Flags: W
HStem: 0 21G<319 538.134> 1190 210<266 566 780 1126>
VStem: 319 215<0 215>
DStem2: 319 0 534 0 0.207912 0.978148<44.701 1215.35>
LayerCount: 2
Fore
SplineSet
266 1400 m 1
 1170 1400 l 1
 1126 1190 l 1
 780 1190 l 1
 534 0 l 1
 319 0 l 1
 566 1190 l 1
 222 1190 l 1
 266 1400 l 1
EndSplineSet
Validated: 3073
EndChar

StartChar: U
Encoding: 85 85 52
Width: 1075
VWidth: 1947
GlyphClass: 2
Flags: W
HStem: -25 210<278.884 641.704> 1380 20G<283.835 503 928.835 1148>
VStem: 60 209<198.562 382.411> 288 215<1185 1400> 933 215<1185 1400>
DStem2: -10.4092 -25 204.518 -25 0.207912 0.978148<336.623 1455.9> 634.591 -25 849.518 -25 0.207912 0.978148<254.583 1455.9>
LayerCount: 2
Fore
SplineSet
432 -25 m 2
 186 -25 60 84 60 262 c 3
 60 292 64 324 71 358 c 2
 288 1400 l 1
 503 1400 l 1
 277 316 l 2
 273 295 269 275 269 259 c 3
 269 209 301 185 432 185 c 2
 453 185 l 2
 650 185 696 260 716 358 c 2
 933 1400 l 1
 1148 1400 l 1
 922 316 l 2
 875 91 719 -25 453 -25 c 2
 432 -25 l 2
EndSplineSet
Validated: 3073
EndChar

StartChar: V
Encoding: 86 86 53
Width: 1075
VWidth: 1708
GlyphClass: 2
Flags: W
HStem: -25 21G<334.961 527.375> 1380 20G<262 473.038 944.616 1186>
VStem: 262 210<1190 1400> 954 232<1168 1400>
DStem2: 472 1400 262 1400 0.0518599 -0.998654<0 926.245> 520 475 518 -25 0.42445 0.905451<0 1021.75>
LayerCount: 2
Fore
SplineSet
336 -25 m 1
 262 1400 l 1
 472 1400 l 1
 520 475 l 1
 954 1400 l 1
 1186 1400 l 1
 518 -25 l 1
 336 -25 l 1
EndSplineSet
Validated: 3073
EndChar

StartChar: W
Encoding: 87 87 54
Width: 1075
VWidth: 1947
GlyphClass: 2
Flags: W
HStem: 0 21G<21 253.863 617.483 840.843> 1380 20G<194.486 408 1019.16 1244>
VStem: 197 211<1189 1400> 1025 219<1181 1400>
DStem2: 21 0 309 605 0.124733 0.99219<636.198 1411.02> 786 582 835 0 0.280421 0.959877<0 852.2>
LayerCount: 2
Fore
SplineSet
21 0 m 1
 197 1400 l 1
 408 1400 l 1
 309 605 l 1
 582 1158 l 1
 742 1158 l 1
 786 582 l 1
 1025 1400 l 1
 1244 1400 l 1
 835 0 l 1
 619 0 l 1
 569 659 l 1
 244 0 l 1
 21 0 l 1
EndSplineSet
Validated: 3073
EndChar

StartChar: X
Encoding: 88 88 55
Width: 1075
VWidth: 1947
GlyphClass: 2
Flags: W
HStem: 0 21G<-32 235.644 642.711 866> 1380 20G<278 501.277 908.386 1176>
VStem: -32 254<0 254> 278 218<1182 1400> 648 218<0 218> 922 254<1146 1400>
DStem2: -32 0 222 0 0.563117 0.826377<143.032 687.778 1148.57 1694.14> 496 1400 278 1400 0.255513 -0.966806<0 466.435 926.897 1392.37>
LayerCount: 2
Fore
SplineSet
-32 0 m 1
 458 719 l 1
 278 1400 l 1
 496 1400 l 1
 615 949 l 1
 922 1400 l 1
 1176 1400 l 1
 686 680 l 1
 866 0 l 1
 648 0 l 1
 529 450 l 1
 222 0 l 1
 -32 0 l 1
EndSplineSet
Validated: 3073
EndChar

StartChar: Y
Encoding: 89 89 56
Width: 1075
VWidth: 1947
GlyphClass: 2
Flags: W
HStem: -25 21G<311 530.248> 1380 20G<274 489.469 923.197 1178>
VStem: 274 212<1188 1400> 311 215<-25 190> 935 243<1157 1400>
DStem2: 486 1400 274 1400 0.169273 -0.985569<0 596.781> 311 -25 526 -25 0.207912 0.978148<44.701 552.11> 588 812 632 474 0.507914 0.861408<0 682.754>
LayerCount: 2
Fore
SplineSet
311 -25 m 1xd8
 426 515 l 1
 274 1400 l 1
 486 1400 l 1xe8
 588 812 l 1
 935 1400 l 1
 1178 1400 l 1
 632 474 l 1
 526 -25 l 1
 311 -25 l 1xd8
EndSplineSet
Validated: 3073
EndChar

StartChar: Z
Encoding: 90 90 57
Width: 1075
VWidth: 1947
GlyphClass: 2
Flags: W
HStem: 0 211<336 855> 1190 210<289 808>
DStem2: 29 151 336 211 0.600369 0.799723<232.297 1298.6>
LayerCount: 2
Fore
SplineSet
245 1190 m 1
 289 1400 l 1
 1147 1400 l 1
 1116 1250 l 1
 336 211 l 1
 899 211 l 1
 855 0 l 1
 -3 0 l 1
 29 151 l 1
 808 1190 l 1
 245 1190 l 1
EndSplineSet
Validated: 3073
EndChar

StartChar: bracketleft
Encoding: 91 91 58
Width: 1075
VWidth: 1947
GlyphClass: 2
Flags: W
HStem: -185 210<410 711> 1375 210<692 1036>
DStem2: 152 -185 365.363 -185 0.207912 0.978148<259.052 1638.18>
LayerCount: 2
Fore
SplineSet
692 1375 m 1
 410 25 l 1
 755 25 l 1
 711 -185 l 1
 152 -185 l 1
 522 1585 l 1
 1080 1585 l 1
 1036 1375 l 1
 692 1375 l 1
EndSplineSet
Validated: 3073
EndChar

StartChar: backslash
Encoding: 92 92 59
Width: 1075
VWidth: 1708
GlyphClass: 2
Flags: W
VStem: 299 547
DStem2: 503 1449 299 1400 0.230349 -0.973108<0.691048 1489.04>
LayerCount: 2
Fore
SplineSet
299 1400 m 1
 503 1449 l 1
 846 0 l 1
 642 -49 l 1
 299 1400 l 1
EndSplineSet
Validated: 3073
EndChar

StartChar: bracketright
Encoding: 93 93 60
Width: 1075
VWidth: 1947
GlyphClass: 2
Flags: W
HStem: -185 210<109 453> 1375 210<434 734>
DStem2: 408.363 -185 623 -185 0.207912 0.978148<214.692 1593.61>
LayerCount: 2
Fore
SplineSet
390 1375 m 1
 434 1585 l 1
 992 1585 l 1
 623 -185 l 1
 65 -185 l 1
 109 25 l 1
 453 25 l 1
 734 1375 l 1
 390 1375 l 1
EndSplineSet
Validated: 3073
EndChar

StartChar: asciicircum
Encoding: 94 94 61
Width: 1075
VWidth: 1947
GlyphClass: 2
Flags: W
HStem: 886 539
DStem2: 273 1028 427 886 0.676815 0.736153<0 383.999> 796 1425 687 1169 0.438675 -0.898646<182.238 469.596>
LayerCount: 2
Fore
SplineSet
796 1425 m 1
 1002 1003 l 1
 814 911 l 1
 687 1169 l 1
 427 886 l 1
 273 1028 l 1
 638 1425 l 1
 796 1425 l 1
EndSplineSet
Validated: 3073
EndChar

StartChar: underscore
Encoding: 95 95 62
Width: 1075
VWidth: 1947
GlyphClass: 2
Flags: W
HStem: -197 210<35 777>
LayerCount: 2
Fore
SplineSet
777 13 m 1
 777 -197 l 1
 35 -197 l 1
 35 13 l 1
 777 13 l 1
EndSplineSet
Validated: 3073
EndChar

StartChar: grave
Encoding: 96 96 63
Width: 1075
VWidth: 1708
GlyphClass: 2
Flags: W
HStem: 1013 412
VStem: 547 333
LayerCount: 2
Fore
SplineSet
873 1127 m 2
 878 1118 880 1107 880 1096 c 3
 880 1067 865 1038 844 1024 c 0
 834 1017 820 1013 805 1013 c 3
 781 1013 754 1022 738 1039 c 2
 569 1250 l 2
 554 1268 547 1292 547 1317 c 3
 547 1354 562 1391 592 1410 c 0
 609 1421 628 1425 646 1425 c 3
 690 1425 733 1398 749 1366 c 2
 873 1127 l 2
EndSplineSet
EndChar

StartChar: a
Encoding: 97 97 64
Width: 1075
VWidth: 1947
GlyphClass: 2
Flags: W
HStem: -25 210<322.64 613.589> 1 208<913.073 994.033> 839 210<456.174 762.762> 1004 20G<850.154 1069>
VStem: 78 210<216.164 583.691>
DStem2: -10.5392 -25 204.388 -25 0.207912 0.978148<411.301 859.013> 634.499 -25 849.731 -25 0.207912 0.978148<332.268 756.413 1045.24 1071.71>
LayerCount: 2
Fore
SplineSet
782 718 m 3xa8
 782 828 724 835 632 839 c 2
 611 839 l 2
 449 839 367 746 331 576 c 2
 296 406 l 2
 290 378 288 353 288 331 c 3
 288 192 393 185 432 185 c 2
 453 185 l 2
 609 185 698 270 731 429 c 2
 768 609 l 2
 780 662 782 696 782 718 c 3xa8
632 1049 m 2
 702 1049 767 1045 849 998 c 1
 854 1024 l 1
 1069 1024 l 1
 922 315 l 2
 916 289 912 270 912 255 c 3
 912 219 939 213 1035 209 c 1
 991 1 l 1x58
 884 7 813 29 763 79 c 1
 681 10 576 -25 453 -25 c 2
 432 -25 l 2
 378 -25 193 -22 110 167 c 0
 88 218 78 274 78 331 c 3
 78 369 82 408 90 448 c 2
 125 618 l 2
 183 895 357 1049 611 1049 c 2
 632 1049 l 2
EndSplineSet
Validated: 3073
EndChar

StartChar: b
Encoding: 98 98 65
Width: 1075
VWidth: 2334
GlyphClass: 2
Flags: W
HStem: -25 210<322.74 607.671> 0 21G<-4 215> 839 210<453.242 760.128> 1380 20G<283.829 503>
VStem: 288 215<1185 1400> 782 210<458.875 817.457>
DStem2: -9.31391 -25 205.686 -25 0.207912 0.978148<70.2595 105.95 411.047 863.599 1108.13 1455.68> 634.461 -25 849.388 -25 0.207912 0.978148<290.355 755.604>
LayerCount: 2
Fore
SplineSet
782 718 m 3xbc
 782 828 717 839 632 839 c 2
 611 839 l 2
 454 839 367 752 334 590 c 2
 296 406 l 2
 290 378 288 353 288 331 c 3
 288 198 394 185 432 185 c 2
 453 185 l 2
 616 185 699 277 735 448 c 2
 770 618 l 2
 774 638 782 678 782 718 c 3xbc
432 -25 m 2
 397 -23 297 -12 218 35 c 1
 211 0 l 1
 -4 0 l 1x7c
 288 1400 l 1
 503 1400 l 1
 423 1016 l 1
 479 1038 542 1049 611 1049 c 2
 632 1049 l 2
 699 1049 992 1049 992 718 c 3
 992 672 986 626 976 576 c 2
 941 406 l 2
 883 126 706 -25 453 -25 c 2
 432 -25 l 2
EndSplineSet
Validated: 3073
EndChar

StartChar: c
Encoding: 99 99 66
Width: 1075
VWidth: 2334
GlyphClass: 2
Flags: W
HStem: -25 210<324.048 641.684> 838 210<456.651 784.088>
VStem: 78 210<217.422 583.69>
DStem2: -10.5392 -25 204.388 -25 0.207912 0.978148<415.259 858.592>
LayerCount: 2
Fore
SplineSet
794 782 m 1
 791 796 797 838 632 838 c 2
 612 838 l 2
 449 838 367 746 331 576 c 2
 296 406 l 2
 291 382 288 358 288 335 c 3
 288 254 324 185 432 185 c 2
 453 185 l 2
 583 185 649 213 686 274 c 1
 866 166 l 1
 781 23 636 -25 453 -25 c 2
 432 -25 l 2
 247 -25 159 76 123 141 c 0
 90 201 78 269 78 333 c 3
 78 374 83 414 90 448 c 2
 125 618 l 2
 183 896 357 1048 612 1048 c 2
 632 1048 l 2
 954 1048 983 891 1002 814 c 1
 794 782 l 1
EndSplineSet
Validated: 3073
EndChar

StartChar: d
Encoding: 100 100 67
Width: 1075
VWidth: 1947
GlyphClass: 2
Flags: W
HStem: -25 210<320.893 614.683> 839 210<456.174 759.302> 1380 20G<928.821 1148>
VStem: 78 209<216.069 578.398> 933 215<1185 1400>
DStem2: -10.5392 -25 204.388 -25 0.207912 0.978148<411.184 859.013> 636 -25 851 -25 0.207912 0.978148<284.586 752.942 1044.93 1455.61>
LayerCount: 2
Fore
SplineSet
632 839 m 2
 611 839 l 2
 449 839 367 746 331 576 c 2
 296 406 l 2
 290 380 287 355 287 331 c 3
 287 248 326 185 432 185 c 2
 453 185 l 2
 608 185 697 268 730 425 c 2
 770 618 l 2
 778 656 782 688 782 715 c 3
 782 801 739 835 632 839 c 2
632 1049 m 2
 675 1046 769 1047 849 998 c 1
 933 1400 l 1
 1148 1400 l 1
 851 -25 l 1
 636 -25 l 1
 643 8 l 1
 586 -14 522 -25 453 -25 c 2
 432 -25 l 2
 384 -25 213 -23 123 141 c 0
 92 198 78 262 78 331 c 3
 78 369 82 408 90 448 c 2
 125 618 l 2
 183 895 357 1049 611 1049 c 2
 632 1049 l 2
EndSplineSet
Validated: 3073
EndChar

StartChar: e
Encoding: 101 101 68
Width: 1075
VWidth: 1947
GlyphClass: 2
Flags: W
HStem: -25 210<278.884 643.653> 456 210<350 780> 839 210<425.421 788.691>
VStem: 60 209<198.264 452.391> 796 210<666.656 826.346>
DStem2: -10.4092 -25 204.518 -25 0.207912 0.978148<336.446 536.274 750.833 886.888>
LayerCount: 2
Fore
SplineSet
632 839 m 2
 611 839 l 2
 431 839 373 775 350 666 c 1
 780 666 l 1
 789 709 l 2
 793 730 796 748 796 763 c 3
 796 822 756 839 632 839 c 2
632 1049 m 2
 886 1049 1006 939 1006 764 c 3
 1006 733 1003 700 995 665 c 2
 950 456 l 1
 306 456 l 1
 277 316 l 2
 273 295 269 271 269 259 c 3
 269 209 301 185 432 185 c 2
 453 185 l 2
 587 185 654 214 691 283 c 1
 877 185 l 1
 796 30 647 -25 453 -25 c 2
 432 -25 l 2
 186 -25 60 84 60 262 c 3
 60 292 64 324 71 358 c 2
 144 708 l 2
 190 931 345 1049 611 1049 c 2
 632 1049 l 2
EndSplineSet
Validated: 3073
EndChar

StartChar: f
Encoding: 102 102 69
Width: 1075
VWidth: 1947
GlyphClass: 2
Flags: W
HStem: -417 210<30.9661 263.27> 690 210<267 461 720 951> 1218 210<801.041 1007.24>
DStem2: 227.107 -417 442.035 -417 0.207912 0.978148<230.408 1131.44 1390.7 1687.39>
LayerCount: 2
Fore
SplineSet
951 900 m 1
 951 690 l 1
 676 690 l 1
 499 -149 l 2
 461 -327 305 -417 145 -417 c 3
 59 -417 -59 -376 -113 -267 c 1
 75 -175 l 1
 82 -190 114 -207 145 -207 c 3
 207 -207 277 -182 293 -107 c 2
 461 690 l 1
 267 690 l 1
 267 900 l 1
 506 900 l 1
 563 1174 l 2
 584 1271 646 1329 678 1353 c 0
 771 1424 858 1428 914 1428 c 3
 978 1428 1112 1423 1174 1298 c 1
 986 1204 l 1
 986 1204 943 1218 914 1218 c 3
 887 1218 839 1212 806 1186 c 0
 785 1170 774 1153 769 1130 c 2
 720 900 l 1
 951 900 l 1
EndSplineSet
Validated: 3073
EndChar

StartChar: g
Encoding: 103 103 70
Width: 1075
VWidth: 2334
GlyphClass: 2
Flags: W
HStem: -399 210<155 530.737> -25 210<322.64 617.486> 839 210<456.174 764.838> 1004 20G<850 1069>
VStem: 78 209<216.357 578.398>
DStem2: -90.0354 -399 124.892 -399 0.207912 0.978148<792.472 1241.37> 553.702 -399 768.866 -399 0.207912 0.978148<279.47 415.07 656.376 1145.68 1428.85 1454.34>
LayerCount: 2
Fore
SplineSet
632 839 m 2xe8
 611 839 l 2
 449 839 367 746 331 576 c 2
 296 406 l 2
 290 378 287 352 287 330 c 3
 287 226 348 185 432 185 c 2
 453 185 l 2
 598 185 692 256 722 397 c 2
 777 658 l 2
 782 684 785 705 785 724 c 3
 785 822 717 835 632 839 c 2xe8
632 1049 m 2
 679 1046 769 1047 849 999 c 1
 854 1024 l 1
 1069 1024 l 1xd8
 849 -22 l 2
 803 -242 626 -399 361 -399 c 2
 111 -399 l 1
 155 -189 l 1
 361 -189 l 2
 510 -189 608 -116 640 7 c 1
 584 -14 522 -25 453 -25 c 2
 432 -25 l 2
 378 -25 193 -22 110 167 c 0
 86 222 78 279 78 332 c 3
 78 374 83 413 90 448 c 2
 125 618 l 2
 183 895 357 1049 611 1049 c 2
 632 1049 l 2
EndSplineSet
Validated: 3073
EndChar

StartChar: h
Encoding: 104 104 71
Width: 1075
VWidth: 1947
GlyphClass: 2
Flags: W
HStem: 0 21G<-4 215.165 641 860.174> 839 210<493.037 784.004> 1380 20G<283.829 503>
VStem: -4 215<0 215> 288 215<1185 1400> 641 215<0 215> 797 209<642.937 823.523>
DStem2: -4 0 211 0 0.207912 0.978148<44.701 786.483 1061.97 1430.12> 641 0 856 0 0.207912 0.978148<44.701 780.958>
LayerCount: 2
Fore
SplineSet
632 839 m 2xfa
 611 839 l 2
 493 839 353 680 332 581 c 2
 211 0 l 1
 -4 0 l 1
 288 1400 l 1
 503 1400 l 1
 418 996 l 1
 477 1029 543 1049 611 1049 c 2
 632 1049 l 2
 897 1049 1006 931 1006 763 c 3xfa
 1006 732 1002 700 995 666 c 2
 856 0 l 1
 641 0 l 1xfc
 789 708 l 2
 794 730 797 750 797 766 c 3
 797 818 763 839 632 839 c 2xfa
EndSplineSet
Validated: 3073
EndChar

StartChar: k
Encoding: 107 107 74
Width: 1075
VWidth: 1947
GlyphClass: 2
Flags: W
HStem: 0 21G<-4 214.211 596 914> 1405 20G<288.832 508>
VStem: 293 215<1210 1425>
DStem2: -4 0 210 0 0.207912 0.978148<44.4931 334.076 718.762 1455.61> 348 660 515 531 0.719123 0.694883<7.16632 544.216> 717 195 575 41 0.710705 -0.70349<-272.746 65.3993> 782 1024 892 842 0.859951 0.510377<-350.386 133.789>
LayerCount: 2
Fore
SplineSet
210 0 m 1
 -4 0 l 1
 293 1425 l 1
 508 1425 l 1
 348 660 l 1
 370 684 394 707 418 730 c 2
 526 832 l 2
 592 894 706 981 782 1024 c 2
 899 1089 l 1
 1015 915 l 1
 892 842 l 2
 814 796 711 719 670 680 c 2
 515 531 l 1
 541 407 619 292 717 195 c 2
 914 0 l 1
 616 0 l 1
 575 41 l 2
 485 131 405 226 357 338 c 1
 311 272 273 208 242 152 c 1
 210 0 l 1
EndSplineSet
Validated: 3073
EndChar

StartChar: l
Encoding: 108 108 75
Width: 1075
VWidth: 1947
GlyphClass: 2
Flags: W
HStem: 0 210<146 363 578 746> 1190 210<396 566>
DStem2: 318.363 0 533.363 0 0.207912 0.978148<259.393 1215.48>
LayerCount: 2
Fore
SplineSet
352 1190 m 1
 396 1400 l 1
 824 1400 l 1
 578 210 l 1
 790 210 l 1
 746 0 l 1
 102 0 l 1
 146 210 l 1
 363 210 l 1
 566 1190 l 1
 352 1190 l 1
EndSplineSet
Validated: 3073
EndChar

StartChar: m
Encoding: 109 109 76
Width: 1075
VWidth: 1947
GlyphClass: 2
Flags: W
HStem: 0 21G<-30 189.206 318 537.19 667 886.18> 839 210<377.625 486.104 725.867 836.992>
VStem: -30 215<0 215> 318 215<0 215> 667 215<0 215> 837 217<612.609 894.5>
DStem2: -30 0 185 0 0.207912 0.978148<44.701 892.911> 318 0 533 0 0.207912 0.978148<44.701 838.128> 667 0 882 0 0.207912 0.978148<44.701 835.239>
LayerCount: 2
Fore
SplineSet
803 839 m 3xf4
 726 839 688 741 674 673 c 2
 533 0 l 1
 318 0 l 1
 485 798 l 2
 487 808 488 815 488 821 c 3
 488 837 479 839 454 839 c 3
 398 839 347 769 332 699 c 2
 185 0 l 1
 -30 0 l 1
 192 1055 l 1
 406 1055 l 1
 404 1044 l 1
 414 1048 440 1049 454 1049 c 10
 466 1049 l 2
 526 1049 599 1037 647 989 c 1
 724 1045 772 1049 823 1049 c 2
 837 1049 l 2
 1031 1049 1054 927 1054 862 c 3xf4
 1054 838 1046 785 1040 756 c 2
 882 0 l 1
 667 0 l 1xf8
 834 798 l 2
 836 806 837 813 837 818 c 3
 837 836 826 839 803 839 c 3xf4
EndSplineSet
Validated: 3073
EndChar

StartChar: n
Encoding: 110 110 77
Width: 1075
VWidth: 1947
GlyphClass: 2
Flags: W
HStem: 0 21G<-4 215.167 641 860.18> 839 210<496.913 784.404> 1004 20G<204.84 424>
VStem: -4 215<0 215> 641 215<0 215> 797 209<643.845 823.523>
DStem2: -4 0 211 0 0.207912 0.978148<44.701 782.173> 641 0 856 0 0.207912 0.978148<44.701 780.959>
LayerCount: 2
Fore
SplineSet
632 839 m 2xd4
 611 839 l 2xd4
 491 839 351 673 331 576 c 2
 211 0 l 1
 -4 0 l 1
 209 1024 l 1
 424 1024 l 1xb4
 418 996 l 1
 477 1029 543 1049 611 1049 c 2
 632 1049 l 2
 898 1049 1006 931 1006 763 c 3xd4
 1006 732 1002 699 995 665 c 2
 856 0 l 1
 641 0 l 1xd8
 789 709 l 2
 794 731 797 750 797 766 c 3
 797 817 764 839 632 839 c 2xd4
EndSplineSet
Validated: 3073
EndChar

StartChar: o
Encoding: 111 111 78
Width: 1075
VWidth: 1947
GlyphClass: 2
Flags: W
HStem: -25 210<323.7 607.671> 839 210<456.174 760.758>
VStem: 78 210<219.988 462.677> 781 210<453.562 818.32>
DStem2: -11.6739 -25 204.388 -25 0.207912 0.978148<411.537 859.249> 634.461 -25 849.388 -25 0.207912 0.978148<290.355 753.485>
LayerCount: 2
Fore
SplineSet
611 1049 m 2
 632 1049 l 2
 684 1049 707 1047 755 1035 c 0
 878 1005 991 915 991 716 c 3
 991 671 986 625 976 576 c 2
 941 406 l 2
 883 126 706 -25 453 -25 c 2
 432 -25 l 2
 378 -25 213 -23 123 141 c 0
 92 198 78 263 78 331 c 3
 78 369 82 408 90 448 c 2
 125 618 l 2
 183 895 357 1049 611 1049 c 2
781 716 m 3
 781 802 753 839 632 839 c 2
 611 839 l 2
 449 839 367 746 331 576 c 2
 296 406 l 2
 290 378 288 353 288 331 c 3
 288 198 393 185 432 185 c 2
 453 185 l 2
 616 185 699 277 735 448 c 2
 770 618 l 2
 774 637 781 677 781 716 c 3
EndSplineSet
Validated: 3073
EndChar

StartChar: p
Encoding: 112 112 79
Width: 1075
VWidth: 1947
GlyphClass: 2
Flags: W
HStem: -384 21G<-84 135.143> -25 210<321.49 607.671> 839 210<451.766 758.795> 1004 20G<205.824 424>
VStem: -84 215<-384 -169> 782 210<458.875 818.21>
DStem2: -84 -384 131 -384 0.207912 0.978148<44.701 473.611 777.73 1230.56> 558.153 -384 773.08 -384 0.207912 0.978148<657.376 1122.62>
LayerCount: 2
Fore
SplineSet
782 718 m 3xec
 782 828 720 839 632 839 c 2
 611 839 l 2
 449 839 367 746 331 576 c 2
 296 406 l 2
 290 378 288 353 288 331 c 3
 288 195 396 185 432 185 c 2
 453 185 l 2
 616 185 699 277 735 448 c 2
 770 618 l 2
 774 638 782 678 782 718 c 3xec
432 -25 m 2
 363 -25 293 -16 218 36 c 1
 131 -384 l 1
 -84 -384 l 1
 210 1024 l 1
 424 1024 l 1
 420 1004 l 1xdc
 474 1037 542 1049 611 1049 c 2
 632 1049 l 2
 696 1049 992 1049 992 718 c 3
 992 672 986 626 976 576 c 2
 941 406 l 2
 883 126 706 -25 453 -25 c 2
 432 -25 l 2
EndSplineSet
Validated: 3073
EndChar

StartChar: q
Encoding: 113 113 80
Width: 1075
VWidth: 1947
GlyphClass: 2
Flags: W
HStem: -384 21G<561 780.162> -25 210<320.001 614.185> 839 210<456.174 765.424> 1004 20G<850.154 1069>
VStem: 78 210<216.087 583.691> 561 215<-384 -169>
DStem2: -86.8471 -384 128.08 -384 0.207912 0.978148<778.322 1226.03> 561 -384 776 -384 0.207912 0.978148<44.701 400.483 649.142 1120.24 1411.68 1438.15>
LayerCount: 2
Fore
SplineSet
781 716 m 3xec
 781 802 762 834 632 839 c 2
 611 839 l 2
 449 839 367 746 331 576 c 2
 296 406 l 2
 290 378 288 353 288 331 c 3
 288 195 390 185 432 185 c 2
 453 185 l 2
 607 185 697 265 729 420 c 2
 773 631 l 2
 777 652 781 684 781 716 c 3xec
632 1049 m 2
 687 1049 766 1046 849 998 c 1
 854 1024 l 1
 1069 1024 l 1xdc
 776 -384 l 1
 561 -384 l 1
 643 8 l 1
 586 -14 522 -25 453 -25 c 2
 432 -25 l 2
 381 -25 213 -23 123 141 c 0
 92 198 78 263 78 331 c 3
 78 369 82 408 90 448 c 2
 125 618 l 2
 183 895 357 1049 611 1049 c 2
 632 1049 l 2
EndSplineSet
Validated: 3073
EndChar

StartChar: r
Encoding: 114 114 81
Width: 1075
VWidth: 1947
GlyphClass: 2
Flags: W
HStem: 0 21G<-4 215.196> 839 210<561.002 829.858> 1004 20G<205.82 424>
VStem: -4 215<0 215>
DStem2: -4 0 211 0 0.207912 0.978148<44.701 698.571 1011.97 1046.12>
LayerCount: 2
Fore
SplineSet
830 797 m 1xd0
 827 804 823 839 713 839 c 2
 692 839 l 2xd0
 547 839 345 637 305 448 c 2
 211 0 l 1
 -4 0 l 1
 210 1024 l 1
 424 1024 l 1xb0
 408 947 l 1
 495 1010 594 1049 692 1049 c 2
 713 1049 l 2
 966 1049 1010 906 1028 867 c 1
 830 797 l 1xd0
EndSplineSet
Validated: 3073
EndChar

StartChar: s
Encoding: 115 115 82
Width: 1075
VWidth: 1947
GlyphClass: 2
Flags: W
HStem: -25 210<271.692 642.828> 839 210<398.495 755.188>
VStem: 153 210<699.623 801.85> 708 212<242.457 368.883>
DStem2: 701 584 345 496 0.933002 -0.359872<-369.672 99.4153>
LayerCount: 2
Fore
SplineSet
787 748 m 1
 756 827 671 839 632 839 c 2
 611 839 l 2
 396 839 363 771 363 743 c 3
 363 724 385 706 421 692 c 2
 701 584 l 2
 856 524 920 417 920 306 c 3
 920 135 730 -25 453 -25 c 2
 398 -25 l 2
 303 -25 191 1 102 108 c 0
 61 157 33 219 31 288 c 1
 241 296 l 1
 242 272 259 185 398 185 c 2
 453 185 l 2
 625 185 708 260 708 317 c 3
 708 338 699 359 625 388 c 2
 345 496 l 2
 176 561 153 654 153 743 c 3
 153 802 171 908 303 983 c 0
 407 1042 527 1047 611 1049 c 2
 632 1049 l 2
 747 1049 867 1001 939 905 c 0
 971 862 981 828 989 808 c 1
 787 748 l 1
EndSplineSet
Validated: 3073
EndChar

StartChar: t
Encoding: 116 116 83
Width: 1075
VWidth: 1947
GlyphClass: 2
Flags: W
HStem: -25 210<465.174 668.066> 798 210<208 369 627 915> 1405 20G<495.827 715>
VStem: 252 210<193.024 295.533> 500 215<1210 1425>
DStem2: 194.066 -25 409.223 -25 0.207912 0.978148<295.625 841.386 1100.44 1481.92>
LayerCount: 2
Fore
SplineSet
554 -25 m 2
 533 -25 l 2
 385 -25 252 73 252 220 c 3
 252 229 255 258 257 268 c 2
 369 798 l 1
 165 798 l 1
 208 1008 l 1
 413 1008 l 1
 500 1425 l 1
 715 1425 l 1
 627 1008 l 1
 959 1008 l 1
 915 798 l 1
 583 798 l 1
 463 228 l 1
 463 228 462 226 462 220 c 3
 462 194 516 185 533 185 c 2
 554 185 l 2
 607 185 660 215 682 245 c 1
 850 119 l 1
 778 23 655 -25 554 -25 c 2
EndSplineSet
Validated: 3073
EndChar

StartChar: u
Encoding: 117 117 84
Width: 1075
VWidth: 1947
GlyphClass: 2
Flags: W
HStem: -25 210<277.126 549.937> 0 21G<642 859.199> 1004 20G<205.826 425 850.836 1070>
VStem: 59 209<192.923 380.649> 210 215<809 1024> 855 215<809 1024>
DStem2: -10.4092 -25 204.518 -25 0.207912 0.978148<326.68 1071.9> 636.686 -25 849.686 -25 0.207912 0.978148<69.8437 71.4464 360.091 1071.47>
LayerCount: 2
Fore
SplineSet
409 185 m 2xb4
 430 185 l 2xb4
 549 185 717 363 738 462 c 2
 855 1024 l 1
 1070 1024 l 1
 855 0 l 1
 642 0 l 1x74
 651 45 l 1
 582 2 506 -25 430 -25 c 2
 409 -25 l 2
 165 -25 59 74 59 247 c 3xb4
 59 281 63 318 71 358 c 2
 210 1024 l 1
 425 1024 l 1xac
 277 316 l 2
 271 288 268 266 268 249 c 3
 268 195 302 185 409 185 c 2xb4
EndSplineSet
Validated: 3073
EndChar

StartChar: v
Encoding: 118 118 85
Width: 1075
VWidth: 1947
GlyphClass: 2
Flags: W
HStem: -25 21G<358.269 518.574> 1004 20G<181.231 396 829.556 1101>
VStem: 167 210<537.572 1022.75> 175 208<840.921 1024>
DStem2: 421 539 219 481 0.275474 -0.961309<-297.108 170.602> 468 375 745 468 0.431779 0.901979<0 654.023> 779 934 949 812 0.582688 0.812696<-448.982 111.017>
LayerCount: 2
Fore
SplineSet
383 929 m 2xd0
 379 902 377 871 377 839 c 3
 377 764 388 655 421 539 c 2
 468 375 l 1
 555 558 l 2
 630 715 741 881 779 934 c 2
 844 1024 l 1
 1101 1024 l 1
 949 812 l 2
 914 763 814 612 745 468 c 2
 509 -25 l 1
 364 -25 l 1
 219 481 l 2
 180 619 167 750 167 839 c 3xe0
 167 880 170 920 175 959 c 2
 184 1024 l 1
 396 1024 l 1
 383 929 l 2xd0
EndSplineSet
Validated: 3073
EndChar

StartChar: w
Encoding: 119 119 86
Width: 1075
VWidth: 1947
GlyphClass: 2
Flags: W
HStem: 0 21G<42 223.235 664.62 833.536> 1004 20G<111.667 328 925.842 1160>
DStem2: -97.9771 0 117.25 0 0.207912 0.978148<629.09 1045.9> 903 948 1097 868 0.374463 0.927242<-493.587 82.0787>
LayerCount: 2
Fore
SplineSet
511 550 m 1
 475 503 443 449 409 383 c 2
 213 0 l 1
 42 0 l 1
 49 431 l 2
 52 601 72 757 98 922 c 2
 115 1024 l 1
 328 1024 l 1
 306 888 l 2
 288 773 273 668 265 560 c 1
 307 631 352 688 396 742 c 2
 541 919 l 1
 699 919 l 1
 710 674 l 2
 713 606 723 539 741 472 c 1
 790 647 836 788 903 948 c 2
 934 1024 l 1
 1160 1024 l 1
 1097 868 l 2
 1032 711 988 576 939 401 c 2
 828 0 l 1
 671 0 l 1
 545 395 l 2
 530 446 519 498 511 550 c 1
EndSplineSet
Validated: 3073
EndChar

StartChar: x
Encoding: 120 120 87
Width: 1075
VWidth: 1947
GlyphClass: 2
Flags: W
HStem: 0 21G<-59 260.238 625.479 863> 1004 20G<197 434.513 811.19 1084>
VStem: 197 229<795 1024> 634 229<0 229>
DStem2: 177 234 240 0 0.710109 0.704091<-120.021 269.396> 426 1024 197 1024 0.39251 -0.919748<0 372.78 714.762 1023.46> 572 681 666 462 0.596797 0.802392<0 426.807>
LayerCount: 2
Fore
SplineSet
-59 0 m 1
 177 234 l 2
 258 315 340 403 422 498 c 1
 197 1024 l 1
 426 1024 l 1
 572 681 l 1
 826 1024 l 1
 1084 1024 l 1
 919 794 l 2
 834 675 750 565 666 462 c 1
 863 0 l 1
 634 0 l 1
 513 284 l 1
 450 214 388 146 325 84 c 2
 240 0 l 1
 -59 0 l 1
EndSplineSet
Validated: 3073
EndChar

StartChar: y
Encoding: 121 121 88
Width: 1075
VWidth: 1947
GlyphClass: 2
Flags: W
HStem: -399 210<125.859 304.676> 1004 20G<210 428.5 869.533 1112>
VStem: 210 210<706.256 1024> 879 233<791 1024>
DStem2: 363 -65 553 -155 0.428416 0.903582<-139.451 231.487 478.173 1205.06>
LayerCount: 2
Fore
SplineSet
1112 1024 m 1
 553 -155 l 2
 493 -281 374 -399 207 -399 c 3
 82 -399 -38 -320 -68 -195 c 1
 136 -145 l 1
 140 -161 164 -189 207 -189 c 3
 269 -189 326 -142 363 -65 c 2
 451 120 l 1
 308 395 231 688 210 1024 c 1
 420 1024 l 1
 437 783 485 568 568 367 c 1
 879 1024 l 1
 1112 1024 l 1
EndSplineSet
Validated: 3073
EndChar

StartChar: z
Encoding: 122 122 89
Width: 1075
VWidth: 1947
GlyphClass: 2
Flags: W
HStem: 0 210<379 851> 814 210<271 687>
DStem2: 34 161 379 210 0.707107 0.707107<278.6 923.481>
LayerCount: 2
Fore
SplineSet
227 814 m 1
 271 1024 l 1
 1064 1024 l 1
 1030 861 l 1
 379 210 l 1
 895 210 l 1
 851 0 l 1
 0 0 l 1
 34 161 l 1
 687 814 l 1
 227 814 l 1
EndSplineSet
Validated: 3073
EndChar

StartChar: braceleft
Encoding: 123 123 90
Width: 1075
VWidth: 1947
GlyphClass: 2
Flags: W
HStem: -185 210<473.253 668> 1375 210<778.305 999>
VStem: 244 210<49.5032 231.924> 315 210<300.5 623.41>
DStem2: 166.8 -185 382.968 -185 0.207912 0.978148<372.201 736.3 1084.71 1576.11>
LayerCount: 2
Fore
SplineSet
454 134 m 3xe0
 454 93 475 25 568 25 c 2
 712 25 l 1
 668 -185 l 1
 568 -185 l 2
 405 -185 274 -77 249 78 c 0
 247 91 244 134 244 134 c 3xe0
 244 157 246 182 252 212 c 2
 309 484 l 2
 313 503 315 521 315 537 c 3
 315 623 270 627 240 627 c 2
 189 627 l 1
 234 837 l 1
 240 837 l 2
 351 837 408 951 424 1024 c 2
 469 1232 l 2
 511 1424 694 1585 900 1585 c 2
 1044 1585 l 1
 999 1375 l 1
 900 1375 l 2
 806 1375 698 1296 675 1188 c 2
 630 980 l 2
 609 883 556 784 477 716 c 1
 508 668 525 607 525 537 c 3xd0
 525 505 522 472 515 440 c 2
 458 168 l 2
 455 155 454 144 454 134 c 3xe0
EndSplineSet
Validated: 3073
EndChar

StartChar: bar
Encoding: 124 124 91
Width: 1075
VWidth: 1947
GlyphClass: 2
Flags: W
VStem: 299 215<-78 137> 630 215<1261 1476>
DStem2: 299 -78 514 -78 0.207912 0.978148<44.701 1588.86>
LayerCount: 2
Fore
SplineSet
299 -78 m 1
 630 1476 l 1
 845 1476 l 1
 514 -78 l 1
 299 -78 l 1
EndSplineSet
Validated: 3073
EndChar

StartChar: braceright
Encoding: 125 125 92
Width: 1075
VWidth: 1947
GlyphClass: 2
Flags: W
HStem: -185 210<61 283.898> 1375 210<393 580.474>
VStem: 531 210<775.392 1096.55> 603 210<1167.61 1352.04>
DStem2: 297.615 -185 512.968 -185 0.207912 0.978148<273.708 765.421 1117.04 1484.24>
LayerCount: 2
Fore
SplineSet
490 1585 m 2xd0
 490 1585 537 1582 551 1580 c 0
 712 1553 813 1423 813 1268 c 3xd0
 813 1244 811 1219 805 1188 c 2
 747 914 l 2
 743 895 741 878 741 862 c 3
 741 781 782 771 818 771 c 2
 871 771 l 1
 826 561 l 1
 818 561 l 2
 707 561 648 447 632 374 c 2
 588 168 l 2
 544 -35 353 -185 158 -185 c 2
 17 -185 l 1
 61 25 l 1
 158 25 l 2
 252 25 358 104 382 212 c 2
 427 418 l 2
 451 527 505 619 580 682 c 1
 549 731 531 792 531 862 c 3xe0
 531 894 535 926 542 958 c 2
 599 1232 l 2
 602 1246 603 1257 603 1268 c 3
 603 1365 505 1375 490 1375 c 2
 348 1375 l 1
 393 1585 l 1
 490 1585 l 2xd0
EndSplineSet
Validated: 3073
EndChar

StartChar: asciitilde
Encoding: 126 126 93
Width: 1075
VWidth: 1947
GlyphClass: 2
Flags: W
HStem: 696 210<703.225 814.851> 872 210<412.159 527.448> 1008 20G<848 901.078>
LayerCount: 2
Fore
SplineSet
180 847 m 1x40
 293 1063 385 1082 460 1082 c 2
 475 1082 l 2x40
 531 1082 615 1054 662 998 c 2
 722 926 l 2
 731 915 745 906 756 906 c 2
 770 906 l 2
 792 906 831 965 865 1028 c 1
 1049 926 l 1
 933 711 859 696 770 696 c 2
 755 696 l 2xa0
 700 696 616 722 571 776 c 2
 507 854 l 18
 498 865 487 872 465 872 c 2
 450 872 l 2
 432 872 408 829 368 753 c 1
 180 847 l 1x40
EndSplineSet
Validated: 3073
EndChar

StartChar: cent
Encoding: 162 162 96
Width: 1075
VWidth: 1947
GlyphClass: 2
Flags: W
VStem: 79 209<215.486 583.482>
DStem2: -28.8191 -111 186.108 -111 0.207912 0.978148<501.315 939.357> 251 16 426 -111 0.379184 0.925321<-51.1587 5.99824 275.853 887.095 1136.49 1276.33>
LayerCount: 2
Fore
SplineSet
331 213 m 1
 587 837 l 1
 441 828 365 737 331 576 c 2
 296 406 l 2
 291 384 288 358 288 333 c 3
 288 286 299 239 331 213 c 1
251 16 m 1
 116 85 79 217 79 334 c 3
 79 375 83 414 90 448 c 2
 125 618 l 2
 183 896 366 1049 612 1049 c 2
 673 1049 l 1
 735 1197 l 1
 961 1197 l 1
 879 997 l 1
 984 937 1010 822 1012 794 c 1
 804 762 l 1
 804 770 801 781 793 787 c 1
 549 192 l 1
 618 204 660 230 686 274 c 1
 866 166 l 1
 782 25 641 -24 461 -25 c 1
 426 -111 l 1
 199 -111 l 1
 251 16 l 1
EndSplineSet
Validated: 3073
EndChar

StartChar: sterling
Encoding: 163 163 97
Width: 1075
VWidth: 1947
GlyphClass: 2
Flags: W
HStem: -25 210<508.464 804.983> 594 210<145 243 529 852> 1215 210<520.312 835.031>
VStem: 206 210<822.741 1114.06> 307 215<457.32 594>
DStem2: -33 162 55 -28 0.907311 0.420461<0 282.621>
LayerCount: 2
Fore
SplineSet
855 1152 m 1xf0
 845 1169 816 1215 711 1215 c 2
 690 1215 l 2
 507 1215 440 1104 428 1042 c 2
 420 1004 l 2
 418 993 416 980 416 973 c 3xf0
 416 950 423 923 440 877 c 2
 468 804 l 1
 896 804 l 1
 852 594 l 1
 529 594 l 1
 529 574 529 526 522 494 c 2
 513 449 l 2
 499 382 465 316 422 256 c 1
 452 251 485 241 518 225 c 2
 575 197 l 2
 589 190 610 185 629 185 c 2
 661 185 l 2
 719 185 785 209 806 227 c 1
 942 67 l 1
 864 1 741 -25 661 -25 c 2
 629 -25 l 2
 598 -25 534 -16 475 13 c 2
 426 37 l 2
 415 42 391 51 367 51 c 2
 344 51 l 2
 267 51 224 50 137 10 c 2
 55 -28 l 1
 -33 162 l 1
 49 200 l 2
 133 239 282 375 307 491 c 2xe8
 316 538 l 2
 319 552 320 577 320 594 c 1
 101 594 l 1
 145 804 l 1
 243 804 l 1
 217 875 206 917 206 964 c 3
 206 988 209 1013 214 1044 c 2
 222 1084 l 2
 267 1309 468 1425 690 1425 c 10
 711 1425 l 2
 963 1425 1041 1248 1041 1248 c 2
 855 1152 l 1xf0
EndSplineSet
Validated: 3073
EndChar

StartChar: euro
Encoding: 8364 8364 98
Width: 1075
VWidth: 1947
GlyphClass: 2
Flags: W
HStem: -25 210<429.478 675.602> 460 210<100 183 434 699> 770 210<200 241 514 914> 1215 210<643.16 906.408>
VStem: 179 210<221.904 460>
LayerCount: 2
Fore
SplineSet
389 379 m 3
 389 195 484 185 523 185 c 2
 547 185 l 2
 641 185 716 234 782 362 c 1
 968 266 l 1
 919 172 800 -25 547 -25 c 2
 523 -25 l 2
 492 -25 179 -9 179 379 c 3
 179 405 180 432 183 460 c 1
 60 460 l 1
 100 670 l 1
 219 670 l 1
 241 770 l 1
 160 770 l 1
 200 980 l 1
 292 980 l 1
 363 1213 493 1425 776 1425 c 2
 807 1425 l 2
 861 1425 1075 1416 1129 1176 c 1
 925 1128 l 1
 906 1209 849 1215 807 1215 c 2
 776 1215 l 2
 676 1215 586 1174 514 980 c 1
 954 980 l 1
 914 770 l 1
 456 770 l 1
 434 670 l 1
 739 670 l 1
 699 460 l 1
 394 460 l 1
 391 430 389 404 389 379 c 3
EndSplineSet
Validated: 3073
EndChar

StartChar: yen
Encoding: 165 165 99
Width: 1075
VWidth: 1947
GlyphClass: 2
Flags: W
HStem: 50 210<54 329 588 863> 407 210<128 404 716 937> 1380 20G<271 486.537 921.231 1177>
VStem: 271 212<1188 1400> 933 244<1156 1400>
DStem2: 483 1400 271 1400 0.17235 -0.985036<0 597.125> 587 812 716 617 0.507357 0.861736<0 682.246>
LayerCount: 2
Fore
SplineSet
128 617 m 1
 408 617 l 1
 271 1400 l 1
 483 1400 l 1
 587 812 l 1
 933 1400 l 1
 1177 1400 l 1
 716 617 l 1
 981 617 l 1
 937 407 l 1
 618 407 l 1
 588 260 l 1
 907 260 l 1
 863 50 l 1
 544 50 l 1
 500 -160 l 1
 285 -160 l 1
 329 50 l 1
 10 50 l 1
 54 260 l 1
 373 260 l 1
 404 407 l 1
 84 407 l 1
 128 617 l 1
EndSplineSet
Validated: 3073
EndChar

StartChar: section
Encoding: 167 167 101
Width: 1075
VWidth: 1947
GlyphClass: 2
Flags: W
HStem: -181 210<333.275 572.253> 1367 210<546.991 781.438>
VStem: 137 210<600.396 800.962> 289 210<1133.37 1318.6> 620 210<75.9629 272.947> 786 210<589.147 785.36>
LayerCount: 2
Fore
SplineSet
563 865 m 2xe4
 542 865 l 2
 449 865 347 794 347 710 c 2
 347 684 l 2
 347 624 425 526 567 516 c 2
 588 516 l 2
 686 516 786 597 786 684 c 2
 786 710 l 2
 786 770 689 859 563 865 c 2xe4
660 1367 m 2
 597 1367 499 1316 499 1232 c 2
 499 1209 l 2
 499 1172 579 1070 666 1061 c 0
 882 1038 996 850 996 710 c 2
 996 684 l 2xd4
 996 546 904 417 775 351 c 1
 804 312 830 252 830 187 c 2
 830 164 l 2
 830 -91 592 -181 458 -181 c 2
 439 -181 l 2
 271 -181 130 -54 78 63 c 1
 270 149 l 1
 296 92 371 29 439 29 c 2
 458 29 l 2
 523 29 620 80 620 164 c 2
 620 187 l 2
 620 187 601 304 486 317 c 0
 267 342 137 501 137 684 c 2
 137 710 l 2xe8
 137 801 177 939 351 1028 c 1
 321 1069 289 1137 289 1209 c 2
 289 1232 l 2xd0
 289 1482 524 1577 660 1577 c 2
 679 1577 l 2
 817 1577 955 1480 1025 1358 c 1
 843 1254 l 1
 816 1302 745 1367 679 1367 c 2
 660 1367 l 2
EndSplineSet
Validated: 3073
EndChar

StartChar: copyright
Encoding: 169 169 103
Width: 1075
VWidth: 1947
GlyphClass: 2
Flags: W
HStem: 42 150<350.182 720.359> 289 150<423.366 676.851> 745 150<424.56 678.531> 992 150<352.239 725.504>
VStem: 5 150<396.078 787.075> 234 150<480.012 705.355> 921 150<399.043 791.792>
LayerCount: 2
Fore
SplineSet
538 289 m 0
 348 289 234 427 234 592 c 0
 234 762 353 895 538 895 c 0
 672 895 739 830 761 807 c 1
 651 704 l 1
 621 735 578 745 538 745 c 0
 429 745 384 673 384 592 c 0
 384 513 428 439 538 439 c 0
 578 439 622 450 652 482 c 1
 762 380 l 1
 743 360 672 289 538 289 c 0
538 992 m 0
 286 992 155 801 155 593 c 0
 155 389 281 192 538 192 c 0
 796 192 921 394 921 593 c 0
 921 798 798 992 538 992 c 0
1071 593 m 0
 1071 318 886 42 538 42 c 0
 195 42 5 309 5 593 c 0
 5 881 200 1142 538 1142 c 0
 876 1142 1071 887 1071 593 c 0
EndSplineSet
Validated: 3073
EndChar

StartChar: ordfeminine
Encoding: 170 170 104
Width: 1075
VWidth: 1947
GlyphClass: 2
Flags: W
HStem: 214 210<85 899> 488 210<422.189 682.394> 908 210<472.642 782> 1231 210<527.673 833.989>
VStem: 209 211<706.242 856.15> 835 210<1118.52 1225.48>
LayerCount: 2
Fore
SplineSet
423 782 m 2
 421 772 420 764 420 756 c 3
 420 714 453 698 540 698 c 2
 559 698 l 2
 674 698 763 814 768 839 c 2
 782 908 l 1
 629 908 l 2
 457 908 428 806 427 800 c 2
 423 782 l 2
346 1294 m 1
 383 1347 454 1441 695 1441 c 2
 712 1441 l 2
 813 1441 1045 1425 1045 1182 c 3
 1045 1155 1042 1127 1036 1099 c 2
 912 496 l 1
 697 496 l 1
 703 523 l 1
 661 506 613 488 559 488 c 2
 540 488 l 2
 305 488 209 655 209 770 c 3
 209 784 210 796 213 808 c 2
 221 844 l 2
 227 876 242 909 268 945 c 0
 350 1059 470 1118 629 1118 c 2
 825 1118 l 1
 830 1141 l 2
 834 1158 835 1172 835 1182 c 3
 835 1216 822 1231 712 1231 c 2
 695 1231 l 2
 561 1231 537 1200 518 1174 c 1
 346 1294 l 1
942 424 m 1
 899 214 l 1
 42 214 l 1
 85 424 l 1
 942 424 l 1
EndSplineSet
Validated: 3073
EndChar

StartChar: guillemotleft
Encoding: 171 171 105
Width: 1075
VWidth: 1947
GlyphClass: 2
Flags: W
DStem2: 149 561 343 463 0.660336 0.75097<54.5101 386.167> 569 561 763 463 0.660336 0.75097<54.5101 386.167>
LayerCount: 2
Fore
SplineSet
255 112 m 1
 117 413 l 1
 149 561 l 1
 404 851 l 1
 562 713 l 1
 343 463 l 1
 337 437 l 1
 445 200 l 1
 255 112 l 1
675 112 m 1
 537 413 l 1
 569 561 l 1
 824 851 l 1
 982 713 l 1
 763 463 l 1
 757 437 l 1
 865 200 l 1
 675 112 l 1
EndSplineSet
Validated: 3073
EndChar

StartChar: logicalnot
Encoding: 172 172 106
Width: 1075
VWidth: 1947
GlyphClass: 2
Flags: W
HStem: 495 210<165 703>
VStem: 650 215<246 461>
LayerCount: 2
Fore
SplineSet
650 246 m 1
 703 495 l 1
 120 495 l 1
 165 705 l 1
 963 705 l 1
 865 246 l 1
 650 246 l 1
EndSplineSet
Validated: 3073
EndChar

StartChar: softhyphen
Encoding: 173 173 107
Width: 1075
VWidth: 1947
GlyphClass: 2
Flags: W
HStem: 495 210<299 777>
VStem: 299 478<495 705>
LayerCount: 2
Fore
SplineSet
777 705 m 1
 777 495 l 1
 299 495 l 1
 299 705 l 1
 777 705 l 1
EndSplineSet
Validated: 3073
EndChar

StartChar: registered
Encoding: 174 174 108
Width: 1075
VWidth: 1947
GlyphClass: 2
Flags: W
HStem: 42 150<356.82 719.584> 527 150<466 520> 763 150<466 633.729> 992 150<352.215 727.052>
VStem: 5 150<401.633 788.667> 316 150<342 527 677 763> 635 150<680.892 760.74> 921 150<399.807 791.509>
LayerCount: 2
Fore
SplineSet
538 992 m 0
 285 992 155 802 155 595 c 0
 155 390 282 192 538 192 c 0
 795 192 921 396 921 595 c 0
 921 799 798 992 538 992 c 0
1071 595 m 0
 1071 316 883 42 538 42 c 0
 194 42 5 311 5 595 c 0
 5 884 201 1142 538 1142 c 0
 884 1142 1071 881 1071 595 c 0
635 735 m 2
 635 748 629 763 555 763 c 2
 466 763 l 1
 466 677 l 1
 555 677 l 2
 626 677 635 697 635 715 c 2
 635 735 l 2
555 913 m 2
 768 913 785 784 785 745 c 2
 785 705 l 2
 785 629 745 576 682 549 c 1
 786 382 l 1
 658 303 l 1
 520 527 l 1
 466 527 l 1
 466 342 l 1
 316 342 l 1
 316 913 l 1
 555 913 l 2
EndSplineSet
Validated: 3073
EndChar

StartChar: degree
Encoding: 176 176 110
Width: 1075
VWidth: 1947
GlyphClass: 2
Flags: W
HStem: 777 210<580.089 771.157> 1228 210<580.206 771.521>
VStem: 348 210<1009.48 1205.72> 798 210<1014.48 1201.75>
LayerCount: 2
Fore
SplineSet
798 1108 m 3
 798 1178 752 1228 678 1228 c 3
 607 1228 558 1184 558 1108 c 3
 558 1024 612 987 678 987 c 3
 755 987 798 1042 798 1108 c 3
1008 1108 m 27
 1008 926 860 777 678 777 c 27
 496 777 348 926 348 1108 c 27
 348 1290 496 1438 678 1438 c 27
 860 1438 1008 1290 1008 1108 c 27
EndSplineSet
Validated: 3073
EndChar

StartChar: plusminus
Encoding: 177 177 111
Width: 1075
VWidth: 1947
GlyphClass: 2
Flags: W
HStem: 35 210<45 867> 725 210<212 473 732 995>
DStem2: 325.702 35 541.055 35 0.207912 0.978148<415.07 705.547 964.807 1255.28>
LayerCount: 2
Fore
SplineSet
1038 935 m 1
 995 725 l 1
 687 725 l 1
 618 397 l 1
 412 441 l 1
 473 725 l 1
 169 725 l 1
 212 935 l 1
 518 935 l 1
 587 1263 l 1
 793 1219 l 1
 732 935 l 1
 1038 935 l 1
867 245 m 1
 867 35 l 1
 45 35 l 1
 45 245 l 1
 867 245 l 1
EndSplineSet
Validated: 3073
EndChar

StartChar: twosuperior
Encoding: 178 178 112
Width: 1075
VWidth: 2334
GlyphClass: 2
Flags: W
HStem: 545 210<632 768> 1228 210<654.18 748.833>
VStem: 750 213<1158.31 1285>
DStem2: 465 884 632 755 0.695073 0.718939<23.3342 407.111>
LayerCount: 2
Fore
SplineSet
725 1438 m 2
 735 1438 l 2
 735 1438 788 1435 801 1432 c 0
 898 1412 963 1338 963 1232 c 0
 963 1207 959 1182 955 1162 c 2
 949 1140 l 2
 933 1080 906 1037 850 979 c 2
 632 755 l 1
 812 755 l 1
 768 545 l 1
 311 545 l 1
 347 716 l 1
 373 765 411 828 465 884 c 2
 698 1125 l 2
 711 1138 741 1174 743 1182 c 2
 746 1194 l 2
 747 1197 750 1214 750 1216 c 3
 750 1227 743 1228 726 1228 c 2
 716 1228 l 2
 684 1228 678 1220 649 1175 c 1
 473 1289 l 1
 508 1344 574 1438 725 1438 c 2
EndSplineSet
Validated: 3073
EndChar

StartChar: threesuperior
Encoding: 179 179 113
Width: 1075
VWidth: 2334
GlyphClass: 2
Flags: W
HStem: 527 210<509.619 647.943> 917 210<538 686.99> 1223 210<606.858 725.341>
VStem: 687 211<768.249 915.743> 729 210<1132.17 1222.43>
LayerCount: 2
Fore
SplineSet
649 917 m 2xf0
 538 917 l 1
 538 1127 l 1
 620 1127 l 2
 669 1127 716 1132 721 1156 c 2
 724 1172 l 2
 727 1184 729 1201 729 1206 c 2
 729 1210 l 2
 729 1214 729 1223 694 1223 c 2
 682 1223 l 2
 651 1223 624 1205 604 1174 c 1
 428 1290 l 1
 488 1382 580 1433 682 1433 c 2
 694 1433 l 2
 830 1433 939 1344 939 1210 c 3xe8
 939 1201 936 1168 934 1158 c 2
 929 1136 l 1
 921 1095 897 1058 863 1024 c 1
 870 1014 898 959 898 889 c 3
 898 791 853 527 576 527 c 2
 564 527 l 1
 355 543 300 665 300 754 c 1
 509 754 l 1
 522 739 548 737 564 737 c 2
 576 737 l 2
 631 737 670 787 682 845 c 0
 686 862 687 875 687 885 c 3
 687 913 673 917 649 917 c 2xf0
EndSplineSet
Validated: 3073
EndChar

StartChar: micro
Encoding: 181 181 115
Width: 1075
VWidth: 2334
GlyphClass: 2
Flags: W
HStem: -37 222<311.329 581.98> 1004 20G<205.837 425 850.809 1070>
VStem: 210 215<809 1024> 855 215<809 1024>
DStem2: -77.332 -349 136.654 -349 0.207912 0.978148<42.8103 430.935 721.153 1402.74> 564.969 -349 782.335 -349 0.207912 0.978148<646.034 1403.3>
LayerCount: 2
Fore
SplineSet
282 311 m 3
 282 260 304 185 432 185 c 2
 453 185 l 2
 585 185 710 332 728 418 c 2
 855 1024 l 1
 1070 1024 l 1
 885 134 l 2
 877 96 867 5 867 -37 c 1
 658 -37 l 1
 658 29 l 1
 596 -5 526 -25 453 -25 c 2
 432 -25 l 2
 324 -25 253 7 217 29 c 1
 202 -46 l 2
 178 -159 150 -256 106 -349 c 1
 -133 -349 l 1
 -61 -237 -31 -134 -4 -4 c 2
 210 1024 l 1
 425 1024 l 1
 286 360 l 2
 283 342 282 330 282 311 c 3
EndSplineSet
Validated: 3073
EndChar

StartChar: paragraph
Encoding: 182 182 116
Width: 1075
VWidth: 2334
GlyphClass: 2
Flags: W
HStem: 0 21G<225 444.17 641 860.173> 1295 210<710 912>
VStem: 225 215<0 215> 641 215<0 215>
DStem2: 225 0 440 0 0.207912 0.978148<44.701 655.087> 641 0 856 0 0.207912 0.978148<44.701 1323.05>
LayerCount: 2
Fore
SplineSet
358 636 m 1
 225 675 169 792 169 926 c 0
 169 977 176 1027 187 1078 c 2
 194 1115 l 2
 255 1436 510 1505 604 1505 c 2
 1170 1505 l 1
 856 0 l 1
 641 0 l 1
 912 1295 l 1
 710 1295 l 1
 440 0 l 1
 225 0 l 1
 358 636 l 1
EndSplineSet
Validated: 3073
EndChar

StartChar: periodcentered
Encoding: 183 183 117
Width: 1075
VWidth: 1947
GlyphClass: 2
Flags: W
HStem: 617 260<492.547 686.7>
VStem: 460 259<649.643 844.694>
LayerCount: 2
Fore
SplineSet
719 747 m 0
 719 678 666 617 589 617 c 0
 515 617 460 677 460 747 c 0
 460 815 511 877 589 877 c 0
 665 877 719 817 719 747 c 0
EndSplineSet
Validated: 3073
EndChar

StartChar: onesuperior
Encoding: 185 185 119
Width: 1075
VWidth: 1708
GlyphClass: 2
Flags: W
VStem: 516 215<641 856>
DStem2: 516 641 731 641 0.207912 0.978148<44.701 519.977>
LayerCount: 2
Fore
SplineSet
627 1149 m 1
 525 1084 l 1
 469 1171 l 1
 749 1477 l 1
 752 1479 l 1
 913 1479 l 1
 731 641 l 1
 516 641 l 1
 627 1149 l 1
EndSplineSet
Validated: 3073
EndChar

StartChar: ordmasculine
Encoding: 186 186 120
Width: 1075
VWidth: 1947
GlyphClass: 2
Flags: W
HStem: 214 210<85 900> 493 210<451.762 684.762> 1235 210<574.55 805.229>
VStem: 226 210<718.917 1062.29> 820 210<874.89 1222.18>
LayerCount: 2
Fore
SplineSet
705 1445 m 3
 892 1445 1030 1350 1030 1093 c 3
 1030 834 904 493 551 493 c 3
 368 493 226 590 226 854 c 3
 226 1098 364 1445 705 1445 c 3
820 1093 m 3
 820 1215 790 1235 705 1235 c 3
 483 1235 436 945 436 854 c 3
 436 729 459 703 551 703 c 3
 780 703 820 983 820 1093 c 3
943 424 m 1
 900 214 l 1
 42 214 l 1
 85 424 l 1
 943 424 l 1
EndSplineSet
Validated: 3073
EndChar

StartChar: guillemotright
Encoding: 187 187 121
Width: 1075
VWidth: 1947
GlyphClass: 2
Flags: W
DStem2: 69 225 227 87 0.661622 0.749838<1.05859 331.605> 489 225 647 87 0.661622 0.749838<1.05859 331.605>
LayerCount: 2
Fore
SplineSet
708 474 m 1
 714 500 l 1
 605 738 l 1
 797 826 l 1
 934 524 l 1
 902 376 l 1
 647 87 l 1
 489 225 l 1
 708 474 l 1
288 474 m 1
 294 500 l 1
 185 738 l 1
 377 826 l 1
 514 524 l 1
 482 376 l 1
 227 87 l 1
 69 225 l 1
 288 474 l 1
EndSplineSet
Validated: 3073
EndChar

StartChar: OE
Encoding: 338 338 122
Width: 1075
VWidth: 1947
GlyphClass: 2
Flags: W
HStem: 0 210<173.578 423.33 647 844> 627 210<777 913> 1190 210<375.175 624.692 850 1091>
VStem: -42 212<214.459 461.469>
DStem2: -102.59 0 116.798 0 0.207912 0.978148<296.459 1252.26> 386.871 0 602.363 0 0.207912 0.978148<260.327 685.471 899.822 1174.27>
LayerCount: 2
Fore
SplineSet
245 210 m 2
 310 210 l 2
 363 210 439 245 450 297 c 2
 623 1126 l 2
 625 1134 626 1143 626 1150 c 3
 626 1173 613 1190 557 1190 c 2
 492 1190 l 2
 442 1190 361 1167 347 1102 c 2
 171 255 l 2
 170 252 170 248 170 245 c 3
 170 220 195 210 245 210 c 2
492 1400 m 2
 557 1400 l 2
 600 1400 640 1394 676 1381 c 1
 680 1400 l 1
 1135 1400 l 1
 1091 1190 l 1
 850 1190 l 1
 777 837 l 1
 957 837 l 1
 913 627 l 1
 734 627 l 1
 647 210 l 1
 887 210 l 1
 844 0 l 1
 389 0 l 1
 391 10 l 1
 365 4 338 0 310 0 c 2
 245 0 l 2
 182 0 -42 15 -42 227 c 3
 -42 248 -40 272 -35 297 c 2
 141 1146 l 2
 183 1349 378 1400 492 1400 c 2
EndSplineSet
Validated: 3073
EndChar

StartChar: oe
Encoding: 339 339 123
Width: 1075
VWidth: 1947
GlyphClass: 2
Flags: W
HStem: -25 210<170.276 347.269 586.68 764.839> 437 210<668 870> 839 210<296.054 481.99 716.637 898.934>
VStem: -48 216<188.529 450.289> 901 211<718.494 835.426>
DStem2: -104.129 -25 110.484 -25 0.207912 0.978148<310.286 918.703> 311.658 -25 527.634 -25 0.207912 0.978148<316.271 516.844 731.403 837.43>
LayerCount: 2
Fore
SplineSet
414 839 m 3
 375 839 289 825 274 752 c 2
 170 255 l 2
 169 250 168 242 168 234 c 3
 168 212 178 185 235 185 c 3
 288 185 364 221 375 273 c 2
 481 775 l 2
 483 783 483 789 483 795 c 3
 483 833 452 839 414 839 c 3
651 185 m 3
 690 185 769 200 791 273 c 1
 997 229 l 1
 991 211 980 136 897 64 c 0
 823 0 731 -25 651 -25 c 3
 574 -25 502 0 450 45 c 1
 390 3 314 -25 235 -25 c 3
 83 -25 -48 60 -48 211 c 3
 -48 230 -45 251 -41 272 c 2
 68 794 l 2
 72 813 96 902 168 960 c 0
 244 1021 334 1049 414 1049 c 3
 485 1049 560 1026 615 980 c 1
 681 1026 761 1049 830 1049 c 3
 996 1049 1112 953 1112 809 c 3
 1112 792 1110 774 1106 752 c 2
 1040 437 l 1
 624 437 l 1
 588 259 l 2
 586 252 585 245 585 240 c 3
 585 191 631 185 651 185 c 3
668 647 m 1
 870 647 l 1
 898 780 l 2
 900 789 901 797 901 804 c 3
 901 832 882 839 830 839 c 3
 781 839 704 821 686 733 c 2
 668 647 l 1
EndSplineSet
Validated: 3073
EndChar

StartChar: AE
Encoding: 198 198 132
Width: 1075
VWidth: 1947
GlyphClass: 2
Flags: W
HStem: 0 210<665 844> 627 210<451 537 795 913> 1190 210<868 1091>
VStem: -98 225<0 225>
DStem2: -98 0 127 0 0.360682 0.932689<81.1535 753.595 978.675 1351.26> 407 0 620.363 0 0.207912 0.978148<259.052 640.327 899.379 1207.11>
LayerCount: 2
Fore
SplineSet
581 837 m 1
 652 1182 l 1
 599 1167 565 1133 552 1098 c 2
 451 837 l 1
 581 837 l 1
-98 0 m 1
 356 1174 l 2
 409 1310 543 1394 697 1400 c 1
 1135 1400 l 1
 1091 1190 l 1
 868 1190 l 1
 795 837 l 1
 957 837 l 1
 913 627 l 1
 752 627 l 1
 665 210 l 1
 887 210 l 1
 844 0 l 1
 407 0 l 1
 537 627 l 1
 370 627 l 1
 127 0 l 1
 -98 0 l 1
EndSplineSet
Validated: 3073
EndChar

StartChar: Eth
Encoding: 208 208 142
Width: 1075
VWidth: 1947
GlyphClass: 2
Flags: W
HStem: 0 210<302 589.261> 651 210<122 179 437 574> 1190 210<505 810.001>
VStem: 842 210<699.501 1160.48>
DStem2: 44 0 257.363 0 0.207912 0.978148<259.052 664.842 923.894 1259.84>
LayerCount: 2
Fore
SplineSet
695 1400 m 2
 941 1400 1052 1286 1052 1024 c 3
 1052 929 1037 813 1009 678 c 1
 939 349 814 0 449 0 c 2
 44 0 l 1
 179 651 l 1
 78 651 l 1
 122 861 l 1
 222 861 l 1
 333 1400 l 1
 695 1400 l 2
695 1190 m 2
 505 1190 l 1
 437 861 l 1
 574 861 l 1
 574 651 l 1
 393 651 l 1
 302 210 l 1
 449 210 l 2
 591 210 712 293 803 722 c 0
 831 851 842 945 842 1013 c 3
 842 1188 765 1190 695 1190 c 2
EndSplineSet
Validated: 3073
EndChar

StartChar: multiply
Encoding: 215 215 149
Width: 1075
VWidth: 1708
GlyphClass: 2
Flags: W
DStem2: 134 390 268 228 0.771172 0.636627<0.203453 350.388 564.009 914.193> 406 956 242 826 0.619251 -0.785194<0.518066 263.473 478.264 741.219>
LayerCount: 2
Fore
SplineSet
839 972 m 1
 973 810 l 1
 700 584 l 1
 865 374 l 1
 701 244 l 1
 538 451 l 1
 268 228 l 1
 134 390 l 1
 407 616 l 1
 242 826 l 1
 406 956 l 1
 569 749 l 1
 839 972 l 1
EndSplineSet
Validated: 3073
EndChar

StartChar: Thorn
Encoding: 222 222 156
Width: 1075
VWidth: 1947
GlyphClass: 2
Flags: W
HStem: 0 21G<-4 215.176> 340 210<325 708.203> 1093 210<482 845.427>
VStem: -4 215<0 215> 317 215<1323 1538> 852 210<795.953 1082.85>
DStem2: -4 0 211 0 0.207912 0.978148<44.701 392.033 606.384 1161.22 1375.57 1571.13> 638.346 0 853.698 0 0.207912 0.978148<607.265 1055.35>
LayerCount: 2
Fore
SplineSet
852 1034 m 3
 852 1077 838 1093 687 1093 c 2
 439 1093 l 1
 325 550 l 1
 530 550 l 2
 708 550 771 624 795 737 c 2
 842 961 l 2
 849 997 852 1024 852 1034 c 3
687 1303 m 2
 995 1303 1053 1179 1062 1034 c 3
 1062 1011 1060 976 1048 919 c 2
 1001 693 l 2
 981 598 907 340 530 340 c 2
 282 340 l 1
 211 0 l 1
 -4 0 l 1
 317 1538 l 1
 532 1538 l 1
 482 1303 l 1
 687 1303 l 2
EndSplineSet
Validated: 3073
EndChar

StartChar: germandbls
Encoding: 223 223 157
Width: 1075
VWidth: 1947
GlyphClass: 2
Flags: W
HStem: -25 210<422.901 644.236> 650 210<515 714.446> 1215 210<502.33 813.493>
VStem: -85 215<-387 -172> 752 210<326.32 632.116> 817 210<965.953 1206.24>
DStem2: -85 -387 130 -387 0.207912 0.978148<44.701 1650.84> 557.645 -387 772.573 -387 0.207912 0.978148<616.557 965.091>
LayerCount: 2
Fore
SplineSet
422 205 m 1xf8
 441 186 474 185 496 185 c 2
 505 185 l 2
 630 185 692 244 716 358 c 2
 746 506 l 2
 750 527 752 545 752 559 c 3xf8
 752 600 742 625 687 640 c 0
 651 650 630 650 593 650 c 2
 515 650 l 1
 515 860 l 1
 535 860 l 2
 715 860 777 935 801 1047 c 2
 809 1085 l 2
 812 1097 817 1123 817 1148 c 3
 817 1185 812 1215 711 1215 c 2
 690 1215 l 2
 492 1215 448 1137 428 1043 c 2
 130 -387 l 1
 -85 -387 l 1
 222 1085 l 2
 269 1309 426 1425 690 1425 c 2
 711 1425 l 2
 956 1425 1027 1278 1027 1148 c 3xf4
 1027 1113 1023 1078 1015 1041 c 2
 1007 1003 l 2
 996 951 968 848 881 767 c 1
 937 712 962 638 962 559 c 3
 962 528 959 496 952 464 c 2
 922 316 l 1
 879 112 737 -25 505 -25 c 2
 496 -25 l 2
 447 -25 358 -24 276 55 c 1
 422 205 l 1xf8
EndSplineSet
Validated: 3073
EndChar

StartChar: ae
Encoding: 230 230 164
Width: 1075
VWidth: 1947
GlyphClass: 2
Flags: W
HStem: -25 210<168.731 355.003 589.171 764.839> 437 210<223.043 410 668 870> 839 210<299.286 480.026 711.978 899.434>
VStem: -47 215<188.684 385.442> 902 210<714.344 835.426>
LayerCount: 2
Fore
SplineSet
68 794 m 1
 86 883 246 1049 414 1049 c 27
 495 1049 560 1025 611 983 c 1
 683 1032 764 1049 830 1049 c 3
 996 1049 1112 953 1112 809 c 3
 1112 792 1110 774 1106 752 c 2
 1040 437 l 1
 624 437 l 1
 602 327 l 2
 593 285 589 256 589 235 c 3
 589 191 608 185 651 185 c 3
 690 185 769 200 791 273 c 1
 997 229 l 1
 991 211 980 136 897 64 c 0
 823 0 731 -25 651 -25 c 3
 576 -25 506 0 455 42 c 1
 366 -20 284 -25 235 -25 c 3
 94 -25 -47 57 -47 213 c 3
 -47 232 -45 251 -41 272 c 2
 -19 380 l 2
 0 475 93 647 335 647 c 2
 453 647 l 1
 474 738 l 2
 479 759 482 781 482 787 c 3
 482 824 452 839 415 839 c 3
 358 839 284 803 274 752 c 1
 68 794 l 1
668 647 m 1
 870 647 l 1
 897 769 l 2
 900 783 902 795 902 804 c 3
 902 833 883 839 830 839 c 3
 796 839 706 829 690 752 c 2
 668 647 l 1
410 437 m 1
 335 437 l 2
 298 437 204 418 187 336 c 2
 172 265 l 2
 169 252 168 240 168 231 c 3
 168 191 192 185 235 185 c 3
 270 185 357 188 375 272 c 2
 410 437 l 1
EndSplineSet
Validated: 3073
EndChar

StartChar: eth
Encoding: 240 240 174
Width: 1075
VWidth: 1947
GlyphClass: 2
Flags: W
HStem: -25 210<318.664 603.697> 712 210<438.574 725.638> 1390 20G<955.86 1029.74>
VStem: 77 210<212.089 529.434> 752 242<445.383 853.25>
DStem2: -10.7518 -25 204.601 -25 0.207912 0.978148<409.182 718.208> 305 1200 363 998 0.959895 0.280359<0 220.88 519.921 748.081> 633.611 -25 849.388 -25 0.207912 0.978148<290.824 610.4>
LayerCount: 2
Fore
SplineSet
586 922 m 2
 607 922 l 2
 668 922 693 920 755 899 c 1
 739 944 716 988 686 1030 c 2
 649 1082 l 1
 363 998 l 1
 305 1200 l 1
 517 1262 l 1
 443 1363 l 1
 613 1487 l 1
 731 1324 l 1
 1024 1410 l 1
 1082 1208 l 1
 863 1144 l 1
 951 1020 994 872 994 730 c 3
 994 685 990 641 981 598 c 2
 941 406 l 2
 883 126 706 -25 453 -25 c 2
 432 -25 l 2
 378 -25 214 -21 123 140 c 0
 91 196 77 261 77 329 c 3
 77 368 81 408 90 449 c 2
 96 478 l 2
 153 749 326 922 586 922 c 2
752 575 m 3
 752 700 664 712 607 712 c 2
 586 712 l 2
 512 712 356 694 302 436 c 2
 296 405 l 2
 290 377 287 351 287 329 c 3
 287 188 388 185 432 185 c 2
 453 185 l 2
 634 185 706 319 735 452 c 2
 744 493 l 2
 750 524 752 551 752 575 c 3
EndSplineSet
Validated: 3073
EndChar

StartChar: divide
Encoding: 247 247 181
Width: 1075
VWidth: 1947
GlyphClass: 2
Flags: W
HStem: 91 301<374.134 582.621> 495 210<143 961> 809 302<525.396 733.165>
VStem: 325 302<139.903 345.125> 478 302<854.831 1063.26>
LayerCount: 2
Fore
SplineSet
478 91 m 0xe8
 395 91 325 164 325 242 c 0xf0
 325 317 391 392 478 392 c 0xe8
 565 392 627 317 627 242 c 0xf0
 627 167 566 91 478 91 c 0xe8
630 809 m 0
 540 809 478 887 478 960 c 0
 478 1032 539 1111 630 1111 c 0
 712 1111 780 1041 780 960 c 0xe8
 780 888 720 809 630 809 c 0
961 705 m 1
 961 495 l 1
 143 495 l 1
 143 705 l 1
 961 705 l 1
EndSplineSet
Validated: 3073
EndChar

StartChar: oslash
Encoding: 248 248 182
Width: 1075
VWidth: 1947
GlyphClass: 2
Flags: W
HStem: -25 210<396.443 607.671> 839 210<456.174 681.513>
DStem2: -30.0945 -117 184.833 -117 0.207912 0.978148<562.411 953.069> -29 21 129 -117 0.658024 0.752997<0.0542603 192.192 488.987 973.794 1295.37 1474.11> 614.906 -117 829.833 -117 0.207912 0.978148<384.411 749.228>
LayerCount: 2
Fore
SplineSet
632 1049 m 2
 694 1049 755 1046 832 1007 c 1
 941 1131 l 1
 1099 993 l 1
 971 847 l 1
 984 830 991 795 991 716 c 3
 991 671 986 625 976 576 c 2
 941 406 l 2
 883 126 706 -25 453 -25 c 2
 432 -25 l 2
 339 -20 313 -15 247 18 c 1
 129 -117 l 1
 -29 21 l 1
 106 176 l 1
 86 224 78 277 78 331 c 3
 78 369 82 408 90 448 c 2
 125 618 l 2
 183 895 357 1049 611 1049 c 2
 632 1049 l 2
331 576 m 2
 296 406 l 2
 295 400 294 394 293 389 c 1
 683 836 l 1
 665 838 650 839 632 839 c 2
 611 839 l 2
 449 839 367 746 331 576 c 2
770 616 m 1
 395 188 l 1
 407 187 419 186 432 185 c 2
 453 185 l 2
 616 185 699 277 735 448 c 2
 770 616 l 1
EndSplineSet
Validated: 3073
EndChar

StartChar: thorn
Encoding: 254 254 188
Width: 1075
VWidth: 1947
GlyphClass: 2
Flags: W
HStem: -384 21G<-83 135.143> -25 210<322.069 607.671> 839 210<453.242 760.758> 1380 20G<283.841 503>
VStem: -83 214<-384 -170> 288 215<1185 1400> 781 210<453.562 818.32>
DStem2: -83 -384 131 -384 0.207912 0.978148<44.4931 473.403 777.522 1235.47 1474.61 1822.15> 558.153 -384 773.08 -384 0.207912 0.978148<657.376 1120.51>
LayerCount: 2
Fore
SplineSet
781 716 m 3
 781 802 753 839 632 839 c 2
 611 839 l 2
 454 839 367 753 334 591 c 2
 296 406 l 2
 290 378 288 353 288 331 c 3
 288 198 392 185 432 185 c 2
 453 185 l 2
 616 185 699 277 735 448 c 2
 770 618 l 2
 774 637 781 677 781 716 c 3
432 -25 m 2
 387 -25 294 -25 218 36 c 1
 131 -384 l 1
 -83 -384 l 1
 288 1400 l 1
 503 1400 l 1
 423 1016 l 1
 479 1038 542 1049 611 1049 c 2
 632 1049 l 2
 687 1049 707 1047 755 1035 c 0
 878 1005 991 915 991 716 c 3
 991 671 986 625 976 576 c 2
 941 406 l 2
 883 126 706 -25 453 -25 c 2
 432 -25 l 2
EndSplineSet
Validated: 3073
EndChar

StartChar: minus
Encoding: 8722 8722 190
Width: 1075
VWidth: 1708
GlyphClass: 2
Flags: W
HStem: 495 210<50 1025>
LayerCount: 2
Fore
SplineSet
1025 705 m 1
 1025 495 l 1
 50 495 l 1
 50 705 l 1
 1025 705 l 1
EndSplineSet
Validated: 3073
EndChar

StartChar: quoteleft
Encoding: 8216 8216 192
Width: 1075
VWidth: 1947
GlyphClass: 2
Flags: W
HStem: 1347 78<826.67 925>
VStem: 581 204<1047.91 1264.95>
LayerCount: 2
Fore
SplineSet
785 1242 m 3
 785 1182 838 1177 838 1099 c 3
 838 1031 787 969 709 969 c 3
 623 969 581 1034 581 1099 c 3
 581 1191 634 1425 925 1425 c 1
 929 1347 l 1
 870 1339 785 1305 785 1242 c 3
EndSplineSet
Validated: 3073
EndChar

StartChar: gravemodifier
Encoding: 715 715 193
Width: 1075
VWidth: 2334
GlyphClass: 2
Flags: W
HStem: 1394 297
VStem: 607 274
DStem2: 727 1691 607 1603 0.593199 -0.805056<0 259.27>
LayerCount: 2
Fore
SplineSet
881 1482 m 5
 761 1394 l 5
 607 1603 l 5
 727 1691 l 5
 881 1482 l 5
EndSplineSet
Validated: 3073
EndChar

StartChar: acute
Encoding: 180 180 194
Width: 1075
VWidth: 1947
GlyphClass: 2
Flags: W
HStem: 1237 421
VStem: 528 412
DStem2: 528 1379 682 1237 0.678936 0.734198<0.299995 380.007>
LayerCount: 2
Fore
SplineSet
682 1237 m 1
 528 1379 l 1
 786 1658 l 1
 940 1516 l 1
 682 1237 l 1
EndSplineSet
Validated: 3073
EndChar

StartChar: circumflex
Encoding: 710 710 195
Width: 1075
VWidth: 1947
GlyphClass: 2
Flags: W
HStem: 1402 236
VStem: 467 487
DStem2: 467 1524 545 1396 0.853846 0.520526<0 215.379>
LayerCount: 2
Fore
SplineSet
808 1638 m 5
 954 1518 l 5
 858 1402 l 5
 729 1508 l 5
 545 1396 l 5
 467 1524 l 5
 654 1638 l 5
 808 1638 l 5
EndSplineSet
Validated: 3073
EndChar

StartChar: tilde
Encoding: 732 732 196
Width: 1075
VWidth: 1947
GlyphClass: 2
Flags: W
HStem: 1447 150<791.601 955.518> 1537 150<563.75 726.557>
LayerCount: 2
Fore
SplineSet
439 1581 m 2x80
 483 1625 551 1687 652 1687 c 2
 668 1687 l 2x40
 716 1687 768 1667 806 1627 c 2
 822 1609 l 2
 826 1605 836 1597 850 1597 c 2
 867 1597 l 2
 911 1597 942 1626 976 1661 c 2
 998 1684 l 1
 1106 1580 l 1
 1084 1557 l 2
 1037 1508 969 1447 867 1447 c 2
 850 1447 l 2x80
 801 1447 747 1468 710 1509 c 2
 696 1525 l 2
 691 1530 681 1537 668 1537 c 2
 652 1537 l 2x40
 615 1537 587 1517 545 1475 c 2
 519 1447 l 1
 413 1555 l 1
 439 1581 l 2x80
EndSplineSet
Validated: 3073
EndChar

StartChar: macronmodifier
Encoding: 713 713 197
Width: 1075
VWidth: 1947
GlyphClass: 2
Flags: W
HStem: 1463 150<521 974>
VStem: 521 453<1463 1613>
LayerCount: 2
Fore
SplineSet
521 1463 m 5
 521 1613 l 5
 974 1613 l 5
 974 1463 l 5
 521 1463 l 5
EndSplineSet
Validated: 3073
EndChar

StartChar: breve
Encoding: 728 728 198
Width: 1075
VWidth: 1947
GlyphClass: 2
Flags: W
HStem: 1405 150<624.911 880.666>
VStem: 468 580
LayerCount: 2
Fore
SplineSet
738 1405 m 0
 623 1405 525 1460 468 1552 c 1
 596 1632 l 1
 641 1561 710 1555 738 1555 c 0
 763 1555 851 1559 944 1647 c 1
 1048 1539 l 1
 910 1408 772 1405 738 1405 c 0
EndSplineSet
Validated: 3073
EndChar

StartChar: dotaccent
Encoding: 729 729 199
Width: 1075
VWidth: 1947
GlyphClass: 2
Flags: W
HStem: 1407 240<658.761 844.103>
VStem: 632 240<1434.49 1619.51>
LayerCount: 2
Fore
SplineSet
632 1527 m 0
 632 1593 684 1647 751 1647 c 0
 817 1647 872 1593 872 1527 c 0
 872 1461 817 1407 751 1407 c 0
 684 1407 632 1461 632 1527 c 0
EndSplineSet
Validated: 3073
EndChar

StartChar: dieresis
Encoding: 168 168 200
Width: 1075
VWidth: 1947
GlyphClass: 2
Flags: W
HStem: 1426 234<412.665 585.888 849.582 1022>
VStem: 386 227<1452.22 1635.83> 823 225<1452.11 1635.83>
LayerCount: 2
Fore
SplineSet
1048 1545 m 0
 1048 1476 993 1426 936 1426 c 0
 876 1426 823 1480 823 1545 c 0
 823 1611 876 1660 936 1660 c 0
 991 1660 1048 1615 1048 1545 c 0
613 1545 m 0
 613 1482 562 1426 500 1426 c 0
 439 1426 386 1479 386 1545 c 0
 386 1615 442 1660 499 1660 c 0
 564 1660 613 1606 613 1545 c 0
EndSplineSet
Validated: 3073
EndChar

StartChar: ring
Encoding: 730 730 202
Width: 1075
VWidth: 1947
GlyphClass: 2
Flags: W
HStem: 1223 110<649.515 804.788> 1517 110<649.515 804.788>
VStem: 525 110<1346.23 1503.77> 819 110<1348.51 1501.49>
LayerCount: 2
Fore
SplineSet
635 1425 m 0
 635 1374 675 1333 726 1333 c 0
 777 1333 819 1374 819 1425 c 0
 819 1476 777 1517 726 1517 c 0
 675 1517 635 1476 635 1425 c 0
525 1425 m 0
 525 1537 613 1627 725 1627 c 0
 837 1627 929 1537 929 1425 c 0
 929 1313 837 1223 725 1223 c 0
 613 1223 525 1313 525 1425 c 0
EndSplineSet
Validated: 3073
EndChar

StartChar: cedilla
Encoding: 184 184 203
Width: 1075
VWidth: 1947
GlyphClass: 2
Flags: W
HStem: -486 150<257.838 502.66>
VStem: 523 150<-310.673 -201.715>
LayerCount: 2
Fore
SplineSet
520 -67 m 1
 621 -91 673 -176 673 -241 c 3
 673 -279 666 -324 628 -370 c 0
 568 -443 470 -486 379 -486 c 3
 280 -486 195 -444 139 -384 c 1
 249 -283 l 1
 277 -313 322 -336 379 -336 c 3
 443 -336 523 -308 523 -241 c 3
 523 -210 496 -197 430 -197 c 2
 333 -197 l 1
 394 47 l 1
 540 9 l 1
 520 -67 l 1
EndSplineSet
Validated: 3073
EndChar

StartChar: ogonek
Encoding: 731 731 204
Width: 1075
VWidth: 1947
GlyphClass: 2
Flags: W
HStem: -420 150<362.598 464.5>
VStem: 209 149<-268.394 -174.199>
DStem2: 294 -69 390 -183 0.772961 0.634454<-60.3503 172.594>
LayerCount: 2
Fore
SplineSet
523 -374 m 2
 497 -394 451 -420 387 -420 c 3
 280 -420 209 -337 209 -241 c 3
 209 -183 233 -119 294 -69 c 2
 427 41 l 1
 437 87 l 1
 583 57 l 1
 563 -41 l 1
 390 -183 l 2
 371 -199 358 -224 358 -243 c 3
 358 -259 367 -270 387 -270 c 2
 393 -270 l 2
 406 -270 417 -266 433 -254 c 2
 465 -230 l 1
 555 -350 l 1
 523 -374 l 2
EndSplineSet
Validated: 3073
EndChar

StartChar: caron
Encoding: 711 711 205
Width: 1075
VWidth: 1947
GlyphClass: 2
Flags: W
HStem: 1422 242
VStem: 518 487
DStem2: 743 1552 818 1422 0.853846 0.520526<0 215.379>
LayerCount: 2
Fore
SplineSet
743 1552 m 1
 927 1664 l 1
 1005 1536 l 1
 818 1422 l 1
 664 1422 l 1
 518 1542 l 1
 614 1658 l 1
 743 1552 l 1
EndSplineSet
Validated: 3073
EndChar

StartChar: dotlessi
Encoding: 305 305 206
Width: 1075
VWidth: 1947
GlyphClass: 2
Flags: W
HStem: 0 210<146 363 578 747> 814 210<316 488>
DStem2: 318.363 0 533.363 0 0.207912 0.978148<259.393 831.482>
LayerCount: 2
Fore
SplineSet
747 0 m 1
 102 0 l 1
 146 210 l 1
 363 210 l 1
 488 814 l 1
 272 814 l 1
 316 1024 l 1
 746 1024 l 1
 578 210 l 1
 791 210 l 1
 747 0 l 1
EndSplineSet
Validated: 3073
EndChar

StartChar: currency
Encoding: 164 164 210
Width: 1075
VWidth: 1947
GlyphClass: 2
Flags: W
HStem: 386 210<422.53 653.47> 973 210<425.924 650.076>
VStem: 143 210<664.457 900.079> 723 210<663.423 901.987>
LayerCount: 2
Fore
SplineSet
547 973 m 2
 529 973 l 2
 445 973 353 877 353 798 c 2
 353 770 l 2
 353 685 445 596 529 596 c 2
 547 596 l 2
 631 596 723 683 723 770 c 2
 723 798 l 2
 723 877 631 973 547 973 c 2
933 798 m 2
 933 770 l 2
 933 692 906 617 862 556 c 1
 970 402 l 1
 798 282 l 1
 700 422 l 1
 652 399 599 386 547 386 c 2
 529 386 l 2
 448 386 369 416 305 464 c 1
 179 347 l 1
 37 501 l 1
 174 628 l 1
 154 673 143 721 143 770 c 2
 143 798 l 2
 143 871 170 945 214 1008 c 1
 106 1162 l 1
 278 1282 l 1
 374 1146 l 1
 422 1170 475 1183 529 1183 c 2
 547 1183 l 2
 629 1183 707 1152 772 1102 c 1
 897 1217 l 1
 1039 1063 l 1
 903 936 l 1
 922 892 933 845 933 798 c 2
EndSplineSet
Validated: 3073
EndChar

StartChar: brokenbar
Encoding: 166 166 211
Width: 1075
VWidth: 1947
GlyphClass: 2
Flags: W
VStem: 300 215<-75 140> 445 215<385 600> 487 215<801 1016> 632 215<1261 1476>
DStem2: 300 -75 515 -75 0.207912 0.978148<44.701 690.397 940.438 1586.13>
LayerCount: 2
Fore
SplineSet
487 801 m 1x20
 632 1476 l 1
 847 1476 l 1x10
 702 801 l 1
 487 801 l 1x20
300 -75 m 1x80
 445 600 l 1
 660 600 l 1x40
 515 -75 l 1
 300 -75 l 1x80
EndSplineSet
Validated: 3073
EndChar

StartChar: onequarter
Encoding: 188 188 212
Width: 1075
VWidth: 1708
GlyphClass: 2
Flags: W
VStem: 196 215<776 991>
DStem2: -13.3682 -209 201.632 -209 0.207912 0.978148<1051.71 1533.41> 11 32 187 -82 0.546814 0.837254<0.792206 1731.85> 488 209 616 143 0.655718 0.755006<34.1015 235.874>
LayerCount: 2
Fore
SplineSet
958 1482 m 1
 1134 1368 l 1
 187 -82 l 1
 11 32 l 1
 958 1482 l 1
305 1291 m 1
 151 1199 l 1
 90 1301 l 1
 416 1602 l 1
 585 1602 l 1
 411 776 l 1
 196 776 l 1
 305 1291 l 1
751 293 m 5
 616 143 l 5
 721 143 l 5
 751 293 l 5
488 209 m 5
 805 574 l 5
 1018 574 l 5
 929 143 l 5
 966 143 l 5
 923 -67 l 5
 886 -67 l 5
 856 -209 l 5
 642 -209 l 5
 671 -67 l 5
 430 -67 l 5
 488 209 l 5
EndSplineSet
Validated: 3073
EndChar

StartChar: onehalf
Encoding: 189 189 213
Width: 1075
VWidth: 1708
GlyphClass: 2
Flags: W
HStem: -315 210<671 848> 368 210<678.346 816.047>
VStem: 196 215<776 991>
DStem2: -39 32 137 -82 0.546814 0.837254<0.792206 1731.85> -35.8992 -315 179.101 -315 0.207912 0.978148<1160.07 1641.78> 506 28 671 -105 0.733396 0.679802<30.5967 430.22>
LayerCount: 2
Fore
SplineSet
305 1291 m 1
 151 1199 l 1
 90 1301 l 1
 416 1602 l 1
 585 1602 l 1
 411 776 l 1
 196 776 l 1
 305 1291 l 1
1084 1368 m 1
 137 -82 l 1
 -39 32 l 1
 908 1482 l 1
 1084 1368 l 1
497 433 m 1
 567 528 654 578 771 578 c 2
 783 578 l 2
 824 578 1032 567 1032 378 c 2
 1032 368 l 2
 1032 268 990 191 908 115 c 2
 671 -105 l 1
 892 -105 l 1
 848 -315 l 1
 356 -315 l 1
 402 -95 l 1
 431 -52 465 -10 506 28 c 2
 766 269 l 2
 803 304 814 317 816 327 c 2
 819 346 l 2
 819 347 819 348 819 349 c 0
 819 360 809 368 783 368 c 2
 771 368 l 2
 710 368 695 348 669 311 c 1
 497 433 l 1
EndSplineSet
Validated: 3073
EndChar

StartChar: threequarters
Encoding: 190 190 214
Width: 1075
VWidth: 1708
GlyphClass: 2
Flags: W
HStem: 727 210<282.09 441.564> 1107 210<348 477.229> 1423 210<382.132 512.147>
VStem: 478 210<968.312 1105.31> 514 215<1334.95 1422.36>
DStem2: 81 32 257 -82 0.546814 0.837254<0.792206 1731.85> 508 209 636 143 0.655718 0.755006<34.1015 235.874>
LayerCount: 2
Fore
SplineSet
771 293 m 1xe0
 636 143 l 1
 741 143 l 1
 771 293 l 1xe0
508 209 m 1
 825 574 l 1
 1038 574 l 1
 949 143 l 1
 986 143 l 1
 943 -67 l 1
 906 -67 l 1
 876 -209 l 1
 662 -209 l 1
 691 -67 l 1
 450 -67 l 1
 508 209 l 1
363 727 m 2
 350 727 l 2
 294 727 236 734 177 768 c 0
 122 799 76 855 74 932 c 1
 281 951 l 0
 304 938 343 937 350 937 c 2
 363 937 l 2
 431 937 456 981 473 1035 c 0
 475 1042 478 1060 478 1075 c 3xf0
 478 1100 465 1107 424 1107 c 2
 303 1107 l 1
 348 1317 l 1
 424 1317 l 2
 466 1317 495 1328 501 1347 c 2
 508 1370 l 2
 512 1382 514 1392 514 1400 c 3
 514 1418 503 1423 485 1423 c 2
 472 1423 l 2
 437 1423 399 1404 378 1373 c 1
 204 1491 l 1
 262 1577 363 1633 472 1633 c 2
 485 1633 l 2
 534 1633 578 1628 634 1592 c 0
 697 1551 729 1487 729 1415 c 3xe8
 729 1404 725 1369 722 1357 c 2
 715 1322 l 2
 707 1284 687 1246 656 1213 c 1
 677 1177 688 1134 688 1085 c 2
 688 1069 l 2xf0
 688 957 588 727 363 727 c 2
1028 1482 m 1
 1204 1368 l 1
 257 -82 l 1
 81 32 l 1
 1028 1482 l 1
EndSplineSet
Validated: 3073
EndChar

StartChar: Lslash
Encoding: 321 321 216
Width: 1075
VWidth: 1947
GlyphClass: 2
Flags: W
HStem: 0 211<255 851> 1380 20G<283.831 503>
VStem: 288 215<1185 1400>
DStem2: -4.78585 0 210.151 0 0.207912 0.978148<260.402 422.227 758.945 1430.28> 20 614 72 410 0.969361 0.245642<0.295826 11.6957 347.554 757.2>
LayerCount: 2
Fore
SplineSet
851 0 m 1
 -3 0 l 1
 83 413 l 1
 72 410 l 1
 20 614 l 1
 130 642 l 1
 288 1400 l 1
 503 1400 l 1
 357 699 l 1
 754 800 l 1
 806 596 l 1
 309 470 l 1
 255 211 l 1
 896 211 l 1
 851 0 l 1
EndSplineSet
Validated: 3073
EndChar

StartChar: lslash
Encoding: 322 322 257
Width: 1075
VWidth: 1947
GlyphClass: 2
Flags: W
HStem: 0 210<147 363 578 747> 1190 210<396 566>
DStem2: 159 614 211 410 0.969361 0.245642<0.295826 211.788 546.677 757.2> 318.363 0 533.363 0 0.207912 0.978148<259.393 472.204 808.714 1215.48>
LayerCount: 2
Fore
SplineSet
352 1190 m 1
 396 1400 l 1
 824 1400 l 1
 689 748 l 1
 893 800 l 1
 945 596 l 1
 642 519 l 1
 578 210 l 1
 791 210 l 1
 747 0 l 1
 103 0 l 1
 147 210 l 1
 363 210 l 1
 416 462 l 1
 211 410 l 1
 159 614 l 1
 463 691 l 1
 566 1190 l 1
 352 1190 l 1
EndSplineSet
Validated: 3073
EndChar

StartChar: dotlessj
Encoding: 567 567 260
Width: 1075
VWidth: 1947
GlyphClass: 2
Flags: W
HStem: -399 210<312.943 507.904> 814 210<416 718>
DStem2: 464.895 -399 680.247 -399 0.207912 0.978148<219.622 1239.12>
LayerCount: 2
Fore
SplineSet
383 -189 m 27
 453 -189 512 -179 531 -88 c 2
 718 814 l 1
 372 814 l 1
 416 1024 l 1
 976 1024 l 1
 737 -132 l 2
 718 -219 671 -287 609 -332 c 0
 523 -393 475 -399 383 -399 c 27
 236 -399 105 -294 100 -150 c 1
 310 -142 l 1
 311 -175 349 -189 383 -189 c 27
EndSplineSet
Validated: 3073
EndChar

StartChar: eng
Encoding: 331 331 261
Width: 1075
VWidth: 2334
GlyphClass: 2
Flags: W
HStem: -399 210<314.762 555.15> 0 21G<-4 215.165> 839 210<495.984 783.343> 1004 20G<204.84 423>
VStem: -4 215<0 215> 796 210<642.385 829.744>
DStem2: -88.8101 -399 126.19 -399 0.207912 0.978148<452.615 1195.82> 556.465 -399 771.818 -399 0.207912 0.978148<262.876 1187.76>
LayerCount: 2
Fore
SplineSet
796 765 m 3xec
 796 830 788 839 632 839 c 2
 611 839 l 2xec
 510 839 359 707 327 557 c 2
 211 0 l 1
 -4 0 l 1
 209 1024 l 1
 423 1024 l 1xdc
 418 996 l 1
 477 1029 543 1049 611 1049 c 2
 632 1049 l 2
 977 1049 1006 948 1006 765 c 27
 1006 726 1002 700 995 666 c 2
 846 -50 l 2
 804 -251 636 -399 440 -399 c 2
 381 -399 l 2
 240 -399 168 -318 142 -288 c 1
 314 -168 l 1
 330 -186 362 -189 381 -189 c 2
 440 -189 l 2
 536 -189 618 -110 640 -6 c 2
 789 708 l 2
 793 725 796 752 796 765 c 3xec
EndSplineSet
Validated: 3073
EndChar

StartChar: ellipsis
Encoding: 8230 8230 266
Width: 1075
VWidth: 1947
GlyphClass: 2
Flags: W
HStem: 12 201<121.099 277.18 477.04 632.841 832.378 988.841>
VStem: 104 190<28.3537 196.445> 460 190<28.8501 196.445> 815 191<28.8501 196.445>
LayerCount: 2
Fore
SplineSet
650 113 m 0
 650 61 609 12 554 12 c 0
 501 12 460 59 460 113 c 0
 460 165 500 213 554 213 c 0
 610 213 650 162 650 113 c 0
294 113 m 0
 294 61 254 12 199 12 c 0
 145 12 104 59 104 113 c 0
 104 165 144 213 199 213 c 0
 254 213 294 162 294 113 c 0
1006 113 m 0
 1006 61 965 12 910 12 c 0
 857 12 815 59 815 113 c 0
 815 165 856 213 910 213 c 0
 966 213 1006 162 1006 113 c 0
EndSplineSet
Validated: 3073
EndChar

StartChar: uparrow
Encoding: 8593 8593 267
Width: 1075
VWidth: 1708
GlyphClass: 2
Flags: W
HStem: 1024 20G<458.598 617.402>
VStem: 458 160<177 794>
DStem2: 121 676 235 564 0.696298 0.717753<0 319.347> 598 1044 618 794 0.696298 -0.717753<193.364 512.711>
LayerCount: 2
Fore
SplineSet
618 177 m 1
 458 177 l 1
 458 794 l 1
 235 564 l 1
 121 676 l 1
 478 1044 l 1
 598 1044 l 1
 955 676 l 1
 841 564 l 1
 618 794 l 1
 618 177 l 1
EndSplineSet
Validated: 3073
EndChar

StartChar: downarrow
Encoding: 8595 8595 268
Width: 1075
VWidth: 1708
GlyphClass: 2
Flags: W
VStem: 458 160<387 991>
DStem2: 238 633 118 527 0.6662 -0.745773<0 330.024> 618 387 598 124 0.6662 0.745773<0 330.024>
LayerCount: 2
Fore
SplineSet
458 991 m 1
 618 991 l 1
 618 387 l 1
 838 633 l 1
 958 527 l 1
 598 124 l 1
 478 124 l 1
 118 527 l 1
 238 633 l 1
 458 387 l 1
 458 991 l 1
EndSplineSet
Validated: 3073
EndChar

StartChar: spaceopenbox
Encoding: 9251 9251 269
Width: 1075
VWidth: 1947
GlyphClass: 2
Flags: W
HStem: -197 353<-4 180 631 770> -197 210<180 600>
LayerCount: 2
Fore
SplineSet
631 156 m 1x80
 845 156 l 1
 770 -197 l 1x80
 -80 -197 l 1x40
 -4 156 l 1
 210 156 l 1x80
 180 13 l 1
 600 13 l 1x40
 631 156 l 1x80
EndSplineSet
Validated: 3073
EndChar

StartChar: foursuperior
Encoding: 8308 8308 271
Width: 1075
VWidth: 1947
GlyphClass: 2
Flags: W
HStem: 702 210<527 630 887 955> 1405 20G<732.422 992>
LayerCount: 2
Fore
SplineSet
709 1089 m 1
 527 912 l 1
 673 912 l 1
 709 1089 l 1
219 906 m 1
 753 1425 l 1
 992 1425 l 1
 887 912 l 1
 999 912 l 1
 955 702 l 1
 845 702 l 1
 813 544 l 1
 598 544 l 1
 630 702 l 1
 176 702 l 1
 219 906 l 1
EndSplineSet
Validated: 3073
EndChar

StartChar: Eng
Encoding: 330 330 273
Width: 1075
VWidth: 2334
GlyphClass: 2
Flags: W
HStem: -399 210<314.762 555.15> 0 21G<-4 215.218> 1215 210<574.841 865.722> 1380 20G<283.829 503>
VStem: -4 215<0 215> 873 210<1016.93 1201.25>
DStem2: -88.8101 -399 126.19 -399 0.207912 0.978148<452.615 1578.16> 556.465 -399 771.818 -399 0.207912 0.978148<262.876 1566.35>
LayerCount: 2
Fore
SplineSet
873 1136 m 3xec
 873 1197 865 1215 711 1215 c 2
 690 1215 l 2xec
 576 1215 433 1056 412 953 c 2
 211 0 l 1
 -4 0 l 1
 288 1400 l 1
 503 1400 l 1xdc
 496 1369 l 1
 556 1403 622 1425 690 1425 c 2
 711 1425 l 2
 1066 1425 1083 1320 1083 1136 c 27
 1083 1099 1080 1074 1073 1042 c 2
 846 -50 l 2
 804 -251 636 -399 440 -399 c 2
 381 -399 l 2
 237 -399 165 -321 142 -288 c 1
 314 -168 l 1
 330 -186 362 -189 381 -189 c 2
 440 -189 l 2
 536 -189 618 -110 640 -6 c 2
 867 1084 l 2
 869 1094 873 1116 873 1136 c 3xec
EndSplineSet
Validated: 3073
EndChar

StartChar: dcroat
Encoding: 273 273 274
Width: 1075
VWidth: 1947
GlyphClass: 2
Flags: W
HStem: -25 210<323.7 612.999> 839 210<456.174 765.424> 1147 210<664 880 1139 1148> 1380 20G<928.814 1148>
VStem: 78 210<218.808 583.691>
DStem2: -10.5392 -25 204.388 -25 0.207912 0.978148<411.301 859.013> 636 -25 851 -25 0.207912 0.978148<284.561 753.165 1044.93 1197.12>
LayerCount: 2
Fore
SplineSet
781 716 m 3
 781 802 762 834 632 839 c 2
 611 839 l 2
 449 839 367 746 331 576 c 2
 296 406 l 2
 290 378 288 353 288 331 c 3
 288 201 390 185 432 185 c 2
 453 185 l 2
 608 185 692 269 730 425 c 1
 770 618 l 2
 774 637 781 677 781 716 c 3
632 1049 m 2
 681 1049 769 1047 849 998 c 1
 880 1147 l 1
 620 1147 l 1
 664 1357 l 1
 924 1357 l 1
 933 1400 l 1
 1148 1400 l 1
 1139 1357 l 1
 1192 1357 l 1
 1148 1147 l 1
 1095 1147 l 1
 941 406 l 2
 939 397 937 388 935 380 c 2
 851 -25 l 1
 636 -25 l 1
 643 8 l 1
 586 -14 522 -25 453 -25 c 2
 432 -25 l 2
 378 -25 213 -23 123 141 c 0
 92 198 78 263 78 331 c 3
 78 369 82 408 90 448 c 2
 125 618 l 2
 183 895 357 1049 611 1049 c 2
 632 1049 l 2
EndSplineSet
Validated: 3073
EndChar

StartChar: bullet
Encoding: 8226 8226 280
Width: 1075
VWidth: 1947
GlyphClass: 2
Flags: W
HStem: 466 403<392.606 668.893>
VStem: 316 428<538.259 789.323>
LayerCount: 2
Fore
SplineSet
744 669 m 0
 744 553 661 466 537 466 c 0
 396 466 316 543 316 669 c 0
 316 772 403 869 522 869 c 0
 641 869 744 804 744 669 c 0
EndSplineSet
Validated: 3073
EndChar

StartChar: florin
Encoding: 402 402 281
Width: 1075
VWidth: 1947
GlyphClass: 2
Flags: W
HStem: -416 210<-0.380653 227.565> 690 210<267 471 743 951> 1215 210<832.04 1075.31>
DStem2: 263 -101 467 -153 0.253748 0.96727<-98.0916 817.89 1090.04 1409>
LayerCount: 2
Fore
SplineSet
951 900 m 1
 951 690 l 1
 688 690 l 1
 467 -153 l 2
 423 -320 277 -416 114 -416 c 3
 27 -416 -91 -374 -144 -266 c 1
 44 -174 l 1
 52 -190 82 -206 114 -206 c 3
 170 -206 242 -182 263 -101 c 2
 471 690 l 1
 267 690 l 1
 267 900 l 1
 526 900 l 1
 598 1176 l 2
 632 1306 780 1425 948 1425 c 3
 1020 1425 1155 1410 1207 1296 c 1
 1021 1200 l 1
 1016 1210 984 1215 948 1215 c 3
 880 1215 819 1185 802 1122 c 2
 743 900 l 1
 951 900 l 1
EndSplineSet
Validated: 3073
EndChar

StartChar: dagger
Encoding: 8224 8224 282
Width: 1075
VWidth: 1947
GlyphClass: 2
Flags: W
HStem: 815 209<210 488 747 1024> 1405 20G<610.86 830>
VStem: 238 215<-387 -172> 615 215<1210 1425>
DStem2: 238 -387 453 -387 0.207912 0.978148<44.701 1227.71 1485.99 1850.79>
LayerCount: 2
Fore
SplineSet
210 1024 m 1
 532 1024 l 1
 615 1425 l 1
 830 1425 l 1
 747 1024 l 1
 1068 1024 l 1
 1024 815 l 1
 703 815 l 1
 453 -387 l 1
 238 -387 l 1
 488 815 l 1
 166 815 l 1
 210 1024 l 1
EndSplineSet
Validated: 3073
EndChar

StartChar: daggerdbl
Encoding: 8225 8225 283
Width: 1075
VWidth: 1947
GlyphClass: 2
Flags: W
HStem: 14 210<43 322 580 857> 815 209<210 489 747 1024> 1405 20G<611.81 831>
VStem: 238 215<-387 -172> 616 215<1210 1425>
DStem2: 238 -387 453 -387 0.207912 0.978148<44.701 409.702 668.754 1227.92 1485.99 1850.99>
LayerCount: 2
Fore
SplineSet
210 1024 m 1
 532 1024 l 1
 616 1425 l 1
 831 1425 l 1
 747 1024 l 1
 1068 1024 l 1
 1024 815 l 1
 703 815 l 1
 580 224 l 1
 901 224 l 1
 857 14 l 1
 536 14 l 1
 453 -387 l 1
 238 -387 l 1
 322 14 l 1
 0 14 l 1
 43 224 l 1
 366 224 l 1
 489 815 l 1
 166 815 l 1
 210 1024 l 1
EndSplineSet
Validated: 3073
EndChar

StartChar: trademark
Encoding: 8482 8482 284
Width: 1075
VWidth: 1947
GlyphClass: 2
Flags: W
HStem: 1233 150<295 386 540 638> 1380 20G<670 826.14 1006.33 1172>
VStem: 223 154<466 620> 474 154<466 620> 819 154<466 620>
DStem2: 223 466 377 466 0.207912 0.978148<32.0184 784.129> 474 466 628 466 0.207912 0.978148<32.0184 286.596> 819 466 973 466 0.207912 0.978148<32.0184 213.789 840.802 954.341>
LayerCount: 2
Fore
SplineSet
223 466 m 1xb8
 386 1233 l 1
 263 1233 l 1
 295 1383 l 1
 670 1383 l 1xb8
 674 1400 l 1
 826 1400 l 1
 829 971 l 1
 1015 1400 l 1
 1172 1400 l 1x78
 973 466 l 1
 819 466 l 1
 864 675 l 1
 797 519 l 1
 683 519 l 1
 681 715 l 1
 628 466 l 1
 474 466 l 1
 638 1233 l 1
 540 1233 l 1
 377 466 l 1
 223 466 l 1xb8
EndSplineSet
Validated: 3073
EndChar

StartChar: Ecyrillic
Encoding: 1028 1028 290
Width: 1075
VWidth: 1947
GlyphClass: 2
Flags: W
HStem: -25 210<334.531 589.799> 621 210<377 643> 1215 210<557.904 816.716>
VStem: 89 210<218.05 618.183> 840 210<1089.77 1200.37>
LayerCount: 2
Fore
SplineSet
840 1073 m 1
 826 1215 790 1215 714 1215 c 2
 680 1215 l 2
 560 1215 456 1110 377 831 c 1
 692 831 l 1
 643 621 l 1
 329 621 l 1
 305 502 299 426 299 376 c 3
 299 192 380 185 426 185 c 2
 465 185 l 2
 555 186 624 236 689 362 c 1
 875 266 l 1
 828 175 712 -23 465 -25 c 2
 426 -25 l 2
 334 -25 89 -6 89 376 c 3
 89 463 102 561 125 672 c 2
 145 769 l 2
 202 1044 336 1425 676 1425 c 2
 714 1425 l 2
 769 1425 1020 1425 1050 1091 c 1
 840 1073 l 1
EndSplineSet
Validated: 3073
EndChar

StartChar: Becyrillic
Encoding: 1041 1041 298
Width: 1075
VWidth: 2334
GlyphClass: 2
Flags: W
HStem: -25 210<249 656.772> 650 210<390 741.725> 1190 210<458 997>
VStem: 753 210<327.45 633.344>
DStem2: -9 -25 204.363 -25 0.207912 0.978148<259.052 734.058 948.617 1285.54> 633.132 -25 848.06 -25 0.207912 0.978148<239.503 598.529>
LayerCount: 2
Fore
SplineSet
346 650 m 1
 249 185 l 1
 453 185 l 2
 666 185 686 242 710 333 c 1
 746 506 l 2
 748 517 753 550 753 562 c 3
 753 613 733 630 680 642 c 0
 646 650 626 650 593 650 c 2
 346 650 l 1
593 860 m 2
 647 860 674 859 726 847 c 0
 897 808 963 691 963 562 c 3
 963 529 959 497 952 464 c 2
 916 291 l 1
 897 215 874 125 777 53 c 1
 688 -12 572 -25 453 -25 c 2
 -9 -25 l 1
 288 1400 l 1
 1041 1400 l 1
 997 1190 l 1
 458 1190 l 1
 390 860 l 1
 593 860 l 2
EndSplineSet
Validated: 3073
EndChar

StartChar: Gecyrillic
Encoding: 1043 1043 299
Width: 1075
VWidth: 2334
GlyphClass: 2
Flags: W
HStem: 0 21G<-4 215.155> 1189 211<458 1103>
VStem: -4 215<0 215>
DStem2: -4 0 211 0 0.207912 0.978148<44.701 1259.07>
LayerCount: 2
Fore
SplineSet
211 0 m 1
 -4 0 l 1
 288 1400 l 1
 1144 1400 l 1
 1103 1189 l 1
 458 1189 l 1
 211 0 l 1
EndSplineSet
Validated: 3073
EndChar

StartChar: Decyrillic
Encoding: 1044 1044 300
Width: 1075
VWidth: 1947
GlyphClass: 2
Flags: W
HStem: 0 211<316 663> 1380 20G<734.5 1124>
VStem: -27 159<-162 -93.6932>
DStem2: 90 211 316 211 0.369982 0.929039<83.6159 1034.36> 583.716 -162 797.716 -162 0.207912 0.978148<425.826 1377.03>
LayerCount: 2
Fore
SplineSet
865 1186 m 1
 748 1139 642 1028 603 929 c 2
 316 211 l 1
 663 211 l 1
 865 1186 l 1
407 1007 m 2
 470 1165 627 1333 842 1400 c 1
 1124 1400 l 1
 877 211 l 1
 946 211 l 1
 901 -4 l 1
 811 -162 l 1
 654 -162 l 1
 688 0 l 1
 166 0 l 1
 132 -162 l 1
 -27 -162 l 1
 -51 -7 l 1
 -6 211 l 1
 90 211 l 1
 407 1007 l 2
EndSplineSet
Validated: 3073
EndChar

StartChar: Zhecyrillic
Encoding: 1046 1046 302
Width: 1075
VWidth: 1947
GlyphClass: 2
Flags: W
HStem: 0 21G<-92 160.405 319 538.115 714.915 931> 1380 20G<217 431.684 981.984 1233>
VStem: -92 241<0 241> 217 212<1188 1400> 594 215<1105 1320> 718 213<0 213> 993 240<1160 1400>
DStem2: -92 0 149 0 0.494284 0.8693<119.122 536.995> 429 1400 217 1400 0.132955 -0.991122<0 533.743> 319 0 534 0 0.207912 0.978148<44.701 257.305 971.946 1348.33> 828 664 662 363 0.153287 -0.988182<271.997 639.291> 722 908 828 664 0.48234 0.875984<0 561.698>
LayerCount: 2
Fore
SplineSet
-92 0 m 1xf6
 310 707 l 1
 217 1400 l 1
 429 1400 l 1
 500 871 l 1
 594 1320 l 1
 809 1320 l 1xfa
 722 908 l 1
 993 1400 l 1
 1233 1400 l 1
 828 664 l 1
 931 0 l 1
 718 0 l 1
 662 363 l 1
 577 209 l 1
 534 0 l 1
 319 0 l 1
 371 252 l 1
 356 363 l 1
 149 0 l 1
 -92 0 l 1xf6
EndSplineSet
Validated: 3073
EndChar

StartChar: Zecyrillic
Encoding: 1047 1047 303
Width: 1075
VWidth: 1947
GlyphClass: 2
Flags: W
HStem: -25 210<276.148 623.123> 672 210<444 706.182> 1215 210<510.782 806.046>
VStem: 744 210<329.511 642.348> 820 210<986.193 1204.47>
DStem2: 634.412 -25 848.19 -25 0.207912 0.978148<274.897 569.306>
LayerCount: 2
Fore
SplineSet
744 535 m 3xf0
 744 654 657 672 598 672 c 2
 404 672 l 1
 444 882 l 1
 569 882 l 2
 660 882 788 960 806 1044 c 2
 815 1086 l 2
 818 1101 820 1114 820 1127 c 3
 820 1170 807 1215 711 1215 c 2
 667 1215 l 2
 569 1215 474 1168 430 1101 c 1
 254 1215 l 1
 342 1349 507 1425 667 1425 c 2
 711 1425 l 2
 909 1425 1030 1301 1030 1127 c 3xe8
 1030 1098 1027 1069 1021 1040 c 2
 1012 1000 l 2
 994 921 975 873 865 784 c 1
 932 715 954 623 954 535 c 3
 954 490 948 442 938 394 c 2
 933 374 l 2
 872 74 678 -25 453 -25 c 2
 409 -25 l 2
 336 -25 294 -18 227 10 c 0
 127 53 45 141 40 270 c 1
 250 278 l 1
 252 210 360 185 409 185 c 2
 453 185 l 2
 618 185 696 257 729 420 c 2
 734 440 l 2
 742 477 744 508 744 535 c 3xf0
EndSplineSet
Validated: 3073
EndChar

StartChar: Iicyrillic
Encoding: 1048 1048 304
Width: 1075
VWidth: 1947
GlyphClass: 2
Flags: W
HStem: 0 21G<-4 206.56 641 860.157> 1380 20G<283.829 503 936.463 1147>
VStem: 288 215<1185 1400> 641 215<0 215>
DStem2: -4 0 209.07 0 0.207912 0.978148<592.274 1430.12> 323 536 192 0 0.588561 0.808453<0 558.276> 641 0 856 0 0.207912 0.978148<44.701 882.544>
LayerCount: 2
Fore
SplineSet
-4 0 m 1
 288 1400 l 1
 503 1400 l 1
 323 536 l 1
 951 1400 l 1
 1147 1400 l 1
 856 0 l 1
 641 0 l 1
 821 864 l 1
 192 0 l 1
 -4 0 l 1
EndSplineSet
Validated: 3073
EndChar

StartChar: Elcyrillic
Encoding: 1051 1051 307
Width: 1075
VWidth: 1947
GlyphClass: 2
Flags: W
HStem: 0 21G<-53 185.93 641 860.157> 1190 210<795.013 889>
VStem: -53 230<0 230> 641 215<0 215>
DStem2: -53 0 177 0 0.407395 0.913252<93.7009 1296.69> 641 0 856 0 0.207912 0.978148<44.701 1215.56>
LayerCount: 2
Fore
SplineSet
398 1011 m 2
 445 1115 584 1319 842 1400 c 1
 1147 1400 l 1
 856 0 l 1
 641 0 l 1
 889 1190 l 1
 876 1190 l 1
 765 1149 642 1041 590 925 c 2
 177 0 l 1
 -53 0 l 1
 398 1011 l 2
EndSplineSet
Validated: 3073
EndChar

StartChar: Pecyrillic
Encoding: 1055 1055 311
Width: 1075
VWidth: 1947
GlyphClass: 2
Flags: W
HStem: 0 21G<-4 215.151 641 860.157> 1190 210<458 889>
VStem: -4 215<0 215> 288 859<541 1400> 641 215<0 215>
DStem2: -4 0 211 0 0.207912 0.978148<44.701 1260.05> 641 0 856 0 0.207912 0.978148<44.701 1215.56>
LayerCount: 2
Fore
SplineSet
211 0 m 1xe8
 -4 0 l 1
 288 1400 l 1
 1147 1400 l 1xf0
 856 0 l 1
 641 0 l 1
 889 1190 l 1
 458 1190 l 1
 211 0 l 1xe8
EndSplineSet
Validated: 3073
EndChar

StartChar: Ucyrillic
Encoding: 1059 1059 315
Width: 1075
VWidth: 1947
GlyphClass: 2
Flags: W
HStem: -25 210<162.469 360.368> 1380 20G<277 496.667 938.19 1181>
VStem: 277 215<1185 1400> 948 233<1167 1400>
DStem2: 492 1400 277 1400 0.225703 -0.974196<0 646.922> 404 294 592 198 0.440027 0.897984<-133.284 198.564 530.847 1232.55>
LayerCount: 2
Fore
SplineSet
592 198 m 2
 499 8 358 -24 258 -25 c 2
 224 -25 l 2
 189 -25 152 -20 122 -8 c 2
 88 5 l 1
 162 201 l 1
 192 190 l 2
 203 186 213 185 224 185 c 2
 256 185 l 2
 311 186 358 202 404 294 c 2
 492 472 l 1
 277 1400 l 1
 492 1400 l 1
 639 770 l 1
 948 1400 l 1
 1181 1400 l 1
 592 198 l 2
EndSplineSet
Validated: 3073
EndChar

StartChar: Efcyrillic
Encoding: 1060 1060 316
Width: 1075
VWidth: 1947
GlyphClass: 2
Flags: W
HStem: -24 21G<314 532.22> 1405 20G<611.842 830>
VStem: 49 210<341.811 767.031> 887 210<638.325 1066.01>
DStem2: -79.7268 -24 134.775 -24 0.207912 0.978148<576.99 1072.52> 314 -24 528 -24 0.207912 0.978148<44.4931 119.433 382.606 1147.11 1411.89 1480.13> 702.123 -24 917.476 -24 0.207912 0.978148<450.589 949.165>
LayerCount: 2
Fore
SplineSet
381 298 m 1
 548 1099 l 1
 404 1048 329 899 293 726 c 2
 274 631 l 2
 264 580 259 532 259 492 c 3
 259 369 301 315 381 298 c 1
765 1111 m 1
 597 307 l 1
 728 346 805 463 849 667 c 2
 871 770 l 2
 881 821 887 868 887 909 c 3
 887 1033 845 1092 765 1111 c 1
528 -24 m 1
 314 -24 l 1
 338 93 l 1
 151 132 49 277 49 492 c 3
 49 549 56 609 68 671 c 2
 87 768 l 2
 153 1082 326 1294 595 1324 c 1
 616 1425 l 1
 830 1425 l 1
 808 1317 l 1
 997 1276 1097 1123 1097 909 c 3
 1097 851 1090 790 1077 728 c 2
 1055 623 l 2
 985 292 814 110 551 85 c 1
 528 -24 l 1
EndSplineSet
Validated: 3073
EndChar

StartChar: Tsecyrillic
Encoding: 1062 1062 318
Width: 1075
VWidth: 1947
GlyphClass: 2
Flags: W
HStem: 0 210<255 605> 1380 20G<282.857 502 846.866 1066>
VStem: 287 215<1185 1400> 851 215<1185 1400>
DStem2: -55.5015 -247 157.862 -247 0.207912 0.978148<511.57 1682.22> 507.862 -247 721.862 -247 0.207912 0.978148<511.703 1682.35>
LayerCount: 2
Fore
SplineSet
255 210 m 1
 605 210 l 1
 851 1400 l 1
 1066 1400 l 1
 819 210 l 1
 943 210 l 1
 911 56 l 1
 710 -247 l 1
 534 -131 l 1
 621 0 l 1
 -3 0 l 1
 287 1400 l 1
 502 1400 l 1
 255 210 l 1
EndSplineSet
Validated: 3073
EndChar

StartChar: Checyrillic
Encoding: 1063 1063 319
Width: 1075
VWidth: 1947
GlyphClass: 2
Flags: W
HStem: 0 21G<641 860.171> 407 210<373.235 726> 1380 20G<283.812 503 928.837 1148>
VStem: 152 210<635.548 825.97> 288 215<1185 1400> 641 215<0 215> 933 215<1185 1400>
DStem2: -7.68291 0 207.244 0 0.207912 0.978148<767.021 1430.88> 641 0 856 0 0.207912 0.978148<44.701 415.779 630.338 1430.12>
LayerCount: 2
Fore
SplineSet
856 0 m 1xf6
 641 0 l 1
 726 407 l 1
 523 407 l 2
 462 407 446 409 396 419 c 0
 230 453 152 565 152 705 c 3xf6
 152 737 156 769 163 803 c 2
 288 1400 l 1
 503 1400 l 1xee
 369 761 l 2
 367 750 362 717 362 705 c 3
 362 662 373 637 438 624 c 0
 471 617 477 617 523 617 c 2
 770 617 l 1
 933 1400 l 1
 1148 1400 l 1
 856 0 l 1xf6
EndSplineSet
Validated: 3073
EndChar

StartChar: Shacyrillic
Encoding: 1064 1064 320
Width: 1075
VWidth: 1947
GlyphClass: 2
Flags: W
HStem: -0 210<198 364 578 744> 1380 20G<224.871 444 985.866 1205>
VStem: -60 974<0 974> 229 215<1185 1400> 559 215<937 1152> 990 215<1185 1400>
DStem2: -60 0 153.363 0 0.207912 0.978148<259.052 1429.49> 319.363 0 533.363 0 0.207912 0.978148<259.185 1176.65> 699.363 0 914 0 0.207912 0.978148<214.692 1429.83>
LayerCount: 2
Fore
SplineSet
578 210 m 1xdc
 744 210 l 1
 990 1400 l 1
 1205 1400 l 1
 914 0 l 1
 -60 -0 l 1xe4
 229 1400 l 1
 444 1400 l 1
 198 210 l 1
 364 210 l 1
 559 1152 l 1
 774 1152 l 1
 578 210 l 1xdc
EndSplineSet
Validated: 3073
EndChar

StartChar: Shchacyrillic
Encoding: 1065 1065 321
Width: 1075
VWidth: 1947
GlyphClass: 2
Flags: W
HStem: 0 210<198 334 549 655> 1380 20G<222.9 442 924.899 1144>
VStem: 227 215<1185 1400> 526 215<937 1152> 929 215<1185 1400>
DStem2: -112.501 -247 100.862 -247 0.207912 0.978148<511.57 1681.6> 236.862 -247 451.862 -247 0.207912 0.978148<511.911 1428.54> 587.862 -247 802.649 -247 0.207912 0.978148<512.889 1681.94>
LayerCount: 2
Fore
SplineSet
655 0 m 1
 -60 0 l 1
 227 1400 l 1
 442 1400 l 1
 198 210 l 1
 334 210 l 1
 526 1152 l 1
 741 1152 l 1
 549 210 l 1
 685 210 l 1
 929 1400 l 1
 1144 1400 l 1
 900 211 l 1
 980 211 l 1
 949 65 l 1
 744 -247 l 1
 568 -131 l 1
 655 0 l 1
EndSplineSet
Validated: 3073
EndChar

StartChar: Hardsigncyrillic
Encoding: 1066 1066 322
Width: 1075
VWidth: 1947
GlyphClass: 2
Flags: W
HStem: 0 210<429 664.051> 610 210<555 736.086> 1380 20G<246.763 675>
VStem: 251 424<976 1400> 745 210<312.241 602.618>
DStem2: 171 0 384.363 0 0.207912 0.978148<259.052 667.568 881.919 1215.14> 639.692 0 855.045 0 0.207912 0.978148<238.521 531.752>
LayerCount: 2
Fore
SplineSet
512 610 m 1
 429 210 l 1
 529 210 l 2
 641 210 693 252 716 359 c 2
 739 467 l 2
 743 488 745 506 745 522 c 3
 745 586 720 610 655 610 c 2
 512 610 l 1
655 820 m 2
 839 820 955 701 955 522 c 3
 955 490 952 456 945 423 c 2
 922 315 l 2
 857 11 609 0 529 0 c 2
 171 0 l 1
 417 1190 l 1
 375 1190 l 1
 251 961 l 1
 158 961 l 1
 251 1400 l 1
 675 1400 l 1
 555 820 l 1
 655 820 l 2
EndSplineSet
Validated: 3073
EndChar

StartChar: Yericyrillic
Encoding: 1067 1067 323
Width: 1075
VWidth: 1947
GlyphClass: 2
Flags: W
HStem: 0 211<222 372.754> 660 208<360 450.921> 1380 20G<252.8 472 966.886 1186>
VStem: 257 215<1185 1400> 466 210<457.921 645> 683 215<0 215> 971 215<1185 1400>
DStem2: -37 0 177.151 0 0.207912 0.978148<260.238 725.873 931.573 1430.53> 350.905 0 565.832 0 0.207912 0.978148<241.681 584.775> 683 0 898 0 0.207912 0.978148<44.701 1429.29>
LayerCount: 2
Fore
SplineSet
360 868 m 1xf6
 547 860 676 753 676 574 c 3xee
 676 541 672 509 665 474 c 2
 633 316 l 2
 617 239 591 150 494 78 c 1
 405 13 289 0 170 0 c 2
 -37 0 l 1
 257 1400 l 1
 472 1400 l 1
 360 868 l 1xf6
316 660 m 1
 222 211 l 1
 381 219 412 282 427 358 c 2
 459 516 l 2
 461 527 466 561 466 574 c 3
 466 641 426 656 316 660 c 1
898 0 m 1
 683 0 l 1
 971 1400 l 1
 1186 1400 l 1
 898 0 l 1
EndSplineSet
Validated: 3073
EndChar

StartChar: Softsigncyrillic
Encoding: 1068 1068 324
Width: 1075
VWidth: 1947
GlyphClass: 2
Flags: W
HStem: 0 210<255 662.772> 610 210<382 734.765> 1380 20G<283.843 503>
VStem: 288 215<1185 1400> 746 210<307.735 593.711>
DStem2: -3 0 210.363 0 0.207912 0.978148<259.052 667.568 882.127 1429.91> 639.692 0 855.045 0 0.207912 0.978148<239.251 534.041>
LayerCount: 2
Fore
SplineSet
338 610 m 1
 255 210 l 1
 459 210 l 2
 666 210 696 267 716 359 c 2
 739 467 l 2
 741 478 746 511 746 524 c 3
 746 566 735 590 670 603 c 0
 637 610 624 610 585 610 c 2
 338 610 l 1
585 820 m 2
 637 820 662 818 712 808 c 0
 878 774 956 663 956 524 c 3
 956 491 952 457 945 423 c 2
 922 315 l 2
 906 241 880 151 783 78 c 1
 694 13 578 0 459 0 c 2
 -3 0 l 1
 288 1400 l 1
 503 1400 l 1
 382 820 l 1
 585 820 l 2
EndSplineSet
Validated: 3073
EndChar

StartChar: Ereversedcyrillic
Encoding: 1069 1069 325
Width: 1075
VWidth: 1947
GlyphClass: 2
Flags: W
HStem: -25 210<337.1 581.623> 651 210<527 788> 1028 21G<407.13 482> 1215 210<557.658 811.676>
VStem: 95 210<215.382 306.365> 842 210<863.615 1189.16>
LayerCount: 2
Fore
SplineSet
305 325 m 1
 314 264 333 185 431 185 c 2
 455 185 l 2
 587 185 706 289 788 651 c 1
 487 651 l 1
 527 861 l 1
 829 860 l 1
 840 932 842 986 842 1024 c 3
 842 1160 815 1215 709 1215 c 2
 690 1215 l 2
 593 1215 516 1168 448 1028 c 1
 260 1120 l 1
 366 1338 518 1425 690 1425 c 2
 709 1425 l 2
 808 1425 954 1394 1019 1228 c 0
 1049 1152 1052 1105 1052 1024 c 27
 1052 896 1046 857 1013 697 c 2
 1005 658 l 2
 947 376 822 -25 455 -25 c 2
 431 -25 l 2
 184 -25 117 145 95 305 c 1
 305 325 l 1
EndSplineSet
Validated: 3073
EndChar

StartChar: IUcyrillic
Encoding: 1070 1070 326
Width: 1075
VWidth: 1947
GlyphClass: 2
Flags: W
HStem: -25 210<570.018 687.514> 0 21G<-62 157.168> 1215 210<762.727 880.629> 1380 20G<226.814 446>
VStem: -62 215<0 215> 231 215<1185 1400> 342 210<186.083 593.164> 898 211<728.094 1210.73>
DStem2: -67.3139 -25 147.686 -25 0.207912 0.978148<70.2595 678.038 892.598 1455.88> 234.355 -25 449.707 -25 0.207912 0.978148<471.943 633.822 848.173 1250.84> 693.78 -25 909.132 -25 0.207912 0.978148<286.383 1056.65>
LayerCount: 2
Fore
SplineSet
854 1215 m 3xab
 777 1215 692 1137 632 844 c 2
 563 508 l 2
 556 472 552 430 552 388 c 3
 552 285 572 185 596 185 c 3
 678 185 754 257 816 550 c 2
 887 887 l 2
 895 923 898 968 898 1014 c 3
 898 1114 881 1215 854 1215 c 3xab
1093 843 m 2
 1022 506 l 2
 948 157 750 -25 596 -25 c 3
 407 -25 342 203 342 398 c 3xab
 342 454 348 508 357 552 c 2
 366 595 l 1
 277 595 l 1
 153 0 l 1
 -62 0 l 1
 231 1400 l 1
 446 1400 l 1x5d
 321 805 l 1
 409 805 l 1
 426 886 l 2
 529 1378 747 1425 854 1425 c 3
 1043 1425 1109 1201 1109 1004 c 3
 1109 946 1103 890 1093 843 c 2
EndSplineSet
Validated: 3073
EndChar

StartChar: IAcyrillic
Encoding: 1071 1071 327
Width: 1075
VWidth: 1947
GlyphClass: 2
Flags: W
HStem: 0 21G<-68 208.862 641 860.157> 580 210<625 762> 1190 210<488.297 889>
VStem: -68 262<0 262> 187 210<809.113 1085.11> 641 215<0 215>
DStem2: -68 0 194 0 0.596397 0.80269<156.256 756.208> -9.11708 0 206.235 0 0.207912 0.978148<945.758 1232.1> 641 0 856 0 0.207912 0.978148<44.701 592.483 807.042 1215.56>
LayerCount: 2
Fore
SplineSet
397 880 m 3xec
 397 790 504 790 559 790 c 2
 806 790 l 1
 889 1190 l 1
 685 1190 l 2
 488 1190 448 1133 428 1041 c 2
 402 921 l 2
 399 906 397 892 397 880 c 3xec
762 580 m 1
 625 580 l 1
 194 0 l 1
 -68 0 l 1xf4
 383 607 l 1
 238 658 187 773 187 880 c 3
 187 909 190 937 196 965 c 2
 222 1085 l 1
 270 1322 441 1400 685 1400 c 2
 1147 1400 l 1
 856 0 l 1
 641 0 l 1
 762 580 l 1
EndSplineSet
Validated: 3073
EndChar

StartChar: becyrillic
Encoding: 1073 1073 329
Width: 1075
VWidth: 1947
GlyphClass: 2
Flags: W
HStem: -25 210<327.387 607.671> 1190 210<645 998>
VStem: 78 210<222.78 583.691> 781 210<453.562 817.842>
DStem2: -10.5392 -25 204.388 -25 0.207912 0.978148<411.301 859.013> 634.461 -25 849.388 -25 0.207912 0.978148<290.355 753.485>
LayerCount: 2
Fore
SplineSet
781 716 m 3
 781 802 762 834 632 839 c 2
 611 839 l 2
 449 839 367 746 331 576 c 2
 296 406 l 2
 290 378 288 353 288 331 c 3
 288 213 384 185 432 185 c 2
 453 185 l 2
 616 185 699 277 735 448 c 2
 770 618 l 2
 774 637 781 677 781 716 c 3
313 1400 m 1
 1040 1400 l 1
 998 1190 l 1
 645 1190 l 1
 873 990 l 2
 915 951 991 876 991 716 c 3
 991 671 986 625 976 576 c 2
 941 406 l 2
 883 126 706 -25 453 -25 c 2
 432 -25 l 2
 382 -22 201 0 123 141 c 0
 92 198 78 263 78 331 c 3
 78 369 82 408 90 448 c 2
 125 618 l 2
 174 853 306 999 500 1038 c 1
 280 1239 l 1
 313 1400 l 1
EndSplineSet
Validated: 3073
EndChar

StartChar: vecyrillic
Encoding: 1074 1074 330
Width: 1075
VWidth: 2334
GlyphClass: 2
Flags: W
HStem: 0 210<271.062 669.069> 1214 210<465.578 722.004>
VStem: 59 210<223.183 441.938> 739 210<270.514 427.587 1034.3 1207.69>
DStem2: -3.7957 0 211.132 0 0.207912 0.978148<306.569 498.292 722.07 1282.92>
LayerCount: 2
Fore
SplineSet
350 663 m 1
 469 711 679 931 711 1086 c 2
 724 1149 l 2
 726 1157 728 1176 728 1181 c 3
 728 1208 709 1214 629 1214 c 2
 592 1214 l 2
 498 1214 462 1197 448 1130 c 2
 350 663 l 1
269 255 m 3
 269 221 354 210 436 210 c 2
 481 210 l 2
 707 210 739 310 739 377 c 3
 739 417 705 444 573 444 c 2
 304 444 l 1
 280 324 l 2
 273 288 269 264 269 255 c 3
949 377 m 3
 949 287 909 0 481 0 c 2
 436 0 l 2
 384 0 330 3 265 23 c 0
 114 69 59 172 59 271 c 3
 59 290 64 318 74 366 c 2
 242 1174 l 2
 262 1272 308 1424 592 1424 c 2
 629 1424 l 2
 823 1424 940 1334 940 1184 c 3
 940 1163 938 1141 933 1118 c 2
 917 1042 l 2
 888 903 784 760 674 647 c 1
 881 617 949 491 949 377 c 3
EndSplineSet
Validated: 3073
EndChar

StartChar: gecyrillic
Encoding: 1075 1075 331
Width: 1075
VWidth: 1947
GlyphClass: 2
Flags: W
HStem: -25 210<239.788 599.147> 839 210<429.006 769.159>
VStem: 20 210<206.502 329.591> 772 210<733.226 829.067>
DStem2: 233 549 305 351 0.937868 0.346991<-89.8724 588.817>
LayerCount: 2
Fore
SplineSet
772 802 m 3
 772 813 762 839 598 839 c 2
 577 839 l 2
 496 839 393 793 340 718 c 1
 168 839 l 1
 254 962 418 1049 577 1049 c 2
 598 1049 l 2
 753 1049 875 1030 943 933 c 0
 961 907 982 869 982 802 c 3
 982 770 977 745 971 722 c 1
 950 618 864 560 772 526 c 2
 305 351 l 2
 285 343 230 300 230 251 c 3
 230 201 348 185 398 185 c 2
 453 185 l 2
 564 185 699 277 716 358 c 1
 922 316 l 1
 884 134 661 -25 453 -25 c 2
 398 -25 l 2
 337 -25 275 -14 214 5 c 0
 42 60 20 189 20 251 c 3
 20 336 52 482 233 549 c 2
 706 724 l 2
 760 744 772 765 772 802 c 3
EndSplineSet
Validated: 3073
EndChar

StartChar: decyrillic
Encoding: 1076 1076 332
Width: 1075
VWidth: 1947
GlyphClass: 2
Flags: W
HStem: -25 210<318.355 607.671> 839 210<456.174 763.652> 1190 210<464.456 796.405>
VStem: 78 210<211.161 462.677> 844 210<1002.41 1144.34>
DStem2: -11.6739 -25 204.388 -25 0.207912 0.978148<411.537 859.249> 634.461 -25 849.388 -25 0.207912 0.978148<290.355 753.692>
LayerCount: 2
Fore
SplineSet
632 1049 m 2
 696 1049 760 1049 844 1001 c 1
 844 1002 844 1003 844 1004 c 0
 844 1088 810 1190 703 1190 c 2
 685 1190 l 2
 544 1189 508 1176 412 1114 c 1
 298 1290 l 1
 430 1375 506 1400 685 1400 c 2
 709 1400 l 2
 930 1400 1054 1190 1054 1004 c 0
 1054 970 1051 937 1044 904 c 2
 941 406 l 2
 883 126 706 -25 453 -25 c 2
 432 -25 l 2
 378 -25 213 -23 123 141 c 0
 92 198 78 263 78 331 c 3
 78 369 82 408 90 448 c 2
 125 618 l 2
 183 895 357 1049 611 1049 c 2
 632 1049 l 2
782 716 m 0
 782 824 732 839 632 839 c 2
 611 839 l 2
 449 839 367 746 331 576 c 2
 296 406 l 2
 290 378 288 353 288 331 c 3
 288 186 381 185 432 185 c 2
 453 185 l 2
 616 185 699 277 735 448 c 2
 770 618 l 2
 774 637 782 677 782 716 c 0
EndSplineSet
Validated: 3073
EndChar

StartChar: zhecyrillic
Encoding: 1078 1078 334
Width: 1075
VWidth: 1947
GlyphClass: 2
Flags: W
HStem: 0 21G<-66 195.697 318 536.286 681.481 901> 1004 20G<527.835 747>
VStem: -66 249<0 249> 532 215<809 1024> 686 215<0 215>
DStem2: -66 0 183 0 0.536553 0.843867<133.602 419.066> 309 1079 107 1019 0.28192 -0.959438<0.618401 487.64> 318 0 532 0 0.207912 0.978148<44.4931 178.869 713.872 1046.12> 670 655 796 470 0.578231 0.815873<0 556.754>
LayerCount: 2
Fore
SplineSet
-66 0 m 1xf0
 257 508 l 1
 107 1019 l 1
 309 1079 l 1
 446 611 l 1
 532 1024 l 1
 747 1024 l 1xf0
 670 655 l 1
 991 1110 l 1
 1163 988 l 1
 796 470 l 1
 901 0 l 1
 686 0 l 1xe8
 632 239 l 1
 562 140 l 1
 532 0 l 1
 318 0 l 1
 355 175 l 1
 336 241 l 1
 183 0 l 1
 -66 0 l 1xf0
EndSplineSet
Validated: 3073
EndChar

StartChar: zecyrillic
Encoding: 1079 1079 335
Width: 1075
VWidth: 1947
GlyphClass: 2
Flags: W
HStem: -25 210<283.305 621.878> 455 210<448 703.844> 838 210<431.817 752.627>
VStem: 717 210<269.418 434.1> 756 210<716.602 824.266>
LayerCount: 2
Fore
SplineSet
756 799 m 3xe8
 756 830 669 838 632 838 c 2
 588 838 l 2
 502 838 401 799 352 724 c 1
 176 838 l 1
 263 972 428 1048 588 1048 c 2
 632 1048 l 2
 761 1048 966 964 966 802 c 3xe8
 966 718 959 658 846 566 c 1
 896 518 927 452 927 374 c 3
 927 351 924 329 921 314 c 2
 917 293 l 2
 885 135 716 -25 453 -25 c 2
 432 -25 l 2
 148 -12 61 137 57 253 c 1
 267 261 l 1
 267 215 352 189 432 185 c 2
 453 185 l 2
 637 185 717 295 717 374 c 3xf0
 717 444 615 455 553 455 c 2
 408 455 l 1
 448 665 l 1
 534 665 l 2
 637 665 738 704 753 778 c 0
 755 788 756 799 756 799 c 3xe8
EndSplineSet
Validated: 3073
EndChar

StartChar: iicyrillic
Encoding: 1080 1080 336
Width: 1075
VWidth: 1947
GlyphClass: 2
Flags: W
HStem: -25 210<280.608 548.586> 0 21G<641 858.199> 1004 20G<204.856 424 849.838 1069>
VStem: 59 210<197.942 381.483> 209 215<809 1024> 854 215<809 1024>
DStem2: -10.4092 -25 204.518 -25 0.207912 0.978148<333.689 1071.69> 635.686 -25 848.686 -25 0.207912 0.978148<69.8437 71.4464 362.516 1071.47>
LayerCount: 2
Fore
SplineSet
409 185 m 2xb4
 430 185 l 2xb4
 547 185 715 357 736 457 c 2
 854 1024 l 1
 1069 1024 l 1
 854 0 l 1
 641 0 l 1x74
 650 45 l 1
 581 2 506 -25 430 -25 c 2
 409 -25 l 2
 174 -25 59 77 59 253 c 3xb4
 59 285 63 321 71 358 c 2
 209 1024 l 1
 424 1024 l 1xac
 277 316 l 2
 272 292 269 272 269 256 c 3
 269 194 310 185 409 185 c 2xb4
EndSplineSet
Validated: 3073
EndChar

StartChar: kacyrillic
Encoding: 1082 1082 338
Width: 1075
VWidth: 1947
GlyphClass: 2
Flags: W
HStem: 0 21G<-4 213.425 580.5 905> 1004 20G<204.84 424>
VStem: 209 215<809 1024>
DStem2: -4 0 209 0 0.207912 0.978148<44.2852 160.014 635.998 1045.91> 929 1070 899 795 0.823392 0.567473<-531.219 -1.58002>
LayerCount: 2
Fore
SplineSet
209 0 m 1
 -4 0 l 1
 209 1024 l 1
 424 1024 l 1
 331 579 l 1
 462 720 629 863 781 968 c 2
 929 1070 l 1
 1047 896 l 1
 899 795 l 2
 805 731 709 652 621 571 c 1
 626 493 l 2
 633 381 718 200 779 135 c 2
 905 0 l 1
 617 0 l 1
 544 83 467 238 433 377 c 1
 410 351 390 325 372 301 c 2
 234 113 l 1
 209 0 l 1
EndSplineSet
Validated: 3073
EndChar

StartChar: elcyrillic
Encoding: 1083 1083 339
Width: 1075
VWidth: 1947
GlyphClass: 2
Flags: W
HStem: 0 21G<-53 192.143 641 860.16> 813 211<708.31 811>
VStem: -53 235<0 235> 641 215<0 215>
DStem2: -53 0 182 0 0.452692 0.891667<106.383 897.943> 641 0 856 0 0.207912 0.978148<44.701 830.579>
LayerCount: 2
Fore
SplineSet
277 650 m 2
 346 786 521 948 764 1024 c 1
 1069 1024 l 1
 856 0 l 1
 641 0 l 1
 811 813 l 1
 797 813 l 1
 679 771 520 667 465 558 c 2
 182 0 l 1
 -53 0 l 1
 277 650 l 2
EndSplineSet
Validated: 3073
EndChar

StartChar: emcyrillic
Encoding: 1084 1084 340
Width: 1075
VWidth: 1947
GlyphClass: 2
Flags: W
HStem: 0 21G<-99 127.029 735 948.363> 1004 20G<203.965 429.162 828.455 1067>
VStem: -99 220<0 220> 735 211<0 211>
DStem2: -99 0 121 0 0.288891 0.957362<63.5561 642.179> 735 0 946 0 0.117348 0.993091<24.7604 534.724>
LayerCount: 2
Fore
SplineSet
121 0 m 1
 -99 0 l 1
 210 1024 l 1
 426 1024 l 1
 515 461 l 1
 840 1024 l 1
 1067 1024 l 1
 946 0 l 1
 735 0 l 1
 798 531 l 1
 552 105 l 1
 358 105 l 1
 288 554 l 1
 121 0 l 1
EndSplineSet
Validated: 3073
EndChar

StartChar: encyrillic
Encoding: 1085 1085 341
Width: 1075
VWidth: 1947
GlyphClass: 2
Flags: W
HStem: 0 21G<-4 214.219 642 859.199> 365 210<331 718> 1004 20G<205.82 425 850.813 1070>
VStem: -4 214<0 214> 210 215<809 1024> 642 213<0 213> 855 215<809 1024>
DStem2: -4 0 210 0 0.207912 0.978148<44.4931 417.526 632.085 1046.12> 642 0 855 0 0.207912 0.978148<44.2852 372.825 587.176 1045.91>
LayerCount: 2
Fore
SplineSet
210 0 m 1
 -4 0 l 1
 210 1024 l 1
 425 1024 l 1
 331 575 l 1
 761 575 l 1
 855 1024 l 1
 1070 1024 l 1
 855 0 l 1
 642 0 l 1
 718 365 l 1
 287 365 l 1
 210 0 l 1
EndSplineSet
Validated: 3073
EndChar

StartChar: tecyrillic
Encoding: 1090 1090 346
Width: 1075
VWidth: 1947
GlyphClass: 2
Flags: W
HStem: 0 21G<-50 169.214 318 537.19 687 906.18> 839 210<366.889 489.035 737.721 849.927>
VStem: -50 215<0 215> 318 215<0 215> 687 215<0 215> 856 214<594.922 906.5>
DStem2: -50 0 165 0 0.207912 0.978148<44.701 882.361> 318 0 533 0 0.207912 0.978148<44.701 841.725> 687 0 902 0 0.207912 0.978148<44.701 828.885>
LayerCount: 2
Fore
SplineSet
835 1049 m 2xf4
 997 1049 1070 970 1070 843 c 3xf4
 1070 816 1066 787 1060 756 c 2
 902 0 l 1
 687 0 l 1xf8
 850 767 l 2
 854 786 856 801 856 812 c 3
 856 832 849 839 835 839 c 2
 823 839 l 2
 746 839 688 741 674 673 c 2
 533 0 l 1
 318 0 l 1
 484 783 l 2
 488 803 491 819 491 824 c 3
 491 837 484 839 466 839 c 2
 454 839 l 2
 381 839 323 750 311 693 c 2
 165 0 l 1
 -50 0 l 1
 171 1053 l 1
 386 1053 l 1
 383 1040 l 1
 412 1049 436 1049 454 1049 c 2
 466 1049 l 2
 526 1049 599 1037 647 989 c 1
 726 1049 800 1049 823 1049 c 2
 835 1049 l 2xf4
EndSplineSet
Validated: 3073
EndChar

StartChar: efcyrillic
Encoding: 1092 1092 348
Width: 1075
VWidth: 1947
GlyphClass: 2
Flags: W
HStem: -384 21G<238 457.144> -22 222<257.951 315 575 665.163> 1029 20G<532.775 752>
VStem: 23 210<224.161 553.409> 238 215<-384 -169> 815 210<388.327 725.281>
DStem2: -144.586 -384 70.3413 -384 0.207912 0.978148<786.902 1121.15> 238 -384 453 -384 0.207912 0.978148<44.701 375.967 641.304 1163.59 1428.72 1463.85> 615.052 -384 829.979 -384 0.207912 0.978148<683.175 1003.9>
LayerCount: 2
Fore
SplineSet
358 190 m 1
 476 755 l 1
 360 718 282 619 252 472 c 2
 244 433 l 2
 237 397 233 365 233 339 c 3
 233 246 273 201 358 190 c 1
693 765 m 1
 575 200 l 1
 695 234 768 328 797 472 c 2
 806 516 l 2
 812 547 815 576 815 601 c 3
 815 686 785 747 693 765 c 1
315 -16 m 1
 160 10 23 120 23 339 c 3
 23 382 28 427 38 475 c 2
 46 514 l 2
 101 784 282 953 522 978 c 1
 537 1049 l 1
 752 1049 l 1
 735 971 l 1
 927 932 1025 784 1025 601 c 3
 1025 560 1021 517 1012 474 c 2
 1003 430 l 2
 946 153 766 1 528 -22 c 1
 453 -384 l 1
 238 -384 l 1
 315 -16 l 1
EndSplineSet
Validated: 3073
EndChar

StartChar: tsecyrillic
Encoding: 1094 1094 350
Width: 1075
VWidth: 1947
GlyphClass: 2
Flags: W
HStem: -25 210<277.126 548.586> 1004 20G<204.856 424 849.845 1069>
VStem: 59 209<192.923 381.063> 209 215<809 1024> 695 210<-65.8712 58.1793> 854 215<809 1024>
DStem2: -73.5385 -322 141.389 -322 0.207912 0.978148<630.316 1375.33> 570.631 -322 786.137 -322 0.207912 0.978148<658.932 1375.5>
LayerCount: 2
Fore
SplineSet
409 185 m 2xe0
 430 185 l 2
 547 185 715 355 736 456 c 2
 854 1024 l 1
 1069 1024 l 1xe4
 882 129 l 1
 896 99 905 63 905 19 c 3
 905 -57 884 -210 655 -322 c 1
 563 -134 l 1
 637 -98 695 -25 695 19 c 3
 695 34 689 46 672 59 c 1
 598 8 514 -25 430 -25 c 2
 409 -25 l 2
 165 -25 59 74 59 247 c 3xe8
 59 281 63 318 71 358 c 2
 209 1024 l 1
 424 1024 l 1xd0
 277 316 l 2
 271 288 268 266 268 249 c 3
 268 195 302 185 409 185 c 2xe0
EndSplineSet
Validated: 3073
EndChar

StartChar: checyrillic
Encoding: 1095 1095 351
Width: 1075
VWidth: 1947
GlyphClass: 2
Flags: W
HStem: 0 21G<642 861.141> 322 210<358.96 612.051> 1004 20G<205.817 425 850.833 1069>
VStem: 135 210<549.295 738.362> 210 215<809 1024> 642 215<0 215>
DStem2: -6.6156 0 208.312 0 0.207912 0.978148<679.314 1046.66> 642 0 857 0 0.207912 0.978148<44.701 404.395 714.13 1045.91>
LayerCount: 2
Fore
SplineSet
482 532 m 2xf4
 503 532 l 2
 623 532 795 736 815 832 c 2
 855 1024 l 1
 1069 1024 l 1
 857 0 l 1
 642 0 l 1
 724 396 l 1
 655 351 579 322 503 322 c 2
 482 322 l 2
 260 322 135 430 135 615 c 3xf4
 135 647 138 682 146 718 c 2
 210 1024 l 1
 425 1024 l 1xec
 352 676 l 2
 347 654 345 635 345 619 c 3
 345 545 394 532 482 532 c 2xf4
EndSplineSet
Validated: 3073
EndChar

StartChar: shacyrillic
Encoding: 1096 1096 352
Width: 1075
VWidth: 1947
GlyphClass: 2
Flags: W
HStem: -25 210<214.548 327.907 583.375 694.145> 1004 20G<158.847 378 527.852 747 895.842 1115>
VStem: -4 216<119.5 432.594> 163 215<809 1024> 532 215<809 1024> 900 215<809 1024>
DStem2: -56.2791 -25 158.146 -25 0.207912 0.978148<284.288 1071.67> 312.504 -25 527.996 -25 0.207912 0.978148<282.331 1071.71> 682 -25 896 -25 0.207912 0.978148<248.722 1071.4>
LayerCount: 2
Fore
SplineSet
230 -25 m 2xec
 62 -25 -4 59 -4 180 c 3xec
 -4 208 -1 237 6 268 c 2
 163 1024 l 1
 378 1024 l 1xdc
 220 266 l 2
 215 240 212 221 212 208 c 3
 212 192 217 185 230 185 c 2
 242 185 l 2
 321 185 380 285 392 349 c 2
 532 1024 l 1
 747 1024 l 1
 589 262 l 2
 584 236 581 218 581 206 c 3
 581 190 586 185 599 185 c 2
 610 185 l 2
 677 185 746 284 758 341 c 2
 900 1024 l 1
 1115 1024 l 1
 896 -25 l 1
 682 -25 l 1
 684 -15 l 1
 662 -24 623 -25 610 -25 c 2
 599 -25 l 2
 532 -25 469 -11 421 37 c 1
 338 -22 255 -25 242 -25 c 2
 230 -25 l 2xec
EndSplineSet
Validated: 3073
EndChar

StartChar: shchacyrillic
Encoding: 1097 1097 353
Width: 1075
VWidth: 1947
GlyphClass: 2
Flags: W
HStem: -25 210<215.164 329.26 582.745 694.208> 1004 20G<158.847 378 527.858 747 895.853 1115>
VStem: -4 218<115 433.375> 163 215<809 1024> 532 215<809 1024> 900 215<809 1024>
DStem2: -119.408 -322 96.5916 -322 0.207912 0.978148<589.316 1375.3> 249.587 -322 465.442 -322 0.207912 0.978148<589.109 1375.3> 617.437 -322 833.137 -322 0.207912 0.978148<548.77 1375.33>
LayerCount: 2
Fore
SplineSet
230 -25 m 2xec
 69 -25 -4 51 -4 179 c 3xec
 -4 206 -1 236 6 268 c 2
 163 1024 l 1
 378 1024 l 1xdc
 222 268 l 2
 216 241 214 222 214 209 c 3
 214 191 219 185 230 185 c 2
 242 185 l 2
 320 185 378 282 392 348 c 2
 532 1024 l 1
 747 1024 l 1
 590 264 l 2
 585 240 582 222 582 209 c 3
 582 192 587 185 599 185 c 2
 610 185 l 2
 689 195 747 284 759 344 c 2
 900 1024 l 1
 1115 1024 l 1
 929 129 l 1
 944 105 950 53 950 4 c 27
 950 -156 747 -296 701 -322 c 1
 609 -134 l 1
 620 -130 731 -82 739 6 c 1
 706 -18 684 -25 610 -25 c 2
 599 -25 l 2
 529 -25 467 -8 422 37 c 1
 347 -23 245 -25 242 -25 c 2
 230 -25 l 2xec
EndSplineSet
Validated: 3073
EndChar

StartChar: hardsigncyrillic
Encoding: 1098 1098 354
Width: 1075
VWidth: 1947
GlyphClass: 2
Flags: W
HStem: 0 209<428 649.252> 456 210<523 703.064>
VStem: 718 211<265.059 435.106>
DStem2: 170 0 383.576 0 0.207912 0.978148<258.074 510.488 724.839 818.218>
LayerCount: 2
Fore
SplineSet
553 456 m 2
 480 456 l 1
 428 209 l 1
 458 209 l 2
 504 209 679 215 706 313 c 2
 715 345 l 2
 717 353 718 370 718 375 c 3
 718 423 667 456 553 456 c 2
553 666 m 2
 614 666 686 660 773 612 c 0
 845 573 929 480 929 369 c 3
 929 351 927 333 922 315 c 2
 912 269 l 2
 899 211 830 0 458 0 c 2
 170 0 l 1
 337 801 l 1
 296 801 l 1
 172 572 l 1
 82 572 l 1
 173 1011 l 1
 595 1011 l 1
 523 666 l 1
 553 666 l 2
EndSplineSet
Validated: 3073
EndChar

StartChar: yericyrillic
Encoding: 1099 1099 355
Width: 1075
VWidth: 1947
GlyphClass: 2
Flags: W
HStem: 0 210<216 395.26> 456 210<311 442.009> 1004 20G<165.859 385 888.879 1108>
VStem: 170 215<809 1024> 448 209<261.279 442.608> 682 215<0 215> 893 215<809 1024>
DStem2: -42 0 171.363 0 0.207912 0.978148<259.052 510.28 724.839 1045.7> 682 0 897 0 0.207912 0.978148<44.701 1045.49>
LayerCount: 2
Fore
SplineSet
267 456 m 1xf8
 216 210 l 1
 301 212 416 227 435 313 c 2
 445 358 l 2
 447 368 448 377 448 385 c 3
 448 445 390 456 305 456 c 2
 267 456 l 1xf8
311 666 m 1
 366 665 420 656 471 635 c 0
 599 583 657 484 657 376 c 3
 657 356 655 336 651 316 c 2
 641 269 l 2
 624 190 582 131 525 88 c 0
 428 15 314 0 211 0 c 2
 -42 0 l 1
 170 1024 l 1
 385 1024 l 1
 311 666 l 1
682 0 m 5xfc
 893 1024 l 5
 1108 1024 l 5xfa
 897 0 l 5
 682 0 l 5xfc
EndSplineSet
Validated: 3073
EndChar

StartChar: softsigncyrillic
Encoding: 1100 1100 356
Width: 1075
VWidth: 1947
GlyphClass: 2
Flags: W
HStem: 0 210<255 657.75> 456 210<350 701.105> 1029 20G<210.844 430>
VStem: 215 215<834 1049> 717 211<313 432.258>
DStem2: -3 0 210.363 0 0.207912 0.978148<259.052 510.28 724.839 1071.4>
LayerCount: 2
Fore
SplineSet
350 666 m 1
 553 666 l 2
 641 666 715 644 773 612 c 0
 874 556 928 462 928 365 c 3
 928 344 925 322 920 301 c 2
 912 269 l 2
 894 197 858 142 806 101 c 0
 693 11 546 0 459 0 c 2
 -3 0 l 1
 215 1049 l 1
 430 1049 l 1
 350 666 l 1
553 456 m 2
 306 456 l 1
 255 210 l 1
 459 210 l 2
 664 210 698 283 706 313 c 2
 714 345 l 2
 716 354 717 362 717 370 c 3
 717 439 632 456 553 456 c 2
EndSplineSet
Validated: 3073
EndChar

StartChar: ereversedcyrillic
Encoding: 1101 1101 357
Width: 1075
VWidth: 1947
GlyphClass: 2
Flags: W
HStem: -25 210<258.377 578.532> 407 210<406 706> 838 210<402.521 742.41>
VStem: 764 210<618.066 814.892>
LayerCount: 2
Fore
SplineSet
764 714 m 3
 764 826 696 838 615 838 c 2
 594 838 l 2
 462 838 397 810 362 747 c 1
 178 849 l 1
 261 998 408 1048 594 1048 c 2
 615 1048 l 2
 681 1048 974 1047 974 714 c 3
 974 670 969 624 959 576 c 2
 923 407 l 2
 865 133 659 -25 436 -25 c 2
 415 -25 l 2
 333 -25 86 -24 47 203 c 1
 255 237 l 1
 261 204 285 185 415 185 c 2
 436 185 l 2
 549 185 659 257 706 407 c 1
 366 407 l 1
 406 617 l 1
 753 617 l 1
 758 636 764 684 764 714 c 3
EndSplineSet
Validated: 3073
EndChar

StartChar: iucyrillic
Encoding: 1102 1102 358
Width: 1075
VWidth: 1947
GlyphClass: 2
Flags: W
HStem: -25 210<496.967 674.038> 0 21G<-50 169.226> 839 210<656.429 829.275> 1004 20G<160.801 380>
VStem: -50 215<0 215> 165 215<809 1024> 283 210<190.015 405.642> 837 210<506.688 836.077>
DStem2: -55.3139 -25 159.686 -25 0.207912 0.978148<70.2595 486.246 700.805 1071.88> 679.461 -25 894.388 -25 0.207912 0.978148<263.099 813.837>
LayerCount: 2
Fore
SplineSet
741 839 m 2xab
 686 839 597 793 544 576 c 1
 509 406 l 2
 496 342 493 302 493 276 c 3
 493 189 519 185 562 185 c 2
 582 185 l 2
 661 185 743 269 780 448 c 2
 815 618 l 2
 831 695 837 744 837 775 c 3
 837 829 830 839 761 839 c 2
 741 839 l 2xab
741 1049 m 2
 761 1049 l 2
 956 1049 1047 941 1047 775 c 3
 1047 734 1025 596 1021 576 c 2
 986 406 l 2
 934 155 788 -25 582 -25 c 2
 562 -25 l 2
 440 -25 283 35 283 276 c 3xab
 283 323 289 371 295 407 c 1
 251 407 l 1
 165 0 l 1
 -50 0 l 1
 165 1024 l 1
 380 1024 l 1x59
 295 617 l 1
 338 617 l 17
 338 617 418 1049 741 1049 c 2
EndSplineSet
Validated: 3073
EndChar

StartChar: iacyrillic
Encoding: 1103 1103 359
Width: 1075
VWidth: 1947
GlyphClass: 2
Flags: W
HStem: 0 21G<641 860.16> 382 210<596 721> 814 210<403.936 811>
VStem: 144 210<622.089 765.836> 641 215<0 215>
DStem2: 10 92 158 -56 0.707107 0.707107<0 460.326> 629.097 -56 844.097 -56 0.207912 0.978148<101.952 447.536 662.096 888.808>
LayerCount: 2
Fore
SplineSet
335 418 m 1
 246 456 144 550 144 684 c 0
 144 693 147 724 149 733 c 2
 154 756 l 2
 170 829 208 883 260 924 c 0
 365 1007 498 1024 607 1024 c 2
 1069 1024 l 1
 856 0 l 1
 641 0 l 1
 721 382 l 1
 596 382 l 1
 158 -56 l 1
 10 92 l 1
 335 418 l 1
354 684 m 3
 354 636 416 592 518 592 c 2
 765 592 l 1
 811 814 l 1
 607 814 l 2
 399 814 370 741 360 712 c 2
 356 698 l 2
 354 691 354 690 354 684 c 3
EndSplineSet
Validated: 3073
EndChar

StartChar: ecyrillic
Encoding: 1108 1108 362
Width: 1075
VWidth: 1708
GlyphClass: 2
Flags: W
HStem: -25 210<311.958 618.698> 407 210<341 658> 839 210<455.773 751.541>
VStem: 78 210<208.95 405.613>
CounterMasks: 1 e0
LayerCount: 2
Fore
SplineSet
775 771 m 1
 765 810 741 839 632 839 c 2
 611 839 l 2
 463 839 381 761 341 617 c 1
 698 617 l 1
 658 407 l 1
 296 407 l 1
 290 379 288 360 288 331 c 3
 288 273 289 185 432 185 c 2
 453 185 l 2
 557 185 622 214 668 280 c 1
 840 160 l 1
 751 33 620 -25 453 -25 c 2
 432 -25 l 2
 247 -25 159 76 123 141 c 0
 85 210 78 255 78 331 c 27
 78 377 82 408 90 448 c 2
 125 618 l 2
 183 894 356 1049 611 1049 c 2
 632 1049 l 2
 897 1049 960 888 979 825 c 1
 775 771 l 1
EndSplineSet
Validated: 3073
EndChar

StartChar: numero
Encoding: 8470 8470 372
Width: 1075
VWidth: 1947
Flags: W
HStem: -0 21G<-83 136.293 278.162 497.243> 441 236<797.5 905.81> 1380 20G<212.714 431.847 570.767 790>
VStem: -83 215<0 215> 575 215<1185 1400> 680 184<677.134 963.011> 980 185<799.977 1089.72>
DStem2: -83 -0 132 -0 0.207912 0.978148<44.701 630.753> 277.94 -0 492.421 -0 0.207912 0.978148<851.61 1431.17>
LayerCount: 2
Fore
SplineSet
994 1330 m 3xf6
 1029 1330 1165 1301 1165 1075 c 3
 1165 1033 1156 946 1139 865 c 0
 1107 709 1023 441 850 441 c 3
 745 441 680 512 680 694 c 3
 680 737 685 804 707 909 c 0
 728 1002 825 1330 994 1330 c 3xf6
974 1094 m 3
 925 1094 864 797 864 704 c 3
 864 687 866 677 871 677 c 3
 924 677 980 974 980 1067 c 3
 980 1084 978 1094 974 1094 c 3
-83 -0 m 1
 217 1400 l 1
 431 1400 l 1
 455 833 l 1
 575 1400 l 1
 790 1400 l 1xfa
 493 0 l 1
 279 0 l 1
 255 573 l 1
 132 0 l 1
 -83 -0 l 1
EndSplineSet
Validated: 3073
EndChar

StartChar: caroncomb
Encoding: 780 780 377
Width: 1075
VWidth: 1947
Flags: W
HStem: 1422 242
VStem: 518 487
DStem2: 743 1552 818 1422 0.853846 0.520526<0 215.379>
LayerCount: 2
Fore
SplineSet
743 1552 m 1
 927 1664 l 1
 1005 1536 l 1
 818 1422 l 1
 664 1422 l 1
 518 1542 l 1
 614 1658 l 1
 743 1552 l 1
EndSplineSet
Validated: 3073
EndChar

StartChar: gravecomb
Encoding: 768 768 379
Width: 1075
VWidth: 2334
Flags: W
HStem: 1394 297
VStem: 607 274
DStem2: 727 1691 607 1603 0.593199 -0.805056<0 259.27>
LayerCount: 2
Fore
SplineSet
881 1482 m 5
 761 1394 l 5
 607 1603 l 5
 727 1691 l 5
 881 1482 l 5
EndSplineSet
Validated: 3073
EndChar

StartChar: acutecomb
Encoding: 769 769 380
Width: 1075
VWidth: 2334
Flags: W
HStem: 1381 323
VStem: 584 340
DStem2: 584 1495 682 1381 0.756823 0.65362<0 319.414>
LayerCount: 2
Fore
SplineSet
682 1381 m 5
 584 1495 l 5
 826 1704 l 5
 924 1590 l 5
 682 1381 l 5
EndSplineSet
Validated: 3073
EndChar

StartChar: tildecomb
Encoding: 771 771 381
Width: 1075
VWidth: 1947
Flags: W
HStem: 1447 150<791.601 955.518> 1537 150<563.75 726.557>
LayerCount: 2
Fore
SplineSet
439 1581 m 2x80
 483 1625 551 1687 652 1687 c 2
 668 1687 l 2x40
 716 1687 768 1667 806 1627 c 2
 822 1609 l 2
 826 1605 836 1597 850 1597 c 2
 867 1597 l 2
 911 1597 942 1626 976 1661 c 2
 998 1684 l 1
 1106 1580 l 1
 1084 1557 l 2
 1037 1508 969 1447 867 1447 c 2
 850 1447 l 2x80
 801 1447 747 1468 710 1509 c 2
 696 1525 l 2
 691 1530 681 1537 668 1537 c 2
 652 1537 l 2x40
 615 1537 587 1517 545 1475 c 2
 519 1447 l 1
 413 1555 l 1
 439 1581 l 2x80
EndSplineSet
Validated: 3073
EndChar

StartChar: hookabovecomb
Encoding: 777 777 382
Width: 1075
VWidth: 1947
Flags: W
HStem: 1551 130<599.797 873.578>
VStem: 876 150<1459.28 1545.58>
LayerCount: 2
Fore
SplineSet
786 1681 m 3
 1018 1681 1026 1554 1026 1515 c 3
 1026 1435 987 1331 789 1314 c 1
 773 1239 l 1
 627 1271 l 1
 660 1442 l 1
 721 1442 l 2
 861 1442 876 1490 876 1512 c 3
 876 1536 834 1551 792 1551 c 3
 729 1551 679 1540 617 1504 c 1
 535 1614 l 1
 609 1657 683 1681 786 1681 c 3
EndSplineSet
Validated: 3073
EndChar

StartChar: dotbelowcomb
Encoding: 803 803 383
Width: 1075
VWidth: 2334
Flags: W
HStem: -373 240<275.761 461.103>
VStem: 249 240<-345.509 -160.491>
LayerCount: 2
Fore
SplineSet
249 -253 m 0
 249 -187 301 -133 368 -133 c 0
 434 -133 489 -187 489 -253 c 0
 489 -319 434 -373 368 -373 c 0
 301 -373 249 -319 249 -253 c 0
EndSplineSet
Validated: 3073
EndChar

StartChar: commaturnedabovecmb
Encoding: 786 786 396
Width: 1075
VWidth: 1947
Flags: W
HStem: -486 150<257.838 502.66>
VStem: 523 150<-310.673 -201.715>
LayerCount: 2
Fore
SplineSet
520 -67 m 1
 621 -91 673 -176 673 -241 c 3
 673 -279 666 -324 628 -370 c 0
 568 -443 470 -486 379 -486 c 3
 280 -486 195 -444 139 -384 c 1
 249 -283 l 1
 277 -313 322 -336 379 -336 c 3
 443 -336 523 -308 523 -241 c 3
 523 -210 496 -197 430 -197 c 2
 333 -197 l 1
 394 47 l 1
 540 9 l 1
 520 -67 l 1
EndSplineSet
Validated: 3073
EndChar

StartChar: Hbar
Encoding: 294 294 400
Width: 1075
VWidth: 1947
Flags: W
HStem: 0 21G<-4 215.168 641 860.171> 595 210<379 766> 1055 210<212 216 475 861 1120 1121> 1380 20G<283.852 503 928.852 1148>
VStem: -4 215<0 215> 641 215<0 215>
DStem2: -4 0 211 0 0.207912 0.978148<44.701 652.48 867.039 1077.69 1336.95 1430.12> 641 0 856 0 0.207912 0.978148<44.701 607.987 822.338 1077.69 1336.95 1430.12>
LayerCount: 2
Fore
SplineSet
431 1055 m 1
 379 805 l 1
 809 805 l 1
 861 1055 l 1
 431 1055 l 1
-4 0 m 1
 216 1055 l 1
 167 1055 l 1
 212 1265 l 1
 260 1265 l 1
 288 1400 l 1
 503 1400 l 1
 475 1265 l 1
 905 1265 l 1
 933 1400 l 1
 1148 1400 l 1
 1120 1265 l 1
 1166 1265 l 1
 1121 1055 l 1
 1076 1055 l 1
 856 0 l 1
 641 0 l 1
 766 595 l 1
 335 595 l 1
 211 0 l 1
 -4 0 l 1
EndSplineSet
Validated: 3073
EndChar

StartChar: hbar
Encoding: 295 295 401
Width: 1075
VWidth: 1947
Flags: W
HStem: 0 21G<-4 215.165 641 860.174> 839 210<493.037 794.255> 1147 210<226 235 494 718> 1380 20G<283.814 503>
VStem: -4 215<0 215> 641 215<0 215> 796 210<642.517 829.744>
DStem2: -4 0 211 0 0.207912 0.978148<44.701 786.483 1061.97 1171.63> 641 0 856 0 0.207912 0.978148<44.701 779.906>
LayerCount: 2
Fore
SplineSet
796 765 m 3xfa
 796 831 792 839 632 839 c 2
 611 839 l 2
 493 839 353 680 332 581 c 2
 211 0 l 1
 -4 0 l 1
 235 1147 l 1
 182 1147 l 1
 226 1357 l 1
 279 1357 l 1
 288 1400 l 1
 503 1400 l 1
 494 1357 l 1
 762 1357 l 1
 718 1147 l 1
 450 1147 l 1
 418 996 l 1
 477 1029 543 1049 611 1049 c 2
 632 1049 l 2
 976 1049 1006 948 1006 765 c 27xfa
 1006 726 1002 700 995 666 c 2
 856 0 l 1
 641 0 l 1xfc
 789 708 l 2
 794 730 796 752 796 765 c 3xfa
EndSplineSet
Validated: 3073
EndChar

StartChar: IJ
Encoding: 306 306 410
Width: 1075
VWidth: 1947
Flags: W
HStem: -13 210<38 171 386 523> 232 210<464 595.81> 1203 210<294 384 599 763 978 1103>
DStem2: 126.363 -13 341.363 -13 0.207912 0.978148<259.393 1242.99> 504.531 -13 720.017 -13 0.207912 0.978148<465.16 1243.17>
LayerCount: 2
Fore
SplineSet
523 -13 m 1
 -7 -13 l 1
 38 197 l 1
 171 197 l 1
 384 1203 l 1
 250 1203 l 1
 294 1413 l 1
 1147 1413 l 1
 1103 1203 l 1
 978 1203 l 1
 845 575 l 2
 776 250 591 232 552 232 c 2
 464 232 l 1
 464 442 l 1
 552 442 l 2
 598 442 627 565 639 619 c 2
 763 1203 l 1
 599 1203 l 1
 386 197 l 1
 570 197 l 1
 523 -13 l 1
EndSplineSet
Validated: 3073
EndChar

StartChar: Tbar
Encoding: 358 358 430
Width: 1075
VWidth: 1947
Flags: W
HStem: 0 21G<319 538.132> 455 210<113 413 671 973> 1190 210<266 566 780 1126>
VStem: 319 215<0 215>
DStem2: 319 0 534 0 0.207912 0.978148<44.701 464.601 723.653 1215.35>
LayerCount: 2
Fore
SplineSet
266 1400 m 1
 1170 1400 l 1
 1126 1190 l 1
 780 1190 l 1
 671 665 l 1
 1017 665 l 1
 973 455 l 1
 628 455 l 1
 534 0 l 1
 319 0 l 1
 413 455 l 1
 69 455 l 1
 113 665 l 1
 457 665 l 1
 566 1190 l 1
 222 1190 l 1
 266 1400 l 1
EndSplineSet
Validated: 3073
EndChar

StartChar: tbar
Encoding: 359 359 431
Width: 1075
VWidth: 1947
Flags: W
HStem: -25 210<465.174 668.066> 455 210<137 296 555 954> 798 210<208 369 627 915> 1405 20G<495.827 715>
VStem: 252 210<189.746 434.148> 500 215<1210 1425>
DStem2: 193.973 -25 409.648 -25 0.207912 0.978148<293.733 490.723 749.984 841.406 1100.46 1481.94>
LayerCount: 2
Fore
SplineSet
208 1008 m 1
 413 1008 l 1
 500 1425 l 1
 715 1425 l 1
 627 1008 l 1
 959 1008 l 1
 915 798 l 1
 583 798 l 1
 555 665 l 1
 998 665 l 1
 954 455 l 1
 511 455 l 1
 463 226 l 1
 463 226 462 225 462 218 c 0
 462 198 508 185 533 185 c 2
 554 185 l 2
 607 185 660 215 682 245 c 1
 850 119 l 1
 778 23 655 -25 554 -25 c 2
 533 -25 l 2
 385 -25 252 72 252 218 c 0
 252 228 255 259 257 270 c 2
 296 455 l 1
 93 455 l 1
 137 665 l 1
 341 665 l 1
 369 798 l 1
 165 798 l 1
 208 1008 l 1
EndSplineSet
Validated: 3073
EndChar

StartChar: A
Encoding: 65 65 461
Width: 1075
VWidth: 1708
Flags: W
HStem: 0 21G<-33 207.224 668.995 880> 219 210<396 649> 1405 20G<614.779 810.982>
VStem: -33 231<0 231> 670 210<0 219>
DStem2: -33 0 198 0 0.418694 0.908127<96.7184 337.886 569.206 1114.19>
LayerCount: 2
Fore
SplineSet
396 429 m 1
 649 429 l 1
 624 924 l 1
 396 429 l 1
198 0 m 1
 -33 0 l 1
 624 1425 l 1
 810 1425 l 1
 880 0 l 1
 670 0 l 1
 659 219 l 1
 299 219 l 1
 198 0 l 1
EndSplineSet
Validated: 3073
EndChar

StartChar: Lambda
Encoding: 923 923 462
Width: 1075
VWidth: 1708
Flags: W
HStem: 0 21G<-35 205.256 670.008 881> 1405 20G<614.751 810.01>
VStem: -35 231<0 231> 671 210<0 283.733>
DStem2: -35 0 196 0 0.419745 0.907642<96.961 1118.42>
LayerCount: 2
Fore
SplineSet
196 0 m 1
 -35 0 l 1
 624 1425 l 1
 809 1425 l 1
 881 0 l 1
 671 0 l 1
 625 927 l 1
 196 0 l 1
EndSplineSet
Validated: 3073
EndChar

StartChar: Delta
Encoding: 916 916 463
Width: 1075
VWidth: 1708
Flags: W
HStem: 0 210<290 661> 1405 20G<614.681 810.997>
DStem2: -40 0 290 210 0.422363 0.906427<329.729 1122.52>
LayerCount: 2
Fore
SplineSet
661 210 m 1
 624 929 l 1
 290 210 l 1
 661 210 l 1
881 0 m 1
 -40 0 l 1
 624 1425 l 1
 810 1425 l 1
 881 0 l 1
EndSplineSet
Validated: 3073
EndChar

StartChar: Theta
Encoding: 920 920 464
Width: 1075
VWidth: 1947
Flags: W
HStem: -25 210<331.371 580.377> 594 210<444 699> 1215 210<563.004 810.833>
VStem: 93 210<213.777 710.562> 843 210<701.484 1182.68>
DStem2: -23.7699 -25 191.563 -25 0.207912 0.978148<466.402 1158.83> 643.698 -25 859.476 -25 0.207912 0.978148<365.986 1065.16>
LayerCount: 2
Fore
SplineSet
736 804 m 1
 699 594 l 1
 407 594 l 1
 444 804 l 1
 736 804 l 1
843 1024 m 3
 843 1204 763 1215 714 1215 c 2
 687 1215 l 2
 544 1209 435 1097 351 725 c 2
 331 631 l 2
 305 508 303 430 303 380 c 3
 303 189 371 185 428 185 c 2
 461 185 l 2
 593 185 705 294 791 668 c 2
 813 770 l 2
 840 894 843 973 843 1024 c 3
718 1425 m 2
 768 1425 1053 1415 1053 1024 c 3
 1053 965 1047 872 1019 728 c 2
 997 622 l 2
 938 338 805 -25 461 -25 c 2
 424 -25 l 2
 370 -25 93 -23 93 380 c 3
 93 438 98 528 125 671 c 2
 145 769 l 2
 205 1061 337 1412 683 1425 c 2
 718 1425 l 2
EndSplineSet
Validated: 3073
EndChar

StartChar: Xi
Encoding: 926 926 465
Width: 1075
VWidth: 1708
Flags: W
HStem: 0 336<67 255 712 856> 0 210<255 686> 595 210<429 767> 1050 350<288 429 889 1075> 1190 210<458 889>
LayerCount: 2
Fore
SplineSet
255 210 m 1x60
 686 210 l 1x60
 712 336 l 1
 926 336 l 1
 856 0 l 1xa0
 -3 0 l 1x60
 67 336 l 1
 281 336 l 1xa0
 255 210 l 1x60
807 805 m 1
 767 595 l 1
 389 595 l 1
 429 805 l 1
 807 805 l 1
429 1050 m 1x30
 215 1050 l 1
 288 1400 l 1x30
 1147 1400 l 1x28
 1075 1050 l 1
 860 1050 l 1x30
 889 1190 l 1
 458 1190 l 1x28
 429 1050 l 1x30
EndSplineSet
Validated: 3073
EndChar

StartChar: Sigma
Encoding: 931 931 468
Width: 1075
VWidth: 1947
Flags: W
HStem: -25 210<302 852> 1190 210<493 1105>
DStem2: 36 187 302 185 0.616906 0.787036<162.523 675.953> 493 1190 252 1225 0.369173 -0.929361<0 422.962>
LayerCount: 2
Fore
SplineSet
289 1400 m 1
 1149 1400 l 1
 1105 1190 l 1
 493 1190 l 1
 693 685 l 1
 302 185 l 1
 896 185 l 1
 852 -25 l 1
 -8 -25 l 1
 36 187 l 1
 453 719 l 1
 252 1225 l 1
 289 1400 l 1
EndSplineSet
Validated: 3073
EndChar

StartChar: Psi
Encoding: 936 936 473
Width: 1075
VWidth: 1947
Flags: W
HStem: -24 21G<310 529.176> 407 210<329.068 401 660 781.651> 1405 20G<610.792 830>
VStem: 119 210<623.002 771.25> 251 215<1106 1321> 310 215<-24 191> 615 215<1210 1425> 942 215<1106 1321>
DStem2: -34.8885 -24 180.621 -24 0.207912 0.978148<744.244 1375.05> 310 -24 525 -24 0.207912 0.978148<44.701 440.502 699.762 1480.75> 656.283 -24 871.635 -24 0.207912 0.978148<671.161 1375.01>
LayerCount: 2
Fore
SplineSet
525 -24 m 1xe7
 310 -24 l 1xe7
 401 407 l 1
 391 407 l 2
 216 407 119 541 119 672 c 0xf3
 119 680 121 710 123 718 c 2
 251 1321 l 1
 466 1321 l 1xeb
 336 707 l 2
 333 692 329 670 329 659 c 3xf3
 329 627 343 617 400 617 c 2
 445 617 l 1
 615 1425 l 1
 830 1425 l 1
 660 617 l 1
 666 617 l 2
 711 617 797 636 814 718 c 2
 942 1321 l 1
 1157 1321 l 1
 1020 674 l 2
 973 453 778 407 666 407 c 2
 615 407 l 1
 525 -24 l 1xe7
EndSplineSet
Validated: 3073
EndChar

StartChar: Omega
Encoding: 937 937 474
Width: 1075
VWidth: 1947
Flags: W
HStem: 0 210<41 166 774 856> 1215 210<552.382 829.271>
VStem: 133 210<445.265 891.283> 856 210<778.24 1187.51>
LayerCount: 2
Fore
SplineSet
856 1057 m 3
 856 1194 806 1215 700 1215 c 3
 549 1215 434 1127 367 809 c 1
 347 709 343 647 343 606 c 3
 343 510 369 471 394 434 c 2
 419 397 l 1
 338 0 l 1
 -3 0 l 1
 41 210 l 1
 166 210 l 1
 196 355 l 1
 151 433 133 506 133 606 c 3
 133 655 137 731 161 851 c 1
 203 1049 333 1425 700 1425 c 3
 902 1425 1066 1400 1066 1057 c 3
 1066 895 1003 501 796 317 c 1
 774 210 l 1
 899 210 l 1
 856 0 l 1
 516 0 l 1
 606 435 l 1
 638 459 l 2
 808 587 856 963 856 1057 c 3
EndSplineSet
Validated: 3073
EndChar

StartChar: alpha
Encoding: 945 945 483
Width: 1075
VWidth: 1947
Flags: W
HStem: -38 210<343.23 487.962> 0 21G<642.722 853> 851 210<482.75 632.688>
VStem: 117 210<179.759 603.818>
LayerCount: 2
Fore
SplineSet
327 310 m 3xb0
 327 225 348 172 390 172 c 3
 452 172 496 210 520 265 c 2
 637 536 l 1
 634 799 l 2
 634 839 621 851 579 851 c 3
 422 851 327 543 327 310 c 3xb0
390 -38 m 3
 231 -38 117 0 117 310 c 3
 117 384 127 461 143 535 c 1
 188 726 294 1061 579 1061 c 3
 685 1061 768 1014 811 937 c 1
 867 1066 l 1
 1059 982 l 1
 847 493 l 1
 853 0 l 1
 643 0 l 1x70
 642 72 l 1
 580 4 497 -38 390 -38 c 3
EndSplineSet
Validated: 3073
EndChar

StartChar: beta
Encoding: 946 946 484
Width: 1075
VWidth: 2334
Flags: W
HStem: -25 210<274.359 664.964> 444 210<471 729.001> 839 210<422.156 784.609>
VStem: -70 214<-318 -104> 738 210<247.286 427.131> 788 210<709.948 826.072>
DStem2: -70 -318 144 -318 0.207912 0.978148<44.4931 380.65 631.351 1192.41>
LayerCount: 2
Fore
SplineSet
788 789 m 3xf4
 788 800 774 839 636 839 c 2
 601 839 l 2
 417 839 372 772 350 666 c 2
 274 302 l 2
 270 284 268 268 268 255 c 3
 268 198 308 185 432 185 c 2
 476 185 l 2
 696 185 721 278 728 312 c 2
 735 346 l 2
 736 351 738 362 738 372 c 3xf8
 738 415 700 444 573 444 c 2
 471 444 l 1
 471 654 l 1
 535 654 l 2
 683 654 788 710 788 789 c 3xf4
432 -25 m 2
 388 -25 292 -23 213 11 c 1
 144 -318 l 1
 -70 -318 l 1
 144 708 l 2
 190 926 331 1049 601 1049 c 2
 636 1049 l 2
 696 1049 722 1047 777 1034 c 0
 941 995 998 887 998 789 c 3xf4
 998 709 959 614 880 549 c 1
 929 497 948 433 948 372 c 3
 948 351 947 331 941 304 c 2
 934 270 l 2
 917 187 842 -25 476 -25 c 2
 432 -25 l 2
EndSplineSet
Validated: 3073
EndChar

StartChar: gamma
Encoding: 947 947 485
Width: 1075
VWidth: 2334
Flags: W
HStem: -384 21G<238 457.279> 1004 20G<211 425.667 832.008 1083>
VStem: 211 212<812 1024> 238 215<-384 -169> 843 240<784 1024>
DStem2: 423 1024 211 1024 0.132164 -0.991228<0 620.443> 505 409 545 46 0.481988 0.876178<0 701.761>
LayerCount: 2
Fore
SplineSet
238 -384 m 1xd8
 337 79 l 1
 211 1024 l 1
 423 1024 l 1xe8
 505 409 l 1
 843 1024 l 1
 1083 1024 l 1
 545 46 l 1
 453 -384 l 1
 238 -384 l 1xd8
EndSplineSet
Validated: 3073
EndChar

StartChar: delta
Encoding: 948 948 486
Width: 1075
VWidth: 1947
Flags: W
HStem: -25 210<323.7 607.671> 1190 210<645 998>
VStem: 78 210<217.873 583.691> 781 210<453.562 820.382>
DStem2: -10.5392 -25 204.388 -25 0.207912 0.978148<411.301 859.013> 634.461 -25 849.388 -25 0.207912 0.978148<290.355 753.485>
LayerCount: 2
Fore
SplineSet
781 716 m 3
 781 802 762 834 632 839 c 2
 611 839 l 2
 449 839 367 746 331 576 c 2
 296 406 l 2
 290 378 288 353 288 331 c 3
 288 198 392 185 432 185 c 2
 453 185 l 2
 616 185 699 277 735 448 c 2
 770 618 l 2
 774 637 781 677 781 716 c 3
313 1400 m 1
 1040 1400 l 1
 998 1190 l 1
 645 1190 l 1
 874 986 l 2
 916 947 991 876 991 716 c 3
 991 671 986 625 976 576 c 2
 941 406 l 2
 883 126 706 -25 453 -25 c 2
 432 -25 l 2
 378 -25 213 -23 123 141 c 0
 92 198 78 263 78 331 c 3
 78 369 82 408 90 448 c 2
 125 618 l 2
 174 853 306 999 500 1038 c 1
 280 1239 l 1
 313 1400 l 1
EndSplineSet
Validated: 3073
EndChar

StartChar: epsilon
Encoding: 949 949 487
Width: 1075
VWidth: 2334
Flags: W
HStem: -25 210<282.392 670.048> 428 210<376.84 684> 839 210<405.162 804.934>
VStem: 56 210<200.651 366.353> 147 210<663.327 795.459>
LayerCount: 2
Fore
SplineSet
147 725 m 3xe8
 147 832 172 1049 611 1049 c 2
 655 1049 l 2
 916 1049 965 948 986 922 c 1
 806 814 l 1
 784 831 714 839 655 839 c 2
 611 839 l 2
 378 839 357 757 357 725 c 3xe8
 357 666 434 638 531 638 c 2
 726 638 l 1
 684 428 l 1
 531 428 l 2
 371 428 266 377 266 269 c 3
 266 220 285 185 432 185 c 2
 476 185 l 2
 586 185 634 197 676 234 c 1
 816 78 l 1
 788 52 704 -25 468 -25 c 2
 413 -25 l 2
 150 -25 56 74 56 269 c 3xf0
 56 397 120 475 207 539 c 1
 151 601 147 651 147 725 c 3xe8
EndSplineSet
Validated: 3073
EndChar

StartChar: zeta
Encoding: 950 950 488
Width: 1075
VWidth: 2334
Flags: W
HStem: -399 210<386 599.088> -25 210<274.014 618.702>
VStem: 60 210<196.787 403.124> 625 210<-160.23 -40.4313>
DStem2: 387 710 483 524 0.887994 0.459854<-230.409 315.317>
LayerCount: 2
Fore
SplineSet
432 -25 m 2
 99 -25 60 111 60 260 c 3
 60 477 258 643 387 710 c 2
 667 855 l 1
 594 880 525 918 468 974 c 1
 616 1124 l 1
 679 1062 791 1024 940 1024 c 2
 1068 1024 l 1
 1035 863 l 1
 1009 840 l 2
 934 774 844 710 753 663 c 2
 483 524 l 2
 345 453 293 395 281 336 c 2
 277 315 l 2
 274 302 270 274 270 260 c 3
 270 203 291 185 432 185 c 2
 453 185 l 2
 518 185 550 183 611 168 c 0
 777 127 835 17 835 -75 c 3
 835 -142 791 -399 447 -399 c 2
 342 -399 l 1
 386 -189 l 1
 447 -189 l 2
 620 -189 625 -115 625 -88 c 2
 625 -75 l 2
 625 -57 588 -25 453 -25 c 2
 432 -25 l 2
EndSplineSet
Validated: 3073
EndChar

StartChar: eta
Encoding: 951 951 489
Width: 1075
VWidth: 2334
Flags: W
HStem: 0 21G<-4 215.148> 839 210<490.047 783.343> 1004 20G<204.84 424>
VStem: -4 215<0 215> 560 215<-387 -172> 796 210<600.65 829.744>
DStem2: -86.2594 -387 128.741 -387 0.207912 0.978148<440.347 1189.82> 560 -387 775 -387 0.207912 0.978148<44.701 1174.87>
LayerCount: 2
Fore
SplineSet
796 765 m 3xdc
 796 827 783 839 632 839 c 2
 611 839 l 2xdc
 518 839 362 728 329 569 c 2
 211 0 l 1
 -4 0 l 1
 209 1024 l 1
 424 1024 l 1xbc
 418 996 l 1
 477 1029 543 1049 611 1049 c 2
 632 1049 l 2
 977 1049 1006 948 1006 765 c 3
 1006 736 1002 700 995 666 c 2
 775 -387 l 1
 560 -387 l 1
 782 658 l 2
 790 701 796 743 796 765 c 3xdc
EndSplineSet
Validated: 3073
EndChar

StartChar: theta
Encoding: 952 952 490
Width: 1075
VWidth: 1947
Flags: W
HStem: -25 210<314.548 607.671> 407 210<341 725> 839 210<456.174 764.765>
VStem: 78 210<211.161 407> 782 210<618.219 816.36>
CounterMasks: 1 e0
LayerCount: 2
Fore
SplineSet
611 1049 m 2
 632 1049 l 2
 675 1049 992 1047 992 716 c 3
 992 671 986 625 976 576 c 2
 941 407 l 2
 883 127 706 -25 453 -25 c 2
 432 -25 l 2
 369 -25 213 -23 123 141 c 0
 92 198 78 263 78 331 c 3
 78 369 82 408 90 448 c 2
 125 618 l 2
 183 895 357 1049 611 1049 c 2
782 716 m 3
 782 824 727 835 632 839 c 2
 611 839 l 2
 463 839 381 761 341 617 c 1
 770 617 l 1
 778 628 782 671 782 716 c 3
288 331 m 3
 288 186 378 185 432 185 c 2
 453 185 l 2
 602 185 685 263 725 407 c 1
 296 407 l 1
 290 379 288 353 288 331 c 3
EndSplineSet
Validated: 3073
EndChar

StartChar: lambda
Encoding: 955 955 491
Width: 1075
VWidth: 2334
Flags: W
HStem: 0 21G<-19 232.024 640.301 855> 1380 20G<453 667.714>
VStem: -19 240<0 240> 453 212<1188 1400> 643 212<0 212>
DStem2: -19 0 221 0 0.482093 0.87612<115.702 817.946> 665 1400 453 1400 0.134481 -0.990916<0 410.473 763.749 1384.32>
LayerCount: 2
Fore
SplineSet
-19 0 m 1xe8
 512 965 l 1
 453 1400 l 1
 665 1400 l 1xf0
 855 0 l 1
 643 0 l 1
 560 615 l 1
 221 0 l 1
 -19 0 l 1xe8
EndSplineSet
Validated: 3073
EndChar

StartChar: xi
Encoding: 958 958 494
Width: 1075
VWidth: 2334
Flags: W
HStem: -399 210<386 589.974> -25 210<279.301 625.276> 428 210<362.097 728>
VStem: 55 210<201.863 365.293> 147 210<652.403 786.027> 627 211<-153.731 -31.62>
LayerCount: 2
Fore
SplineSet
55 265 m 3xf4
 55 390 112 466 197 531 c 1
 159 579 147 643 147 705 c 3
 147 794 178 933 367 1004 c 1
 498 1050 l 1
 459 1074 422 1105 389 1143 c 1
 547 1281 l 1
 607 1213 680 1187 815 1182 c 2
 994 1175 l 1
 967 1045 l 1
 864 986 l 2
 798 948 723 907 644 879 c 2
 437 806 l 2
 393 790 357 760 357 705 c 3xec
 357 671 374 638 531 638 c 2
 771 638 l 1
 728 428 l 1
 531 428 l 1
 309 417 274 329 272 319 c 0
 266 287 265 275 265 265 c 3
 265 232 273 185 432 185 c 2
 476 185 l 2
 537 185 753 135 811 37 c 0
 832 2 838 -33 838 -63 c 3
 838 -71 835 -101 833 -110 c 2
 826 -142 l 2
 819 -176 791 -242 746 -288 c 0
 727 -307 634 -399 466 -399 c 2
 342 -399 l 1
 386 -189 l 1
 466 -189 l 2
 509 -189 600 -175 620 -98 c 2
 623 -87 l 2
 625 -79 627 -69 627 -65 c 3
 627 -37 598 -25 476 -25 c 2
 432 -25 l 2
 387 -25 346 -22 308 -17 c 0
 96 10 55 127 55 265 c 3xf4
EndSplineSet
Validated: 3073
EndChar

StartChar: pi
Encoding: 960 960 496
Width: 1075
VWidth: 2334
Flags: W
HStem: 0 21G<27 298 584.5 805> 814 210<484 707>
VStem: 576 210<1.92588 369.742>
DStem2: 96.805 0 310.979 0 0.207912 0.978148<41.4246 813.783> 533.979 0 752.165 0 0.207912 0.978148<183.676 832.185>
LayerCount: 2
Fore
SplineSet
205 997 m 1
 273 1017 344 1024 422 1024 c 2
 812 1024 l 2
 955 1024 1039 1080 1090 1132 c 1
 1032 851 l 1
 997 838 960 829 923 823 c 1
 790 178 l 2
 789 174 786 159 786 133 c 0
 786 82 795 35 805 0 c 1
 733 0 661 0 589 -0 c 1
 580 47 577 93 576 133 c 0
 576 151 576 187 584 222 c 2
 707 814 l 1
 484 814 l 1
 353 178 l 2
 341 124 315 61 281 0 c 1
 196 0 112 0 27 0 c 1
 83 66 134 166 147 222 c 1
 266 796 l 1
 220 784 185 764 151 739 c 1
 205 997 l 1
EndSplineSet
Validated: 3073
EndChar

StartChar: rho
Encoding: 961 961 497
Width: 1075
VWidth: 2334
Flags: W
HStem: -384 21G<-84 135.136> -25 210<301.579 608.072> 839 210<456.174 748.044>
VStem: -84 215<-384 -169> 778 210<440.309 808.744>
DStem2: -84 -384 131 -384 0.207912 0.978148<44.701 464.392 757.298 1228.85> 558.153 -384 773.08 -384 0.207912 0.978148<658.643 1098.16>
LayerCount: 2
Fore
SplineSet
285 310 m 3
 285 201 336 185 432 185 c 2
 453 185 l 2
 615 185 699 278 735 448 c 2
 770 618 l 2
 776 646 778 671 778 693 c 3
 778 834 676 839 632 839 c 2
 611 839 l 2
 449 839 367 747 331 576 c 2
 296 406 l 2
 292 387 285 348 285 310 c 3
432 -25 m 2
 376 -25 297 -22 216 27 c 1
 131 -384 l 1
 -84 -384 l 1
 125 618 l 2
 183 897 357 1049 611 1049 c 2
 632 1049 l 2
 688 1049 871 1048 956 858 c 0
 979 807 988 751 988 693 c 3
 988 655 984 616 976 576 c 2
 941 406 l 2
 883 129 707 -25 453 -25 c 2
 432 -25 l 2
EndSplineSet
Validated: 3073
EndChar

StartChar: sigmafinal
Encoding: 962 962 498
Width: 1075
VWidth: 2334
Flags: W
HStem: -399 210<385 588.63> -25 210<317.328 618.802> 839 210<500.229 934.25>
VStem: 78 210<213.867 462.677> 625 210<-153.975 -46.9939>
DStem2: -90.0354 -399 124.892 -399 0.207912 0.978148<793.968 1202.27>
LayerCount: 2
Fore
SplineSet
453 185 m 2
 750 185 835 27 835 -78 c 3
 835 -83 833 -107 832 -112 c 2
 828 -133 l 2
 824 -154 802 -245 720 -311 c 0
 645 -372 548 -399 445 -399 c 2
 342 -399 l 1
 385 -189 l 1
 445 -189 l 2
 609 -189 625 -96 625 -79 c 3
 625 -68 572 -25 453 -25 c 2
 432 -25 l 2
 247 -25 159 76 123 141 c 0
 84 211 78 268 78 331 c 3
 78 377 82 408 90 448 c 2
 125 618 l 2
 177 871 400 1049 689 1049 c 2
 729 1049 l 2
 828 1049 918 1024 976 1002 c 2
 1019 986 l 1
 945 790 l 1
 902 806 l 2
 841 829 778 839 729 839 c 2
 689 839 l 2
 498 839 363 729 331 576 c 2
 296 406 l 2
 290 378 288 360 288 331 c 3
 288 274 299 185 432 185 c 2
 453 185 l 2
EndSplineSet
Validated: 3073
EndChar

StartChar: sigma
Encoding: 963 963 499
Width: 1075
VWidth: 1947
Flags: W
HStem: -25 210<320.893 607.671> 814 210<981 1062> 839 210<456.174 763.471>
VStem: 78 210<216.087 583.691> 781 210<453.562 813.007>
DStem2: -10.5392 -25 204.388 -25 0.207912 0.978148<411.301 859.013> 634.461 -25 849.388 -25 0.207912 0.978148<290.355 753.485>
LayerCount: 2
Fore
SplineSet
781 716 m 3xb8
 781 802 750 839 632 839 c 2
 611 839 l 2
 449 839 367 746 331 576 c 2
 296 406 l 2
 290 378 288 353 288 331 c 3
 288 195 387 185 432 185 c 2
 453 185 l 2
 616 185 699 277 735 448 c 2
 770 618 l 2
 774 637 781 677 781 716 c 3xb8
981 814 m 1xd8
 988 785 991 755 991 716 c 3
 991 671 986 625 976 576 c 2
 941 406 l 2
 883 126 706 -25 453 -25 c 2
 432 -25 l 2
 384 -25 213 -23 123 141 c 0
 92 198 78 263 78 331 c 3
 78 369 82 408 90 448 c 2
 125 618 l 2
 183 895 357 1049 611 1049 c 2
 632 1049 l 2xb8
 663 1049 732 1047 793 1024 c 1
 1104 1024 l 1
 1062 814 l 1
 981 814 l 1xd8
EndSplineSet
Validated: 3073
EndChar

StartChar: tau
Encoding: 964 964 500
Width: 1075
VWidth: 2334
Flags: W
HStem: -0 21G<221 512.5> 814 210<208.19 488 702 1005.85>
DStem2: 318.025 0 532.952 0 0.207912 0.978148<61.3935 831.552>
LayerCount: 2
Fore
SplineSet
422 1024 m 2
 812 1024 l 2
 955 1024 1039 1080 1090 1132 c 1
 1032 850 l 1
 963 825 888 814 812 814 c 2
 702 814 l 1
 571 179 l 2
 558 120 531 58 494 0 c 1
 403 0 312 0 221 -0 c 1
 284 55 348 140 365 221 c 2
 488 814 l 1
 422 814 l 2
 291 814 216 787 151 739 c 1
 205 997 l 1
 273 1017 344 1024 422 1024 c 2
EndSplineSet
Validated: 3073
EndChar

StartChar: upsilon
Encoding: 965 965 501
Width: 1075
VWidth: 1947
Flags: W
HStem: -25 210<311.9 610.089> 1024 5G<204.837 424 721 764.5>
VStem: 82 209<203.558 597.656> 209 215<809 1024> 784 211<443.518 837.408>
DStem2: -11.8191 -25 203.108 -25 0.207912 0.978148<407.247 1071.99> 645.219 -25 858.997 -25 0.207912 0.978148<308.89 736.125>
LayerCount: 2
Fore
SplineSet
419 185 m 2xe8
 464 185 l 2
 624 185 712 301 760 515 c 2
 768 555 l 2
 779 610 784 659 784 700 c 3
 784 787 762 839 731 839 c 2
 683 839 l 1
 725 1049 l 1
 753 1049 l 2
 776 1049 821 1046 869 1014 c 0
 970 946 995 814 995 701 c 3
 995 610 979 532 974 511 c 2
 964 469 l 2
 860 7 581 -25 464 -25 c 2
 419 -25 l 2
 159 -25 110 162 94 220 c 0
 85 252 82 289 82 326 c 3xe8
 82 408 98 491 107 534 c 2
 209 1024 l 1
 424 1024 l 1xd8
 313 492 l 2
 298 421 291 367 291 325 c 3
 291 195 354 185 419 185 c 2xe8
EndSplineSet
Validated: 3073
EndChar

StartChar: phi
Encoding: 966 966 502
Width: 1075
VWidth: 1947
Flags: W
HStem: 838 210<725.271 833.022>
VStem: 33 210<236.252 641.609> 136 215<729 944> 238 214<-387 -173> 838 210<472.266 832.484>
DStem2: -145.765 -387 69.1628 -387 0.207912 0.978148<832.585 1360.5> 238 -387 452 -387 0.207912 0.978148<44.4931 387.485 651.294 1293.32> 610.39 -387 826.167 -387 0.207912 0.978148<695.941 1134.48>
LayerCount: 2
Fore
SplineSet
838 726 m 3x88
 838 827 821 838 788 838 c 3
 723 838 680 705 675 681 c 2
 576 207 l 1
 681 244 761 327 790 458 c 2
 825 617 l 2
 833 655 838 693 838 726 c 3x88
788 1048 m 3
 886 1048 1048 1030 1048 726 c 3
 1048 675 1042 622 1031 571 c 2
 996 412 l 2
 941 167 758 12 529 -19 c 1
 452 -387 l 1
 238 -387 l 1x98
 317 -11 l 1
 142 32 33 170 33 380 c 3xc8
 33 429 39 481 50 534 c 2
 136 944 l 1
 351 944 l 1xa8
 256 492 l 2
 247 451 243 413 243 380 c 3xc8
 243 265 290 214 359 195 c 1
 469 723 l 2
 483 791 504 863 565 937 c 0
 652 1042 739 1048 788 1048 c 3
EndSplineSet
Validated: 3073
EndChar

StartChar: chi
Encoding: 967 967 503
Width: 1075
VWidth: 2062
Flags: W
HStem: 1004 20G<181 490.5 811.242 1073>
VStem: -78 249<-387 -138> 824 249<775 1024>
DStem2: -78 -387 171 -387 0.538613 0.842553<134.115 569.063 1180.06 1674.67> 558 607 350 585 0.0907026 -0.995878<-316.184 0>
LayerCount: 2
Fore
SplineSet
171 -387 m 1
 -78 -387 l 1
 373 318 l 1
 350 585 l 2
 334 759 314 852 266 914 c 2
 181 1024 l 1
 446 1024 l 1
 535 895 552 718 558 607 c 1
 824 1024 l 1
 1073 1024 l 1
 589 265 l 1
 607 69 l 2
 614 -7 634 -156 710 -264 c 2
 797 -387 l 1
 540 -387 l 1
 538 -384 l 2
 513 -348 438 -239 406 -21 c 1
 171 -387 l 1
EndSplineSet
Validated: 3073
EndChar

StartChar: psi
Encoding: 968 968 504
Width: 1075
VWidth: 1947
Flags: W
HStem: 1027 20G<531.845 751>
VStem: 33 210<238.768 641.609> 135 215<729 944> 238 214<-387 -173> 536 215<832 1047> 896 215<729 944>
DStem2: -145.765 -387 69.1628 -387 0.207912 0.978148<831.607 1360.29> 238 -387 452 -387 0.207912 0.978148<44.4931 387.315 653.458 1464.62> 614.235 -387 829.163 -387 0.207912 0.978148<715.669 1360.5>
LayerCount: 2
Fore
SplineSet
238 -387 m 1x9c
 317 -11 l 1
 145 31 33 164 33 379 c 3xcc
 33 429 39 480 50 534 c 2
 135 944 l 1
 350 944 l 1xac
 256 492 l 2
 247 450 243 412 243 379 c 3xcc
 243 265 289 214 359 195 c 1
 536 1047 l 1
 751 1047 l 1
 577 209 l 1
 709 261 780 392 810 534 c 2
 896 944 l 1
 1111 944 l 1
 1016 492 l 2
 956 207 779 16 529 -19 c 1
 452 -387 l 1
 238 -387 l 1x9c
EndSplineSet
Validated: 3073
EndChar

StartChar: omega
Encoding: 969 969 505
Width: 1075
VWidth: 2334
Flags: W
HStem: -25 210<227.176 363.105 581.13 706.2> 1004 20G<194 497 806 1031>
VStem: 14 210<186.797 378.813> 848 210<556.57 1023.28>
DStem2: -57.1966 -25 157.731 -25 0.207912 0.978148<339.973 992.329> 312.721 -25 527.648 -25 0.207912 0.978148<280.359 762.19> 680.591 -25 895.518 -25 0.207912 0.978148<225.41 862.714>
LayerCount: 2
Fore
SplineSet
451 23 m 1
 377 -21 318 -25 284 -25 c 2
 273 -25 l 2
 209 -25 135 3 115 19 c 0
 21 93 14 177 14 262 c 3
 14 299 17 325 24 357 c 2
 100 724 l 2
 116 803 156 920 232 1024 c 1
 497 1024 l 1
 410 911 l 2
 361 847 322 757 306 680 c 2
 230 315 l 2
 226 297 224 279 224 262 c 3
 224 221 233 185 274 185 c 2
 284 185 l 2
 331 185 360 194 375 268 c 2
 469 721 l 1
 675 679 l 1
 581 226 l 2
 579 217 578 210 578 205 c 3
 578 187 590 185 627 185 c 2
 638 185 l 2
 694 185 745 274 762 358 c 2
 838 723 l 2
 844 753 848 789 848 823 c 3
 848 868 842 912 831 946 c 2
 806 1024 l 1
 1027 1024 l 1
 1031 1010 l 2
 1050 950 1058 886 1058 823 c 3
 1058 775 1053 726 1044 681 c 2
 968 316 l 2
 948 220 898 114 818 44 c 0
 743 -21 666 -25 638 -25 c 2
 627 -25 l 2
 521 -25 468 11 451 23 c 1
EndSplineSet
Validated: 3073
EndChar

StartChar: dieresiscmb
Encoding: 776 776 508
Width: 1075
VWidth: 1947
Flags: W
HStem: 1267 234<442.665 615.888 820.582 992.996>
VStem: 416 227<1293.22 1476.83> 794 225<1293.11 1476.83>
LayerCount: 2
Fore
SplineSet
1019 1386 m 0
 1019 1317 964 1267 907 1267 c 0
 847 1267 794 1321 794 1386 c 0
 794 1452 847 1501 907 1501 c 0
 962 1501 1019 1456 1019 1386 c 0
643 1386 m 0
 643 1323 592 1267 530 1267 c 0
 469 1267 416 1320 416 1386 c 0
 416 1456 472 1501 529 1501 c 0
 594 1501 643 1447 643 1386 c 0
EndSplineSet
Validated: 3073
EndChar

StartChar: Djecyrillic
Encoding: 1026 1026 512
Width: 1075
VWidth: 2334
Flags: W
HStem: 0 210<618 710.959> 782 210<660.285 822.2> 1190 210<268 452 666 1000>
VStem: 202 215<0 215> 827 210<642.836 781.343>
DStem2: 202 0 417 0 0.207912 0.978148<44.701 740.732 1017.48 1215.97> 673.905 0 889.257 0 0.207912 0.978148<213.856 760.84>
LayerCount: 2
Fore
SplineSet
617 952 m 1
 642 974 693 992 751 992 c 2
 772 992 l 2
 931 992 1037 902 1037 746 c 3
 1037 719 1034 693 1029 666 c 2
 956 314 l 2
 937 225 880 0 638 0 c 2
 618 0 l 1
 618 210 l 1
 638 210 l 2
 705 210 726 244 750 358 c 2
 823 708 l 2
 825 716 827 731 827 746 c 3
 827 771 827 782 772 782 c 2
 751 782 l 2
 677 782 564 682 502 395 c 2
 417 -0 l 1
 202 0 l 1
 452 1190 l 1
 224 1190 l 1
 268 1400 l 1
 1043 1400 l 1
 1000 1190 l 1
 666 1190 l 1
 617 952 l 1
EndSplineSet
Validated: 3073
EndChar

StartChar: Ljecyrillic
Encoding: 1033 1033 513
Width: 1075
VWidth: 1947
Flags: W
HStem: 0 21G<-69 156.188 333 589.5> 660 208<727 830.285> 1380 20G<500 836>
VStem: -69 219<0 219> 836 210<334.391 643.103>
DStem2: -69 0 150 0 0.295421 0.955367<64.6972 1318.19> 333 0 546.151 0 0.207912 0.978148<260.03 724.629 930.949 1215.14> 720.905 0 935.832 0 0.207912 0.978148<238.186 583.712>
LayerCount: 2
Fore
SplineSet
684 660 m 1
 591 211 l 1
 742 221 776 257 797 358 c 2
 829 516 l 2
 832 532 836 558 836 573 c 3
 836 632 828 653 684 660 c 1
727 868 m 1
 1039 844 1046 742 1046 573 c 27
 1046 534 1042 508 1035 474 c 2
 1003 316 l 2
 983 223 945 139 864 78 c 1
 764 6 639 0 540 0 c 2
 333 0 l 1
 579 1190 l 1
 566 1190 l 1
 549 1177 502 1138 473 1044 c 2
 150 0 l 1
 -69 0 l 1
 273 1106 l 2
 333 1299 452 1400 548 1400 c 2
 836 1400 l 1
 727 868 l 1
EndSplineSet
Validated: 3073
EndChar

StartChar: Njecyrillic
Encoding: 1034 1034 514
Width: 1075
VWidth: 1947
Flags: W
HStem: 0 21G<-66 153.212 333 599.5> 660 210<332 469 727 820.986> 1380 20G<224.786 444 617.887 836>
VStem: -66 215<0 215> 229 215<1185 1400> 622 214<1186 1400> 836 210<338.959 644.44>
DStem2: -66 0 149 0 0.207912 0.978148<44.701 719.178 933.737 1430.74> 333 0 546.151 0 0.207912 0.978148<260.03 673.853 930.949 1429.49> 719.321 0 934.248 0 0.207912 0.978148<241.84 585.148>
LayerCount: 2
Fore
SplineSet
684 660 m 1
 591 211 l 1
 753 222 776 278 797 358 c 1
 829 516 l 2
 831 527 836 562 836 574 c 3
 836 643 791 656 684 660 c 1
727 868 m 1
 922 860 1046 750 1046 574 c 3
 1046 541 1042 509 1035 474 c 2
 1003 316 l 1
 984 240 961 150 864 78 c 1
 775 13 659 0 540 0 c 2
 333 0 l 1
 469 660 l 1
 288 660 l 1
 149 0 l 1
 -66 0 l 1
 229 1400 l 1
 444 1400 l 1
 332 870 l 1
 513 870 l 1
 622 1400 l 1
 836 1400 l 1
 727 868 l 1
EndSplineSet
Validated: 3073
EndChar

StartChar: Tshecyrillic
Encoding: 1035 1035 515
Width: 1075
VWidth: 1947
Flags: W
HStem: 0 21G<205 424.152 676 895.144> 782 210<674.923 822.981> 1190 210<270 452 666 1003>
VStem: 205 215<0 215> 676 215<0 215> 827 210<640.782 780.546>
DStem2: 205 0 420 0 0.207912 0.978148<44.701 722.161 1017.83 1215.35> 676 0 891 0 0.207912 0.978148<44.701 760.405>
LayerCount: 2
Fore
SplineSet
617 953 m 1xf4
 675 990 723 992 751 992 c 2
 772 992 l 2
 934 992 1037 898 1037 746 c 3xf4
 1037 719 1034 693 1029 666 c 2
 891 0 l 1
 676 0 l 1xf8
 823 708 l 2
 825 716 827 731 827 746 c 3
 827 770 827 782 772 782 c 2
 751 782 l 2
 702 782 561 672 502 395 c 2
 420 0 l 1
 205 0 l 1
 452 1190 l 1
 226 1190 l 1
 270 1400 l 1
 1047 1400 l 1
 1003 1190 l 1
 666 1190 l 1
 617 953 l 1xf4
EndSplineSet
Validated: 3073
EndChar

StartChar: Dzhecyrillic
Encoding: 1039 1039 516
Width: 1075
VWidth: 2334
Flags: W
HStem: -384 21G<239 458.167> 0 210<255 320 534 686> 1380 20G<283.843 503 928.849 1148>
VStem: 239 215<-384 -169> 288 215<1185 1400> 933 215<1185 1400>
DStem2: -84.6217 -384 128.741 -384 0.207912 0.978148<651.631 1822.49> 239 -384 454 -384 0.207912 0.978148<44.701 392.45> 559.741 -384 774.378 -384 0.207912 0.978148<607.27 1822.62>
LayerCount: 2
Fore
SplineSet
255 210 m 1xec
 686 210 l 1
 933 1400 l 1
 1148 1400 l 1
 856 0 l 1
 534 0 l 1
 454 -384 l 1
 239 -384 l 1xf4
 320 0 l 1
 -3 -0 l 1
 288 1400 l 1
 503 1400 l 1
 255 210 l 1xec
EndSplineSet
Validated: 3073
EndChar

StartChar: djecyrillic
Encoding: 1106 1106 517
Width: 1075
VWidth: 2334
Flags: W
HStem: -399 210<314.762 555.15> 0 21G<54 273.165> 718 210<529.35 769.347> 1048 210<190 273 532 809> 1406 20G<347.833 567>
VStem: 54 215<0 215> 773 210<421.406 713.825>
DStem2: -30.8101 -399 184.19 -399 0.207912 0.978148<452.615 1068.5 1343.4 1478.55 1737.81 1864.71> 556.465 -399 771.818 -399 0.207912 0.978148<262.876 1085.91>
LayerCount: 2
Fore
SplineSet
314 -168 m 1
 330 -186 362 -189 381 -189 c 2
 440 -189 l 2
 536 -189 618 -110 640 -6 c 2
 761 574 l 2
 770 619 773 648 773 666 c 3
 773 704 773 718 666 718 c 2
 645 718 l 2
 533 718 387 566 365 461 c 2
 269 0 l 1
 54 0 l 1
 273 1048 l 1
 147 1048 l 1
 190 1258 l 1
 317 1258 l 1
 352 1426 l 1
 567 1426 l 1
 532 1258 l 1
 852 1258 l 1
 809 1048 l 1
 488 1048 l 1
 451 872 l 1
 511 907 577 928 645 928 c 2
 666 928 l 2
 943 928 983 771 983 666 c 3
 983 639 981 598 967 532 c 2
 846 -50 l 2
 804 -251 636 -399 440 -399 c 2
 381 -399 l 2
 221 -399 162 -318 142 -288 c 1
 314 -168 l 1
EndSplineSet
Validated: 3073
EndChar

StartChar: dzhecyrillic
Encoding: 1119 1119 519
Width: 1075
VWidth: 1947
Flags: W
HStem: 0 211<255 320 534 686> 1004 20G<205.84 425 849.867 1069>
VStem: 210 215<809 1024> 238 215<-387 -172> 854 215<809 1024>
DStem2: -85.2594 -387 127.891 -387 0.207912 0.978148<655.676 1441.55> 238 -387 453 -387 0.207912 0.978148<44.701 395.592> 558.891 -387 771.741 -387 0.207912 0.978148<611.36 1441.52>
LayerCount: 2
Fore
SplineSet
255 211 m 1xe8
 686 211 l 1
 854 1024 l 1
 1069 1024 l 1
 854 0 l 1
 534 0 l 1
 453 -387 l 1
 238 -387 l 1xd8
 320 0 l 1
 -3 0 l 1
 210 1024 l 1
 425 1024 l 1
 255 211 l 1xe8
EndSplineSet
Validated: 3073
EndChar

StartChar: ljecyrillic
Encoding: 1113 1113 520
Width: 1075
VWidth: 1947
Flags: W
HStem: 0 210<579 724.356> 456 210<674 755.776> 813 211<406.486 490>
VStem: -66 217<0 217> 765 210<248.543 453.778>
DStem2: -66 0 151 0 0.2654 0.964138<57.5919 872.463> 321 0 534.363 0 0.207912 0.978148<259.052 510.28 724.839 830.371>
LayerCount: 2
Fore
SplineSet
630 456 m 1
 579 210 l 1
 609 210 l 2
 662 210 732 220 753 312 c 2
 762 357 l 2
 763 364 765 378 765 384 c 3
 765 428 746 456 703 456 c 2
 630 456 l 1
111 643 m 2
 178 883 279 973 444 1024 c 1
 748 1024 l 1
 674 666 l 1
 703 666 l 2
 871 666 975 537 975 384 c 3
 975 357 972 337 968 317 c 2
 959 270 l 2
 940 181 893 112 833 68 c 0
 748 5 664 0 609 0 c 2
 321 0 l 1
 490 813 l 1
 477 813 l 1
 395 783 352 727 313 587 c 2
 151 0 l 1
 -66 0 l 1
 111 643 l 2
EndSplineSet
Validated: 3073
EndChar

StartChar: njecyrillic
Encoding: 1114 1114 521
Width: 1075
VWidth: 1947
Flags: W
HStem: 0 210<579 724.356> 456 210<303 415 673 755.776> 1004 20G<157.898 377 527.866 747>
VStem: -48 215<0 215> 162 215<809 1024> 532 215<809 1024> 765 210<248.543 453.778>
DStem2: -48 0 167 0 0.207912 0.978148<44.701 510.072 724.423 1045.28> 321 0 534.363 0 0.207912 0.978148<259.052 465.579 724.631 1045.49>
LayerCount: 2
Fore
SplineSet
579 210 m 1xe6
 609 210 l 2
 662 210 732 220 753 312 c 2
 762 357 l 2
 763 364 765 380 765 384 c 3
 765 428 746 456 703 456 c 2
 630 456 l 1
 579 210 l 1xe6
167 0 m 1xf6
 -48 0 l 1xf6
 162 1024 l 1
 377 1024 l 1xee
 303 666 l 1
 458 666 l 1
 532 1024 l 1
 747 1024 l 1
 673 666 l 1
 703 666 l 2
 871 666 975 537 975 384 c 3
 975 357 972 337 968 317 c 2
 959 270 l 2
 940 181 893 112 833 68 c 0
 748 5 664 0 609 0 c 2
 321 0 l 1
 415 456 l 1
 260 456 l 1
 167 0 l 1xf6
EndSplineSet
Validated: 3073
EndChar

StartChar: apostrophereverse
Encoding: 8219 8219 523
Width: 1075
VWidth: 1708
Flags: W
HStem: 926 74<784.079 814.974> 1405 20G<681 761>
VStem: 583 162<1031.78 1283>
LayerCount: 2
Fore
SplineSet
723 1425 m 3
 799 1425 853 1365 853 1295 c 3
 853 1254 835 1215 803 1191 c 1
 761 1160 745 1131 745 1105 c 3
 745 1055 802 1016 844 1000 c 1
 808 926 l 1
 632 945 583 1073 583 1199 c 3
 583 1367 639 1425 723 1425 c 3
EndSplineSet
EndChar

StartChar: arrowleft
Encoding: 8592 8592 526
Width: 1075
VWidth: 1708
Flags: W
HStem: 520 160<353 949> 1027 20G<461.072 501.091>
DStem2: 127 674 353 680 0.687366 0.726311<159.703 513.395> 353 520 127 526 0.687366 -0.726311<0 353.692>
LayerCount: 2
Fore
SplineSet
949 680 m 1
 949 520 l 1
 353 520 l 1
 596 263 l 1
 480 153 l 1
 127 526 l 1
 127 674 l 1
 480 1047 l 1
 596 937 l 1
 353 680 l 1
 949 680 l 1
EndSplineSet
Validated: 3073
EndChar

StartChar: arrowright
Encoding: 8594 8594 527
Width: 1075
VWidth: 1708
Flags: W
HStem: 520 160<127 723> 1027 20G<574.909 614.928>
DStem2: 596 1047 480 937 0.687366 -0.726311<0.159668 353.852> 480 263 596 153 0.687366 0.726311<0 353.692>
LayerCount: 2
Fore
SplineSet
127 520 m 1
 127 680 l 1
 723 680 l 1
 480 937 l 1
 596 1047 l 1
 949 674 l 1
 949 526 l 1
 596 153 l 1
 480 263 l 1
 723 520 l 1
 127 520 l 1
EndSplineSet
Validated: 3073
EndChar

StartChar: lthorizform
Encoding: 9472 9472 528
Width: 1075
Flags: W
HStem: 443 160<0 1075>
LayerCount: 2
Fore
SplineSet
0 443 m 1
 -0 603 l 1
 1075 603 l 1
 1075 443 l 1
 0 443 l 1
EndSplineSet
Validated: 3073
EndChar

StartChar: ltvertform
Encoding: 9474 9474 529
Width: 1075
Flags: W
VStem: 458 160<-615 1775>
LayerCount: 2
Fore
SplineSet
618 -615 m 1
 458 -615 l 1
 458 1775 l 1
 618 1775 l 1
 618 -615 l 1
EndSplineSet
Validated: 3073
EndChar

StartChar: rightanglenw
Encoding: 9484 9484 530
Width: 1075
Flags: W
HStem: 443 160<618 1075>
VStem: 458 160<-615 443>
LayerCount: 2
Fore
SplineSet
458 -615 m 1
 458 603 l 1
 1075 603 l 1
 1075 443 l 1
 618 443 l 1
 618 -615 l 1
 458 -615 l 1
EndSplineSet
Validated: 3073
EndChar

StartChar: rightanglene
Encoding: 9488 9488 531
Width: 1075
Flags: W
HStem: 443 160<0 458>
VStem: 458 160<-615 443>
LayerCount: 2
Fore
SplineSet
458 443 m 1
 0 443 l 1
 -0 603 l 1
 618 603 l 1
 618 -615 l 1
 458 -615 l 1
 458 443 l 1
EndSplineSet
Validated: 3073
EndChar

StartChar: rightanglesw
Encoding: 9492 9492 532
Width: 1075
Flags: W
HStem: 443 160<618 1075>
VStem: 458 160<603 1775>
LayerCount: 2
Fore
SplineSet
618 603 m 1
 1075 603 l 1
 1075 443 l 1
 458 443 l 1
 458 1775 l 1
 618 1775 l 1
 618 603 l 1
EndSplineSet
Validated: 3073
EndChar

StartChar: rightanglese
Encoding: 9496 9496 533
Width: 1075
Flags: W
HStem: 443 160<0 458>
VStem: 458 160<603 1775>
LayerCount: 2
Fore
SplineSet
618 1775 m 1
 618 443 l 1
 0 443 l 1
 -0 603 l 1
 458 603 l 1
 458 1775 l 1
 618 1775 l 1
EndSplineSet
Validated: 3073
EndChar

StartChar: ltvertrightform
Encoding: 9500 9500 534
Width: 1075
Flags: W
HStem: 443 160<618 1075>
VStem: 458 160<-615 443 603 1775>
LayerCount: 2
Fore
SplineSet
618 -615 m 1
 458 -615 l 1
 458 1775 l 1
 618 1775 l 1
 618 603 l 1
 1075 603 l 1
 1075 443 l 1
 618 443 l 1
 618 -615 l 1
EndSplineSet
Validated: 3073
EndChar

StartChar: ltvertleftform
Encoding: 9508 9508 535
Width: 1075
Flags: W
HStem: 443 160<0 458>
VStem: 458 160<-615 443 603 1775>
LayerCount: 2
Fore
SplineSet
0 443 m 1
 -0 603 l 1
 458 603 l 1
 458 1775 l 1
 618 1775 l 1
 618 -615 l 1
 458 -615 l 1
 458 443 l 1
 0 443 l 1
EndSplineSet
Validated: 3073
EndChar

StartChar: ltdnhorizform
Encoding: 9516 9516 536
Width: 1075
Flags: W
HStem: 443 160<0 458 618 1075>
VStem: 458 160<-615 443>
LayerCount: 2
Fore
SplineSet
0 443 m 1
 -0 603 l 1
 1075 603 l 1
 1075 443 l 1
 618 443 l 1
 618 -615 l 1
 458 -615 l 1
 458 443 l 1
 0 443 l 1
EndSplineSet
Validated: 3073
EndChar

StartChar: ltuphorizform
Encoding: 9524 9524 537
Width: 1075
Flags: W
HStem: 443 160<0 458 618 1075>
VStem: 458 160<603 1775>
LayerCount: 2
Fore
SplineSet
0 443 m 1
 -0 603 l 1
 458 603 l 1
 458 1775 l 1
 618 1775 l 1
 618 603 l 1
 1075 603 l 1
 1075 443 l 1
 0 443 l 1
EndSplineSet
Validated: 3073
EndChar

StartChar: ltverthorizform
Encoding: 9532 9532 538
Width: 1075
Flags: W
HStem: 443 160<0 458 618 1075>
VStem: 458 160<-615 443 603 1775>
LayerCount: 2
Fore
SplineSet
0 443 m 1
 -0 603 l 1
 458 603 l 1
 458 1775 l 1
 618 1775 l 1
 618 603 l 1
 1075 603 l 1
 1075 443 l 1
 618 443 l 1
 618 -615 l 1
 458 -615 l 1
 458 443 l 1
 0 443 l 1
EndSplineSet
Validated: 3073
EndChar

StartChar: horizdblbar
Encoding: 9552 9552 539
Width: 1075
Flags: W
HStem: 283 160<0 1075> 635 160<0 1075>
LayerCount: 2
Fore
SplineSet
0 635 m 1
 -0 795 l 1
 1075 795 l 1
 1075 635 l 1
 0 635 l 1
0 283 m 1
 -0 443 l 1
 1075 443 l 1
 1075 283 l 1
 0 283 l 1
EndSplineSet
Validated: 3073
EndChar

StartChar: vertdblbar
Encoding: 9553 9553 540
Width: 1075
Flags: W
VStem: 298 160<-615 1775> 618 160<-615 1775>
LayerCount: 2
Fore
SplineSet
778 -615 m 1
 618 -615 l 1
 618 1775 l 1
 778 1775 l 1
 778 -615 l 1
458 -615 m 1
 298 -615 l 1
 298 1775 l 1
 458 1775 l 1
 458 -615 l 1
EndSplineSet
Validated: 3073
EndChar

StartChar: dnrtdblform
Encoding: 9554 9554 541
Width: 1075
Flags: W
HStem: 283 160<618 1075> 635 160<618 1075>
VStem: 458 160<-615 283 443 635>
LayerCount: 2
Fore
SplineSet
618 283 m 1
 618 -615 l 1
 458 -615 l 1
 458 795 l 1
 1075 795 l 1
 1075 635 l 1
 618 635 l 1
 618 443 l 1
 1075 443 l 1
 1075 283 l 1
 618 283 l 1
EndSplineSet
Validated: 3073
EndChar

StartChar: dndblrtform
Encoding: 9555 9555 542
Width: 1075
Flags: W
HStem: 443 160<458 618 778 1075>
VStem: 298 160<-615 443> 618 160<-615 443>
LayerCount: 2
Fore
SplineSet
778 -615 m 1
 618 -615 l 1
 618 443 l 1
 458 443 l 1
 458 -615 l 1
 298 -615 l 1
 298 603 l 1
 1075 603 l 1
 1075 443 l 1
 778 443 l 1
 778 -615 l 1
EndSplineSet
Validated: 3073
EndChar

StartChar: dbldnrtform
Encoding: 9556 9556 543
Width: 1075
Flags: W
HStem: 283 160<778 1075> 635 160<458 1075>
VStem: 298 160<-615 635> 618 160<-615 283>
LayerCount: 2
Fore
SplineSet
458 635 m 1
 458 -615 l 1
 298 -615 l 1
 298 795 l 1
 1075 795 l 1
 1075 635 l 1
 458 635 l 1
778 283 m 1
 778 -615 l 1
 618 -615 l 1
 618 443 l 1
 1075 443 l 1
 1075 283 l 1
 778 283 l 1
EndSplineSet
Validated: 3073
EndChar

StartChar: dnleftdblform
Encoding: 9557 9557 544
Width: 1075
Flags: W
HStem: 283 160<0 458> 635 160<0 458>
VStem: 458 160<-615 283 443 635>
LayerCount: 2
Fore
SplineSet
0 795 m 1
 618 795 l 1
 618 -615 l 1
 458 -615 l 1
 458 283 l 1
 0 283 l 1
 -0 443 l 1
 458 443 l 1
 458 635 l 1
 -0 635 l 1
 0 795 l 1
EndSplineSet
Validated: 3073
EndChar

StartChar: dndblleftform
Encoding: 9558 9558 545
Width: 1075
Flags: W
HStem: 443 160<0 298 458 618>
VStem: 298 160<-615 443> 618 160<-615 443>
LayerCount: 2
Fore
SplineSet
458 -615 m 1
 298 -615 l 1
 298 443 l 1
 0 443 l 1
 -0 603 l 1
 778 603 l 1
 778 -615 l 1
 618 -615 l 1
 618 443 l 1
 458 443 l 1
 458 -615 l 1
EndSplineSet
Validated: 3073
EndChar

StartChar: dbldnleftform
Encoding: 9559 9559 546
Width: 1075
Flags: W
HStem: 283 160<0 298> 635 160<0 618>
VStem: 298 160<-615 283> 618 160<-615 635>
LayerCount: 2
Fore
SplineSet
0 795 m 1
 778 795 l 1
 778 -615 l 1
 618 -615 l 1
 618 635 l 1
 -0 635 l 1
 0 795 l 1
0 443 m 1
 458 443 l 1
 458 -615 l 1
 298 -615 l 1
 298 283 l 1
 -0 283 l 1
 0 443 l 1
EndSplineSet
Validated: 3073
EndChar

StartChar: uprtdblform
Encoding: 9560 9560 547
Width: 1075
Flags: W
HStem: 283 160<618 1075> 603 160<618 1075>
VStem: 458 160<443 603 763 1775>
LayerCount: 2
Fore
SplineSet
1075 283 m 1
 458 283 l 1
 458 1775 l 1
 618 1775 l 1
 618 763 l 1
 1075 763 l 1
 1075 603 l 1
 618 603 l 1
 618 443 l 1
 1075 443 l 1
 1075 283 l 1
EndSplineSet
Validated: 3073
EndChar

StartChar: updblrtform
Encoding: 9561 9561 548
Width: 1075
Flags: W
HStem: 443 160<458 618 778 1075>
VStem: 298 160<603 1775> 618 160<603 1775>
LayerCount: 2
Fore
SplineSet
778 603 m 1
 1075 603 l 1
 1075 443 l 1
 298 443 l 1
 298 1775 l 1
 458 1775 l 1
 458 603 l 1
 618 603 l 1
 618 1775 l 1
 778 1775 l 1
 778 603 l 1
EndSplineSet
Validated: 3073
EndChar

StartChar: dbluprtform
Encoding: 9562 9562 549
Width: 1075
Flags: W
HStem: 283 160<458 1075> 635 160<778 1075>
VStem: 298 160<443 1775> 618 160<795 1775>
LayerCount: 2
Fore
SplineSet
1075 635 m 1
 618 635 l 1
 618 1775 l 1
 778 1775 l 1
 778 795 l 1
 1075 795 l 1
 1075 635 l 1
1075 283 m 1
 298 283 l 1
 298 1775 l 1
 458 1775 l 1
 458 443 l 1
 1075 443 l 1
 1075 283 l 1
EndSplineSet
Validated: 3073
EndChar

StartChar: upleftdblform
Encoding: 9563 9563 550
Width: 1075
Flags: W
HStem: 283 160<0 458> 603 160<0 458>
VStem: 458 160<443 603 763 1775>
LayerCount: 2
Fore
SplineSet
0 603 m 1
 -0 763 l 1
 458 763 l 1
 458 1775 l 1
 618 1775 l 1
 618 283 l 1
 -0 283 l 1
 0 443 l 1
 458 443 l 1
 458 603 l 1
 0 603 l 1
EndSplineSet
Validated: 3073
EndChar

StartChar: updblleftform
Encoding: 9564 9564 551
Width: 1075
Flags: W
HStem: 443 160<0 298 458 618>
VStem: 298 160<603 1775> 618 160<603 1775>
LayerCount: 2
Fore
SplineSet
778 1775 m 1
 778 443 l 1
 0 443 l 1
 -0 603 l 1
 298 603 l 1
 298 1775 l 1
 458 1775 l 1
 458 603 l 1
 618 603 l 1
 618 1775 l 1
 778 1775 l 1
EndSplineSet
Validated: 3073
EndChar

StartChar: dblupleftform
Encoding: 9565 9565 552
Width: 1075
Flags: W
HStem: 283 160<0 618> 635 160<0 298>
VStem: 298 160<795 1775> 618 160<443 1775>
LayerCount: 2
Fore
SplineSet
298 795 m 1
 298 1775 l 1
 458 1775 l 1
 458 635 l 1
 -0 635 l 1
 0 795 l 1
 298 795 l 1
618 443 m 1
 618 1775 l 1
 778 1775 l 1
 778 283 l 1
 -0 283 l 1
 0 443 l 1
 618 443 l 1
EndSplineSet
Validated: 3073
EndChar

StartChar: vertrtdblform
Encoding: 9566 9566 553
Width: 1075
Flags: W
HStem: 283 160<618 1075> 603 160<618 1075>
VStem: 458 160<-615 283 443 603 763 1775>
LayerCount: 2
Fore
SplineSet
618 -615 m 1
 458 -615 l 1
 458 1775 l 1
 618 1775 l 1
 618 763 l 1
 1075 763 l 1
 1075 603 l 1
 618 603 l 1
 618 443 l 1
 1075 443 l 1
 1075 283 l 1
 618 283 l 1
 618 -615 l 1
EndSplineSet
Validated: 3073
EndChar

StartChar: vertdblrtform
Encoding: 9567 9567 554
Width: 1075
Flags: W
HStem: 443 160<778 1075>
VStem: 298 160<-615 1775> 618 160<-615 443 603 1775>
LayerCount: 2
Fore
SplineSet
778 -615 m 1
 618 -615 l 1
 618 1775 l 1
 778 1775 l 1
 778 603 l 1
 1075 603 l 1
 1075 443 l 1
 778 443 l 1
 778 -615 l 1
458 -615 m 1
 298 -615 l 1
 298 1775 l 1
 458 1775 l 1
 458 -615 l 1
EndSplineSet
Validated: 3073
EndChar

StartChar: dblvertrtform
Encoding: 9568 9568 555
Width: 1075
Flags: W
HStem: 283 160<778 1075> 635 160<778 1075>
VStem: 298 160<-615 1775> 618 457<283 443 635 795> 618 160<-615 283 795 1775>
LayerCount: 2
Fore
SplineSet
458 -615 m 1xe0
 298 -615 l 1
 298 1775 l 1
 458 1775 l 1
 458 -615 l 1xe0
1075 635 m 1xf0
 618 635 l 1xf0
 618 1775 l 1
 778 1775 l 1
 778 795 l 1xe8
 1075 795 l 1
 1075 635 l 1xf0
778 283 m 1xe8
 778 -615 l 1
 618 -615 l 1xe8
 618 443 l 1
 1075 443 l 1
 1075 283 l 1xf0
 778 283 l 1xe8
EndSplineSet
Validated: 3073
EndChar

StartChar: vertleftdblform
Encoding: 9569 9569 556
Width: 1075
Flags: W
HStem: 283 160<0 458> 603 160<0 458>
VStem: 458 160<-615 283 443 603 763 1775>
LayerCount: 2
Fore
SplineSet
618 -615 m 1
 458 -615 l 1
 458 283 l 1
 0 283 l 1
 -0 443 l 1
 458 443 l 1
 458 603 l 1
 0 603 l 1
 -0 763 l 1
 458 763 l 1
 458 1775 l 1
 618 1775 l 1
 618 -615 l 1
EndSplineSet
Validated: 3073
EndChar

StartChar: vertdblleftform
Encoding: 9570 9570 557
Width: 1075
Flags: W
HStem: 443 160<0 298>
VStem: 298 160<-615 443 603 1775> 618 160<-615 1775>
LayerCount: 2
Fore
SplineSet
0 443 m 1
 -0 603 l 1
 298 603 l 1
 298 1775 l 1
 458 1775 l 1
 458 -615 l 1
 298 -615 l 1
 298 443 l 1
 0 443 l 1
778 -615 m 1
 618 -615 l 1
 618 1775 l 1
 778 1775 l 1
 778 -615 l 1
EndSplineSet
Validated: 3073
EndChar

StartChar: dblvertleftform
Encoding: 9571 9571 558
Width: 1075
Flags: W
HStem: 283 160<0 298> 635 160<0 298>
VStem: -0 458<283 443 635 795> 298 160<-615 283 795 1775> 618 160<-615 1775>
LayerCount: 2
Fore
SplineSet
778 -615 m 1xc8
 618 -615 l 1
 618 1775 l 1
 778 1775 l 1
 778 -615 l 1xc8
298 795 m 1xd8
 298 1775 l 1
 458 1775 l 1xd8
 458 635 l 1
 -0 635 l 1
 0 795 l 1xe8
 298 795 l 1xd8
0 443 m 1xe8
 458 443 l 1xe8
 458 -615 l 1
 298 -615 l 1
 298 283 l 1xd8
 -0 283 l 1
 0 443 l 1xe8
EndSplineSet
Validated: 3073
EndChar

StartChar: dnhorizdblform
Encoding: 9572 9572 559
Width: 1075
Flags: W
HStem: 283 160<0 458 618 1075> 635 160<0 1075>
VStem: 458 160<-615 283>
LayerCount: 2
Fore
SplineSet
618 -615 m 1
 458 -615 l 1
 458 283 l 1
 0 283 l 1
 -0 443 l 1
 1075 443 l 1
 1075 283 l 1
 618 283 l 1
 618 -615 l 1
0 635 m 1
 -0 795 l 1
 1075 795 l 1
 1075 635 l 1
 0 635 l 1
EndSplineSet
Validated: 3073
EndChar

StartChar: dndblhorizform
Encoding: 9573 9573 560
Width: 1075
Flags: W
HStem: 443 160<0 298 458 618 778 1075>
VStem: 298 160<-615 443> 618 160<-615 443>
LayerCount: 2
Fore
SplineSet
0 443 m 1
 -0 603 l 1
 1075 603 l 1
 1075 443 l 1
 778 443 l 1
 778 -615 l 1
 618 -615 l 1
 618 443 l 1
 458 443 l 1
 458 -615 l 1
 298 -615 l 1
 298 443 l 1
 0 443 l 1
EndSplineSet
Validated: 3073
EndChar

StartChar: dbldnhorizform
Encoding: 9574 9574 561
Width: 1075
Flags: W
HStem: 283 160<0 298 778 1075> 635 160<0 1075>
VStem: 298 160<-615 283> 618 160<-615 283>
LayerCount: 2
Fore
SplineSet
0 635 m 1
 -0 795 l 1
 1075 795 l 1
 1075 635 l 1
 0 635 l 1
0 443 m 1
 458 443 l 1
 458 -615 l 1
 298 -615 l 1
 298 283 l 1
 -0 283 l 1
 0 443 l 1
778 283 m 1
 778 -615 l 1
 618 -615 l 1
 618 443 l 1
 1075 443 l 1
 1075 283 l 1
 778 283 l 1
EndSplineSet
Validated: 3073
EndChar

StartChar: uphorizdblform
Encoding: 9575 9575 562
Width: 1075
Flags: W
HStem: 283 160<0 1075> 635 160<0 458 618 1075>
VStem: 458 160<795 1775>
LayerCount: 2
Fore
SplineSet
0 635 m 1
 -0 795 l 1
 458 795 l 1
 458 1775 l 1
 618 1775 l 1
 618 795 l 1
 1075 795 l 1
 1075 635 l 1
 0 635 l 1
0 283 m 1
 -0 443 l 1
 1075 443 l 1
 1075 283 l 1
 0 283 l 1
EndSplineSet
Validated: 3073
EndChar

